<svg xmlns="http://www.w3.org/2000/svg" viewBox="0 0 500 500"><g id="freepik--background-complete--inject-20"><rect x="176.89" y="35.52" width="9.53" height="204.9" style="fill:#e0e0e0"></rect><rect x="38.65" y="37.11" width="136.79" height="203.6" rx="0.14" style="fill:#f5f5f5"></rect><path d="M176.89,242.29H37.2a.13.13,0,0,1-.13-.14V35.66a.13.13,0,0,1,.13-.14H176.89a.14.14,0,0,1,.14.14V242.15A.14.14,0,0,1,176.89,242.29ZM40.37,239.12H173.72a.14.14,0,0,0,.14-.14V38.83a.14.14,0,0,0-.14-.14H40.37a.13.13,0,0,0-.13.14V239A.13.13,0,0,0,40.37,239.12Z" style="fill:#ebebeb"></path><rect x="52.42" y="49.67" width="109.49" height="178.34" rx="0.14" style="fill:#fff"></rect><rect x="76.31" y="100.23" width="61.48" height="72.05" rx="0.06" style="fill:#ebebeb"></rect><path d="M132.92,163.46c.08.23-3,1.56-8.73.89a21.4,21.4,0,0,1-9.81-3.92,19.87,19.87,0,0,1-7.62-12,17.21,17.21,0,0,1,5.83-16.4,15.54,15.54,0,0,1,4.42-2.59,11.78,11.78,0,0,1,5.53-.63,9.79,9.79,0,0,1,5.53,2.41,7.23,7.23,0,0,1,2.18,6.44,10.49,10.49,0,0,1-3,5.53,19.88,19.88,0,0,1-4.63,3.41,25.41,25.41,0,0,1-11,3.16,22,22,0,0,1-11.77-2.68,21.41,21.41,0,0,1-8.67-9,18.32,18.32,0,0,1-1.55-12.58,18.69,18.69,0,0,1,6.63-10.36,16.31,16.31,0,0,1,5.56-2.81,13.75,13.75,0,0,1,6.25-.2,10.19,10.19,0,0,1,5.68,3.21,9.41,9.41,0,0,1,2.23,6.07,11.56,11.56,0,0,1-1.48,5.78,15.48,15.48,0,0,1-3.51,4.21,23.53,23.53,0,0,1-8.71,4.63,22.41,22.41,0,0,1-9.16.71,18.66,18.66,0,0,1-8-3.06,17.26,17.26,0,0,1-7.62-12.06,14.61,14.61,0,0,1,2.82-10.34,12.39,12.39,0,0,1,5.22-4.17c1.44-.54,2.26-.53,2.29-.39s-.65.51-1.81,1.29a13.67,13.67,0,0,0-4.06,4.36,12.86,12.86,0,0,0-1.66,8.84A14.49,14.49,0,0,0,87,130.72a16.69,16.69,0,0,0,14,1.33,19.6,19.6,0,0,0,7-4c2-1.8,3.38-4.12,3.26-6.55A4.7,4.7,0,0,0,107,116.9a9,9,0,0,0-4,.19,11.63,11.63,0,0,0-3.8,2,13.88,13.88,0,0,0-4.78,7.62,13.29,13.29,0,0,0,1.18,9.14,16.46,16.46,0,0,0,6.61,6.87,17.08,17.08,0,0,0,9.1,2.12,20.6,20.6,0,0,0,9-2.45,15.33,15.33,0,0,0,3.57-2.51,6,6,0,0,0,1.81-3,2.55,2.55,0,0,0-.73-2.37,5.34,5.34,0,0,0-3-1.31,7.51,7.51,0,0,0-3.48.3,11.06,11.06,0,0,0-3.25,1.78,13.48,13.48,0,0,0-5,12.53,17.21,17.21,0,0,0,5.86,10.38,20.51,20.51,0,0,0,8.42,4.2C129.76,163.62,132.88,163,132.92,163.46Z" style="fill:#e0e0e0"></path><path d="M363,228.89c.13.06-10,22.32-22.64,49.71s-23,49.57-23.11,49.51,10-22.32,22.64-49.72S362.86,228.83,363,228.89Z" style="fill:#e0e0e0"></path><circle cx="381.65" cy="146.28" r="100.64" style="fill:#f5f5f5"></circle><path d="M482.29,146.28s0-.55-.07-1.63c0-.55,0-1.22-.07-2s0-1.73-.14-2.78a99.19,99.19,0,0,0-7-30.79,98,98,0,0,0-7-14.16,101.88,101.88,0,0,0-25.54-28.56,99.06,99.06,0,0,0-19.19-11.47,98,98,0,0,0-23.1-7.29,101.75,101.75,0,0,0-39.36.46,108.2,108.2,0,0,0-13.42,3.82,100.75,100.75,0,0,0-46.68,35,98.45,98.45,0,0,0-8.18,13.18c-.58,1.17-1.23,2.31-1.75,3.51l-1.62,3.59c-1,2.44-2,4.89-2.77,7.42a97.6,97.6,0,0,0-3.83,15.53,108.47,108.47,0,0,0-1.31,16.15,107.18,107.18,0,0,0,1.31,16.16A96.62,96.62,0,0,0,286.4,178c.8,2.53,1.8,5,2.77,7.42s2.13,4.8,3.37,7.1a97.82,97.82,0,0,0,8.18,13.18,100.66,100.66,0,0,0,46.69,35,106.22,106.22,0,0,0,13.43,3.83,102.09,102.09,0,0,0,39.35.45,100.28,100.28,0,0,0,42.3-18.76A101.7,101.7,0,0,0,468,197.64a96,96,0,0,0,7-14.16,99.64,99.64,0,0,0,4.13-12.63A101.49,101.49,0,0,0,482,152.69c.1-1.05.12-2,.14-2.77s.05-1.47.07-2c0-1.08.07-1.63.07-1.63s0,.55,0,1.63c0,.54,0,1.21,0,2s0,1.73-.12,2.78a98.51,98.51,0,0,1-6.86,30.87,96.74,96.74,0,0,1-7,14.22,101.76,101.76,0,0,1-25.56,28.7,100.4,100.4,0,0,1-42.44,18.9,102.4,102.4,0,0,1-39.53-.42,105.48,105.48,0,0,1-13.49-3.84A101.07,101.07,0,0,1,300.31,206a98.79,98.79,0,0,1-8.23-13.24c-1.24-2.31-2.3-4.73-3.39-7.14s-2-4.91-2.78-7.46a98.87,98.87,0,0,1-3.85-15.61,101,101,0,0,1,0-32.49,98.85,98.85,0,0,1,3.84-15.61c.81-2.54,1.81-5,2.79-7.45.54-1.21,1.09-2.41,1.63-3.61s1.18-2.35,1.76-3.53a99.43,99.43,0,0,1,8.23-13.24,101.22,101.22,0,0,1,46.93-35.16,107.08,107.08,0,0,1,13.49-3.83,98.73,98.73,0,0,1,13.52-1.88,100.32,100.32,0,0,1,26,1.46,100.7,100.7,0,0,1,42.44,18.89,101.76,101.76,0,0,1,25.56,28.7,99.41,99.41,0,0,1,13.84,45.1c.1,1,.11,2,.12,2.77s0,1.47,0,2C482.29,145.73,482.29,146.28,482.29,146.28Z" style="fill:#e0e0e0"></path><path d="M322.76,326.44a5.53,5.53,0,1,1-5.92-5.11A5.53,5.53,0,0,1,322.76,326.44Z" style="fill:#e0e0e0"></path><path d="M327.59,356.05v36.47h-8.15v5h8.15v25h152.3V399.72H468.61v-5h11.28v-7.43h5V384H479v-27.9Z" style="fill:#f5f5f5"></path><polygon points="439.44 356.16 439.44 422.06 479.89 422.06 479.89 399.3 468.61 399.3 468.61 394.76 479.89 394.92 479.89 387.48 485 387.49 484.9 383.65 478.95 383.53 478.95 356.05 439.44 356.16" style="fill:#ebebeb"></polygon><path d="M442.79,397.75c0,.31-27.56.57-61.54.57s-61.56-.26-61.56-.57,27.56-.57,61.56-.57S442.79,397.43,442.79,397.75Z" style="fill:#e0e0e0"></path><path d="M442.79,392.52c0,.31-27.56.57-61.54.57s-61.56-.26-61.56-.57,27.56-.57,61.56-.57S442.79,392.2,442.79,392.52Z" style="fill:#e0e0e0"></path><path d="M450.23,368c0,.31-27.56.57-61.54.57s-61.56-.26-61.56-.57,27.56-.57,61.56-.57S450.23,367.65,450.23,368Z" style="fill:#e0e0e0"></path><path d="M451,406.33c0,.31-27.56.57-61.54.57s-61.56-.26-61.56-.57,27.56-.58,61.56-.58S451,406,451,406.33Z" style="fill:#e0e0e0"></path></g><g id="freepik--Table--inject-20"><path d="M486.4,422.47c0,.14-106.29.26-237.39.26s-237.42-.12-237.42-.26,106.28-.26,237.42-.26S486.4,422.32,486.4,422.47Z" style="fill:#263238"></path></g><g id="freepik--Pens--inject-20"><path d="M367.86,393s21.8-7.71,42,0h0L406,400l-36.11,1.39-2-8.32" style="fill:#F3CA40"></path><path d="M371.49,353.88l.39,0a2.37,2.37,0,0,1,2.54,2.2l5.17,71.72-5.13.37-5.17-71.72A2.38,2.38,0,0,1,371.49,353.88Z" style="fill:#e0e0e0"></path><path d="M371.49,353.88a2.61,2.61,0,0,0-1.35.61,2.33,2.33,0,0,0-.77,1.58c0,.71.12,1.56.18,2.51.29,3.82.72,9.31,1.24,16.09,1,13.65,2.39,32.49,3.93,53.45l-.28-.24,2.75-.2,2.38-.17-.24.28c-1.49-21.06-2.83-40-3.79-53.72-.46-6.83-.83-12.35-1.09-16.2q0-.71-.09-1.35a3.6,3.6,0,0,0-.17-1.14,2.34,2.34,0,0,0-1.21-1.29,2.46,2.46,0,0,0-1.1-.22h-.39l.39-.06A2.5,2.5,0,0,1,373,354a2.46,2.46,0,0,1,1.31,1.33,3.76,3.76,0,0,1,.21,1.19c0,.42.07.87.11,1.35.3,3.84.72,9.36,1.25,16.18,1,13.72,2.4,32.66,4,53.71l0,.26-.26,0-2.38.17-2.75.2-.26,0,0-.26c-1.48-21-2.81-39.82-3.77-53.46-.46-6.79-.82-12.28-1.08-16.11-.05-.95-.14-1.78-.13-2.53a2.44,2.44,0,0,1,.86-1.65,2.38,2.38,0,0,1,1-.5A1.22,1.22,0,0,1,371.49,353.88Z" style="fill:#263238"></path><path d="M371.85,405.61l7.3-.53L380.88,429a3.67,3.67,0,0,1-3.39,3.92h0a3.68,3.68,0,0,1-3.92-3.39Z" style="fill:#455a64"></path><rect x="370.75" y="394.59" width="1.42" height="31.13" transform="translate(771.49 792.49) rotate(175.87)" style="fill:#455a64"></rect><path d="M379.15,405.08c0,.16-3,.59-7.36,1.06l.33-.38c.13,1.67.27,3.48.42,5.39.26,3.54.44,6.74.54,9.06a17.36,17.36,0,0,1,0,3.77,17.86,17.86,0,0,1-.55-3.73c-.24-2.31-.51-5.51-.77-9-.12-1.91-.24-3.73-.35-5.4l0-.35.35,0C376.11,405.08,379.14,404.93,379.15,405.08Z" style="fill:#263238"></path><rect x="379.7" y="355.76" width="5.14" height="57.99" style="fill:#e0e0e0"></rect><path d="M384.84,413.75s0-.11,0-.31,0-.51,0-.88c0-.8,0-1.92,0-3.36,0-2.94,0-7.14-.08-12.35,0-10.44-.06-24.89-.11-41.09l.26.26h-5.13c.51-.52.14-.13.25-.24v9.55q0,4.68,0,9.11c0,5.91,0,11.44,0,16.46-.05,10-.09,18-.11,22.85l-.11-.1,3.79.06,1,0,.35,0a1,1,0,0,1-.32,0l-1,0-3.85.06h-.1v-.11c0-4.87-.06-12.85-.11-22.85,0-5,0-10.55,0-16.46q0-4.43,0-9.11c0-1.56,0-3.14,0-4.74v-4.81c.12-.12-.26.24.27-.28h5.39v.26c0,16.28-.08,30.79-.11,41.28,0,5.18-.06,9.36-.08,12.29q0,2.12,0,3.3l0,.85C384.86,413.67,384.85,413.76,384.84,413.75Z" style="fill:#263238"></path><path d="M385.83,378.42h-7.32v-24a3.66,3.66,0,0,1,3.66-3.66h0a3.66,3.66,0,0,1,3.66,3.66Z" style="fill:#455a64"></path><rect x="385.83" y="358.35" width="1.42" height="31.13" style="fill:#455a64"></rect><path d="M378.51,378.42c0-.16,3-.37,7.41-.53l-.35.36c0-1.67,0-3.49,0-5.41,0-3.54,0-6.75.11-9.07a17.57,17.57,0,0,1,.28-3.76,17.57,17.57,0,0,1,.28,3.76c.07,2.32.12,5.53.12,9.07,0,1.92,0,3.74,0,5.41v.36h-.35C381.55,378.65,378.51,378.58,378.51,378.42Z" style="fill:#263238"></path><rect x="390.06" y="369.37" width="5.14" height="57.99" style="fill:#e0e0e0"></rect><path d="M395.2,427.36a1.92,1.92,0,0,1,0-.31c0-.22,0-.51,0-.88,0-.8,0-1.93,0-3.36,0-2.94-.05-7.14-.08-12.35,0-10.44-.07-24.89-.11-41.09l.26.26h-5.14c.52-.52.14-.13.26-.24v9.55q0,4.68,0,9.11c0,5.9,0,11.44,0,16.46,0,10-.09,18-.12,22.85l-.1-.1,3.78.06,1,0,.36,0a1.07,1.07,0,0,1-.32,0l-1,0-3.84.06H390v-.11c0-4.87-.07-12.85-.12-22.85,0-5,0-10.56,0-16.46,0-2.95,0-6,0-9.11v-9.55c.12-.12-.26.24.26-.28h5.4v.26c0,16.28-.08,30.79-.11,41.28,0,5.18-.06,9.36-.08,12.29,0,1.41,0,2.51,0,3.3v.85C395.21,427.28,395.2,427.37,395.2,427.36Z" style="fill:#263238"></path><path d="M396.19,392h-7.33V368a3.66,3.66,0,0,1,3.67-3.66h0a3.66,3.66,0,0,1,3.66,3.66Z" style="fill:#455a64"></path><rect x="396.19" y="371.96" width="1.42" height="31.13" style="fill:#455a64"></rect><path d="M388.86,392c0-.16,3-.37,7.42-.53l-.35.36c0-1.68,0-3.49,0-5.41,0-3.54.05-6.75.12-9.07a17.57,17.57,0,0,1,.28-3.76,17.57,17.57,0,0,1,.28,3.76c.07,2.32.11,5.53.11,9.07,0,1.92,0,3.73,0,5.41v.36h-.34C391.9,392.26,388.87,392.19,388.86,392Z" style="fill:#263238"></path><rect x="399.82" y="353.64" width="5.14" height="57.99" style="fill:#e0e0e0"></rect><path d="M405,411.63s0-.11,0-.31,0-.52,0-.88c0-.8,0-1.93,0-3.36,0-2.94-.05-7.15-.08-12.35,0-10.44-.06-24.89-.11-41.09l.26.26h-5.13l.25-.25v9.55c0,3.12,0,6.17,0,9.12,0,5.9,0,11.43,0,16.46-.05,10-.09,18-.11,22.85l-.11-.1,3.79.06,1,0,.35,0a1.7,1.7,0,0,1-.32,0l-1,0-3.85.06h-.1v-.1c0-4.88-.06-12.85-.11-22.85,0-5,0-10.56,0-16.46V363.2c0-1.56,0-3.14,0-4.73v-4.82l.27-.27h5.39v.26c0,16.27-.08,30.79-.11,41.28,0,5.18-.06,9.36-.08,12.28,0,1.41,0,2.52,0,3.31l0,.84A1.32,1.32,0,0,1,405,411.63Z" style="fill:#263238"></path><path d="M406,376.29h-7.32v-24a3.66,3.66,0,0,1,3.66-3.67h0a3.66,3.66,0,0,1,3.66,3.67Z" style="fill:#455a64"></path><rect x="405.95" y="356.23" width="1.42" height="31.13" style="fill:#455a64"></rect><path d="M398.63,376.29c0-.16,3-.36,7.41-.52l-.35.36c0-1.68,0-3.5,0-5.41,0-3.55.05-6.75.12-9.08a17.68,17.68,0,0,1,.28-3.76,17.68,17.68,0,0,1,.28,3.76c.07,2.33.12,5.53.12,9.08,0,1.91,0,3.73,0,5.41v.35h-.35C401.66,376.52,398.63,376.45,398.63,376.29Z" style="fill:#263238"></path><path d="M405.14,441.16c-10.89,5.14-21.88,5.06-32.94,0L367.86,393c13.26,3.88,27.33,3.51,42,0Z" style="fill:#F3CA40"></path><path d="M409.87,392.71a9.1,9.1,0,0,1-1.57.57c-1,.34-2.52.76-4.38,1.2s-4.12.86-6.64,1.2a73.82,73.82,0,0,1-8.24.56,75.58,75.58,0,0,1-8.24-.41,64.58,64.58,0,0,1-6.66-1.08c-1.87-.4-3.38-.79-4.4-1.11a11.51,11.51,0,0,1-1.58-.54,9.68,9.68,0,0,1,1.63.34c1,.26,2.55.59,4.42.95s4.13.7,6.64,1a75.5,75.5,0,0,0,16.37-.15c2.51-.31,4.75-.68,6.62-1.08s3.37-.75,4.4-1A10.28,10.28,0,0,1,409.87,392.71Z" style="fill:#263238"></path></g><g id="freepik--Papers--inject-20"><polygon points="230.38 439 146.72 441.23 230.38 475.23 320.35 469.91 230.38 439" style="fill:#e0e0e0"></polygon><polygon points="206.53 435.63 122.88 437.85 206.53 471.85 296.51 466.53 206.53 435.63" style="fill:#f5f5f5"></polygon><polygon points="128.34 426.78 211.99 460.78 211.99 466.96 128.34 431.77 128.34 426.78" style="fill:#e0e0e0"></polygon><polygon points="211.99 466.96 301.96 461.21 301.96 455.47 211.99 460.78 211.99 466.96" style="fill:#ebebeb"></polygon><polygon points="211.99 424.56 128.34 426.78 211.99 460.78 301.96 455.46 211.99 424.56" style="fill:#fff"></polygon><path d="M212,424.56s.14,0,.42.12l1.25.41,4.84,1.63L236.85,433,302,455.25a.23.23,0,0,1,.14.29.21.21,0,0,1-.2.15l-84.33,5L212,461a.23.23,0,0,1-.11,0l-83.63-34a.23.23,0,0,1-.13-.29.26.26,0,0,1,.2-.14L189.07,425l16.94-.39,4.46-.09H212l-1.53.07-4.47.15-17,.51L128.34,427l.08-.42,83.67,34-.12,0,5.65-.33L302,455.24l-.06.44L236.8,433.22l-18.32-6.36-4.83-1.69-1.24-.45Z" style="fill:#263238"></path><path d="M211.93,467.19a19.33,19.33,0,0,1,0-6.32,19.33,19.33,0,0,1,0,6.32Z" style="fill:#263238"></path><path d="M269.43,449c0,.15-13.64,1.08-30.47,2.09s-30.5,1.71-30.51,1.57,13.63-1.08,30.48-2.09S269.42,448.9,269.43,449Z" style="fill:#263238"></path><path d="M260.56,445.62c0,.15-13.64,1.08-30.48,2.09s-30.49,1.71-30.5,1.56,13.63-1.07,30.47-2.08S260.55,445.48,260.56,445.62Z" style="fill:#263238"></path><path d="M251.69,442.2c0,.14-13.64,1.08-30.48,2.08s-30.5,1.71-30.51,1.57,13.64-1.08,30.48-2.09S251.68,442.05,251.69,442.2Z" style="fill:#263238"></path><path d="M241.37,438.78c0,.14-13.64,1.07-30.48,2.08s-30.5,1.71-30.51,1.57,13.64-1.08,30.48-2.09S241.36,438.63,241.37,438.78Z" style="fill:#263238"></path><path d="M232.52,435.35c0,.15-13.64,1.08-30.48,2.09s-30.5,1.71-30.5,1.56,13.63-1.07,30.47-2.08S232.51,435.21,232.52,435.35Z" style="fill:#263238"></path><path d="M221.7,431.87c0,.14-13.63,1.08-30.47,2.08s-30.5,1.71-30.51,1.57,13.63-1.08,30.48-2.09S221.69,431.72,221.7,431.87Z" style="fill:#263238"></path></g><g id="freepik--Hand--inject-20"><path d="M287.22,187.35s-7.77-.57-8.35-13.81-4.89-46.64-4-53.26,7.2-7.77,9.5-10.07,61.6-27.64,67.07-26.77,80,26.48,80,26.48l33.06,93.51s-17.22,6.66-30.75,6.95-55-12.95-55-12.95l-7,3.06s3.22,10.61-2.55,13.18-12,.42-12,.42-.33,12.51-9.83,12.23-20.38-8.45-20.38-8.45-5.18,3.45-8.35.86-21-21.3-21-21.3Z" style="fill:#ae7461"></path><path d="M350.42,130.64a7.77,7.77,0,0,1-.76-1.13,32.39,32.39,0,0,1-1.75-3.25,43.68,43.68,0,0,1-2.05-5.08,45.31,45.31,0,0,1-2.3-13.19,43.54,43.54,0,0,1,.2-5.47,32.88,32.88,0,0,1,.55-3.65,6.56,6.56,0,0,1,.33-1.32,7,7,0,0,1-.13,1.35c-.13.86-.27,2.1-.38,3.65A49.34,49.34,0,0,0,344,108a52.56,52.56,0,0,0,.69,6.6,53.39,53.39,0,0,0,1.59,6.45,48.75,48.75,0,0,0,1.93,5.08c.62,1.41,1.18,2.54,1.59,3.3A6.93,6.93,0,0,1,350.42,130.64Z" style="fill:#6f4439"></path><path d="M368.29,118.47a8,8,0,0,1-1.19,1.88,47.06,47.06,0,0,1-3.43,4.13,47.6,47.6,0,0,1-3.88,3.71,8.76,8.76,0,0,1-1.79,1.32c-.1-.12,2.45-2.34,5.29-5.39S368.17,118.38,368.29,118.47Z" style="fill:#6f4439"></path><path d="M316.38,181.28a8.53,8.53,0,0,1,1.21,1.15c.75.76,1.82,1.88,3.11,3.3s2.79,3.14,4.32,5.16a35.46,35.46,0,0,1,4.31,7.06,21.29,21.29,0,0,1,1.74,8.09,18.13,18.13,0,0,1-1.13,6.67,12.89,12.89,0,0,1-2.35,3.9,7.45,7.45,0,0,1-.87.89,1.63,1.63,0,0,1-.33.27s.39-.45,1.05-1.29a14,14,0,0,0,2.15-3.9,18.23,18.23,0,0,0,1-6.53,21.25,21.25,0,0,0-1.74-7.89,36.5,36.5,0,0,0-4.21-7c-1.5-2-3-3.76-4.22-5.21s-2.22-2.53-3-3.41A12.46,12.46,0,0,1,316.38,181.28Z" style="fill:#6f4439"></path><path d="M348,170.77a1.18,1.18,0,0,1-.06.3,7.64,7.64,0,0,1-.23.84,17.11,17.11,0,0,1-1.34,3.05,18.45,18.45,0,0,1-3.06,4.14,12.23,12.23,0,0,1-2.51,2,7.36,7.36,0,0,1-3.37,1.06l.16-.39a12,12,0,0,1,2.68,5.78,14,14,0,0,1-.23,7,7.12,7.12,0,0,1-1.25,2.28l-.09-.41a66.76,66.76,0,0,1,9.34,5.07,30.25,30.25,0,0,1,3.62,2.86,22.84,22.84,0,0,1,2.64,3,18.2,18.2,0,0,1,2.61,5.11,12.58,12.58,0,0,1,.39,1.51,2,2,0,0,1,.1.53c-.05,0-.24-.71-.67-2a19.48,19.48,0,0,0-2.71-5,21.83,21.83,0,0,0-2.65-2.91,30.59,30.59,0,0,0-3.59-2.79,69.31,69.31,0,0,0-9.3-5l-.3-.14.22-.26a6.92,6.92,0,0,0,1.15-2.11,13.59,13.59,0,0,0,.23-6.75,11.69,11.69,0,0,0-2.53-5.56l-.34-.37.5,0a7,7,0,0,0,3.18-1,11.7,11.7,0,0,0,2.45-1.86,19,19,0,0,0,3.09-4,20,20,0,0,0,1.44-3A7,7,0,0,1,348,170.77Z" style="fill:#6f4439"></path><path d="M362.23,194.64a2.39,2.39,0,0,1-.22-.82c-.1-.53-.26-1.29-.48-2.23a24.8,24.8,0,0,0-2.71-6.93,21.27,21.27,0,0,0-4.94-5.55c-1.5-1.2-2.5-1.85-2.46-1.93a2.92,2.92,0,0,1,.76.37c.47.28,1.14.69,1.93,1.27a19.47,19.47,0,0,1,5.16,5.57,21.92,21.92,0,0,1,2.62,7.12,21.59,21.59,0,0,1,.32,2.28A3.29,3.29,0,0,1,362.23,194.64Z" style="fill:#6f4439"></path><path d="M372.49,203.43a6.19,6.19,0,0,1-.4-1.08,9.57,9.57,0,0,0-1.47-2.7c-1.54-2.18-5.11-3.44-8.84-4.9-1.89-.71-3.72-1.24-5.42-1.72s-3.17-1.06-4.41-1.52L349,190.4a5.14,5.14,0,0,1-1.05-.46,4,4,0,0,1,1.12.26c.71.21,1.73.55,3,1s2.75.92,4.43,1.4,3.56,1,5.46,1.69,3.68,1.47,5.27,2.23a9.52,9.52,0,0,1,3.68,2.94,8.79,8.79,0,0,1,1.37,2.86A4,4,0,0,1,372.49,203.43Z" style="fill:#6f4439"></path><path d="M374,178.59a19.91,19.91,0,0,1,.5,2.79c.27,1.72.7,4.09,1.33,6.66s1.35,4.88,1.9,6.53a20.66,20.66,0,0,1,.85,2.7,12.6,12.6,0,0,1-1.2-2.57,52.36,52.36,0,0,1-3.25-13.27A12.51,12.51,0,0,1,374,178.59Z" style="fill:#6f4439"></path><path d="M442.11,185a5.33,5.33,0,0,1-.68.23l-2,.57-1.45.4-1.74.39c-1.25.28-2.67.6-4.27.84l-2.5.41-2.73.32c-1.88.27-3.91.33-6,.49a95,95,0,0,1-13.87-.52,80.08,80.08,0,0,1-13.59-2.88c-2-.68-4-1.3-5.69-2.08-.87-.38-1.74-.69-2.52-1.09L382.76,181a42.33,42.33,0,0,1-3.78-2.16c-.55-.34-1.07-.63-1.52-.94l-1.22-.88-1.67-1.24a3.86,3.86,0,0,1-.56-.45,2.91,2.91,0,0,1,.62.37l1.73,1.15,1.23.84c.46.3,1,.58,1.54.9a42.58,42.58,0,0,0,3.8,2.08l2.26,1.11c.79.38,1.65.68,2.52,1.05,1.73.76,3.66,1.35,5.68,2a82.33,82.33,0,0,0,13.5,2.82,98.6,98.6,0,0,0,13.79.56c2.12-.15,4.14-.19,6-.44l2.72-.28,2.49-.39c1.59-.21,3-.51,4.27-.76l1.75-.34,1.45-.36,2-.47A3.75,3.75,0,0,1,442.11,185Z" style="fill:#6f4439"></path><path d="M306.9,135.23c-.07.05-.94-1.29-2.58-3.25a67,67,0,0,0-15-13.14c-2.16-1.37-3.6-2.06-3.56-2.14a5.3,5.3,0,0,1,1.05.41,26.36,26.36,0,0,1,2.7,1.41,54.13,54.13,0,0,1,8.12,5.94,52.77,52.77,0,0,1,6.94,7.29,27.13,27.13,0,0,1,1.76,2.49A4.68,4.68,0,0,1,306.9,135.23Z" style="fill:#6f4439"></path><path d="M297.1,145.07a23.58,23.58,0,0,0-2.54-2.6,24.71,24.71,0,0,0-3.17-1.76,6.7,6.7,0,0,1,5.71,4.36Z" style="fill:#6f4439"></path><path d="M279.7,222l0,.08a28.53,28.53,0,0,0-.79,4.85c.15.94,1.09.31,1.09.31l2.45-4.2Z" style="fill:#263238"></path><polygon points="279.4 222.19 286.32 192.05 298.11 197.04 282.58 223.44 279.4 222.19" style="fill:#e0e0e0"></polygon><path d="M338.64,48.34s-51.9,141.87-52.32,143.71l11.79,5s34.32-83,34.9-84.49,21.12-58.66,21.12-58.66Z" style="fill:#F3CA40"></path><polygon points="338.64 48.34 342.77 38.28 345.98 37.33 355.91 40.52 357.51 43.63 354.13 53.89 338.64 48.34" style="fill:#e0e0e0"></polygon><path d="M346,37.32l5.61-14.56a17.36,17.36,0,0,1,9.62,3.17l-5.3,14.59Z" style="fill:#e0e0e0"></path><path d="M357.93,43.87a9.68,9.68,0,0,1-2.36-.48c-1.44-.38-3.41-1-5.55-1.73s-4-1.53-5.41-2.14a10.4,10.4,0,0,1-2.14-1.1,11.73,11.73,0,0,1,2.28.76c1.39.52,3.31,1.24,5.44,2s4.07,1.4,5.48,1.86A12.42,12.42,0,0,1,357.93,43.87Z" style="fill:#263238"></path><path d="M354.13,53.89h0A5.6,5.6,0,0,1,357.55,61l-16.12,46.62a3.12,3.12,0,0,1-4.22,1.83h0a3.11,3.11,0,0,1-1.66-3.9Z" style="fill:#e0e0e0"></path><g style="opacity:0.2"><path d="M312,203.19a4.08,4.08,0,0,0-3.23-1.33c-2,.17-3.09,1.71-3.48,3.62,5,5.29,9.87,10.32,13.38,13.36a1.3,1.3,0,0,0,.69.29l.62.05A31.1,31.1,0,0,0,312,203.19Z" style="fill:#fff"></path></g><g style="opacity:0.2"><path d="M346.56,226.32a17.88,17.88,0,0,0-.54-6.84,8.1,8.1,0,0,0-4.32-5.1,6.37,6.37,0,0,0-5.94.6c-1.72,1.16-2.79,4.63-2.75,6.7a53.72,53.72,0,0,0,8.25,3.72A25.33,25.33,0,0,0,346.56,226.32Z" style="fill:#fff"></path></g><g style="opacity:0.2"><path d="M365.72,214.71c2.21-.75,2.62-5.81,1.35-7.78a7.54,7.54,0,0,0-4-3.15,11.47,11.47,0,0,0-6-.84c-2.47.49-3.72,1.38-4.46,2.69,0,0,3.68,3.8,4.52,8.46A19.34,19.34,0,0,0,365.72,214.71Z" style="fill:#fff"></path></g><path d="M464.49,203.43l-33.06-93.51L469,97.55s19.42,35.85,11.06,69.66C472.11,199.52,464.49,203.43,464.49,203.43Z" style="fill:#ae7461"></path><path d="M384.81,120.61c-12.17,4.77-25.11,7.21-37.85,10.18s-27.8,6.71-36.7,13.36c-8.59,6.43-19.2,15.66-22.73,25.3a14.21,14.21,0,0,0,1,12.36,8.93,8.93,0,0,0,6.36,4.35c7.53,1.2,15.29-1.69,21-4.66,5.57-2.88,25.45-12.7,25.45-12.7l16.57-.26,12.72,3.56" style="fill:#ae7461"></path><path d="M390.12,162.1a3.21,3.21,0,0,1-.52.68,21.27,21.27,0,0,1-1.63,1.68,31.49,31.49,0,0,1-6.26,4.5,30.8,30.8,0,0,1-7.18,2.83,21.25,21.25,0,0,1-2.29.47,2.68,2.68,0,0,1-.86.06c0-.08,1.18-.32,3.05-.88a38,38,0,0,0,7-2.93,37.49,37.49,0,0,0,6.26-4.33C389.21,162.91,390.05,162,390.12,162.1Z" style="fill:#6f4439"></path><path d="M363.49,159.43a14.16,14.16,0,0,1-2.11,4.94,14.48,14.48,0,0,1-3.4,4.17c-.11-.11,1.45-1.92,3-4.44S363.35,159.38,363.49,159.43Z" style="fill:#6f4439"></path><path d="M335.87,162.36a34.5,34.5,0,0,1,5.54,6.44,17.13,17.13,0,0,1-3-3.05A17.59,17.59,0,0,1,335.87,162.36Z" style="fill:#6f4439"></path><path d="M325.22,166.29a3.12,3.12,0,0,1-.76-.53,19.48,19.48,0,0,1-1.85-1.73,25,25,0,0,1-6.7-15,19.07,19.07,0,0,1-.05-2.54,3.7,3.7,0,0,1,.11-.92c.1,0,0,1.32.31,3.42a27.51,27.51,0,0,0,6.6,14.83C324.28,165.37,325.29,166.22,325.22,166.29Z" style="fill:#6f4439"></path><path d="M324.71,160.86c-.16,0-.65-3.53-2.2-7.64s-3.49-7.12-3.35-7.2a7.78,7.78,0,0,1,1.38,1.91A31.52,31.52,0,0,1,323,153a30.42,30.42,0,0,1,1.49,5.48A8.31,8.31,0,0,1,324.71,160.86Z" style="fill:#6f4439"></path><g style="opacity:0.2"><path d="M294.94,182.49a24.73,24.73,0,0,0,7.1.66c2.51-.26,5.07-1.64,6-4,1.05-2.71-.29-5.69-1.6-8.28l-3.25-6.42c-.87-1.71-2-3.62-4.43-3.1a4.89,4.89,0,0,0-1.71.73,21.58,21.58,0,0,0-8.21,10.17,7.25,7.25,0,0,0,1,7.13A8.74,8.74,0,0,0,294.94,182.49Z" style="fill:#fff"></path></g><path d="M370.7,172.1s-.3-.06-.85-.21l-2.48-.66L358,168.66h0l-16.57.32.08,0-14.24,7.14-8,4c-2.76,1.36-5.57,2.91-8.65,4.07a35.9,35.9,0,0,1-9.8,2.4,24.2,24.2,0,0,1-5.24-.09,9.26,9.26,0,0,1-5-2,11.32,11.32,0,0,1-3.18-4.47,13.94,13.94,0,0,1-1-5.47,15.14,15.14,0,0,1,1.09-5.54,31.14,31.14,0,0,1,2.57-5.09c4-6.29,9.37-11.3,14.71-15.75q2-1.66,4.07-3.22c.68-.51,1.35-1,2.06-1.52l1-.73,1.08-.66a57.4,57.4,0,0,1,8.88-4.29,144.36,144.36,0,0,1,17.38-5.34c5.53-1.37,10.7-2.52,15.42-3.57,9.46-2.06,17.06-4,22.22-5.58,2.58-.79,4.57-1.48,5.91-2l1.52-.55.53-.17s-2.74,1.22-7.9,2.87-12.75,3.63-22.19,5.74c-4.72,1.07-9.89,2.24-15.4,3.63A145.78,145.78,0,0,0,322,138.21a58.81,58.81,0,0,0-8.79,4.28,78.05,78.05,0,0,0-8.18,6.09c-5.32,4.44-10.64,9.43-14.6,15.63-1.93,3.21-3.62,6.69-3.58,10.37a13.5,13.5,0,0,0,1,5.27,10.67,10.67,0,0,0,3,4.26,8.66,8.66,0,0,0,4.73,1.88,23.91,23.91,0,0,0,5.14.1,36,36,0,0,0,9.67-2.35c3.05-1.15,5.84-2.68,8.61-4l8-4,14.27-7.08,0,0h0l16.57-.21h0l9.39,2.69,2.45.72C370.42,172,370.7,172.1,370.7,172.1Z" style="fill:#6f4439"></path><g style="opacity:0.4"><path d="M435.63,185.67a7.69,7.69,0,0,0-3.21.41,68.85,68.85,0,0,1-55.32-9.17c-4-2.7-5.84-4.63-9-5.47l-2.47-.67c9.21,9.28,19.12,16.47,31.47,20.76s26.43,4.56,38.22-1.09c1.13-.54,2.4-1.39,2.39-2.65A2.42,2.42,0,0,0,435.63,185.67Z" style="fill:#6f4439"></path></g></g><g id="freepik--Character--inject-20"><polygon points="210.89 430.67 206.71 428.48 208.76 426.63 210.89 430.67" style="fill:#263238"></polygon><polygon points="201.03 425.86 205.93 421.5 208.8 426.8 206.71 428.48 201.03 425.86" style="fill:#fff"></polygon><polygon points="118.63 277.64 146.56 268.33 162.12 255.19 165.48 260.51 178.53 257.52 215.46 267.12 221.42 277.65 252.94 286.28 253.09 330.49 247.36 411.38 248.2 424.24 97.37 424.24 94.88 370.51 94.77 337.08 118.63 277.64" style="fill:#F3CA40"></polygon><path d="M198.4,401.18,231,399.6s6.32,3.6,8,13.93,0,10.32,0,10.32l-16.4,5.54-34.79-.8-12.62-15.85,9.51-5.61Z" style="fill:#ae7461"></path><path d="M85.77,389.26s31.23-49.24,26-42.12c-.64.88,3.18-2.82,8.1-14.89,4.72-11.6,17-60.28,17-60.28l-28.14,7.47c-7.4,2-13.43,2.6-19.8,6.84-5.56,3.69-11.35,10.93-15.12,16.43-14,20.49-39.76,60.39-43,65.49-4.64,7.28-14,26.07-13.92,37.29.09,9.77,2,18.48,16.91,26.26,13.76,7.18,101.72,2.18,101.72,2.18L135,397.36Z" style="fill:#F3CA40"></path><path d="M340.11,379.88c-1.29-3.22-50.47-57.6-75.17-82.77a104.16,104.16,0,0,0-12-10.83l-8.14,53s2.8,12.22,4.5,21.26c.37,1.95,25.91,19.33,25.91,19.33l5.47,3.5-49.93,13.2,2.09,31.72L322.23,426C333.84,421.51,352.32,410.31,340.11,379.88Z" style="fill:#F3CA40"></path><path d="M322.23,426l-.45,0-1.33.05-5.12.18-18.95.58-63.53,1.75h-.23l0-.24c-.2-3-.4-6.12-.61-9.31-.51-7.74-1-15.28-1.47-22.41v-.21l.2-.05c5.35-1.1,10.47-2.48,15.37-3.81l14-3.88c8.87-2.46,16.77-4.55,23.43-6a123.35,123.35,0,0,1,15.76-2.56c1.86-.2,3.31-.2,4.28-.22h1.49l-.38,0-1.1.06c-1,0-2.42.07-4.27.3a127.66,127.66,0,0,0-15.71,2.7c-6.64,1.48-14.53,3.59-23.39,6.08l-14,3.92c-4.9,1.34-10,2.73-15.39,3.85l.19-.26c.48,7.14,1,14.67,1.48,22.41.21,3.19.42,6.35.61,9.31l-.25-.23,63.53-1.59,19-.42,5.12-.09h1.78Z" style="fill:#263238"></path><path d="M204.86,414.36a2.81,2.81,0,0,0-.87-1.07l-5.29-4.72-3.07,9.14a6.18,6.18,0,0,0,8.67-1.18A2.33,2.33,0,0,0,204.86,414.36Z" style="fill:#6f4439"></path><path d="M133.8,363.39,201,425.86l6.35,3,3.51,1.8-1.64-3-3.32-6.14L137.87,359a3,3,0,0,0-4.08,0h0A3,3,0,0,0,133.8,363.39Z" style="fill:#455a64"></path><path d="M135.05,398.51l5.27.94s27.31-10.08,31.21-10.59c3-.39,17.38,3,23.75,4.54a5.57,5.57,0,0,1,4.33,5.58.49.49,0,0,1,0,.12,5.59,5.59,0,0,1-3.51,4.76h0s5.36,1.67,2.93,7.34c-1.79,4.19-7.45,3.55-7.45,3.55l-9.45.18s2.41.72,6,1.57c3.9.91,4.94,1.62,4.94,1.62s5.7,5.48.19,7.77a11.68,11.68,0,0,1-5.76,1s1.65,5.89-2.76,6.91-33.55-1.2-33.55-1.2-1.54-.86-7.48-1.37l-8.22-.57Z" style="fill:#ae7461"></path><path d="M135.05,398.51s0,.2,0,.58,0,1,0,1.67c0,1.48.08,3.62.13,6.39.11,5.54.26,13.56.45,23.51l-.17-.17,7.55.51c1.32.09,2.68.23,4.06.43a17.51,17.51,0,0,1,4.18,1l-.08,0c6.08.44,12.7.87,19.73,1.18,3.51.15,7.12.29,10.82.23a20.8,20.8,0,0,0,2.74-.22,3.48,3.48,0,0,0,2.22-1.3,4.6,4.6,0,0,0,.82-2.55,9.33,9.33,0,0,0-.28-2.78l-.08-.35.36,0a10.55,10.55,0,0,0,3.64-.34,8.46,8.46,0,0,0,3.38-1.52,2.82,2.82,0,0,0,.53-3.34,10.2,10.2,0,0,0-2.19-3.16l0,0a21.4,21.4,0,0,0-4.54-1.5l-6.37-1.66-1.75-.45,1.81,0,9.45-.18h0a9.78,9.78,0,0,0,3.81-.43,5.56,5.56,0,0,0,3-2.18c.17-.25.29-.54.44-.81l.32-.89c.09-.3.14-.6.21-.9s.06-.62.07-.92a4.32,4.32,0,0,0-1.49-3.17,6.25,6.25,0,0,0-1.53-1l-.2-.09-.11,0-.05,0c0,.4-.05-.54,0-.45h0l.41-.19a6,6,0,0,0,.76-.47,5.33,5.33,0,0,0,2-2.84,5.15,5.15,0,0,0-.23-3.4,5.39,5.39,0,0,0-2.24-2.5,11.66,11.66,0,0,0-3.25-1l-3.33-.8c-2.2-.51-4.36-1-6.46-1.45s-4.17-.88-6.19-1.24c-1-.18-2-.34-3-.47a15,15,0,0,0-2.89-.19,45.53,45.53,0,0,0-5.37,1.48c-1.72.54-3.38,1.1-5,1.63l-8.73,3-12.2,4.35h0l-3.95-.75-1-.19-.33-.07.31,0,1,.16,4,.67h0c2.78-1.05,6.91-2.58,12.16-4.47,2.63-1,5.54-2,8.72-3.07,1.58-.54,3.24-1.11,5-1.66a44.44,44.44,0,0,1,5.44-1.51,14.87,14.87,0,0,1,3,.17c1,.13,2,.29,3,.47,2,.35,4.09.76,6.2,1.22s4.27.93,6.47,1.44l3.34.78,1.69.41a6.62,6.62,0,0,1,1.69.67,6,6,0,0,1,2.44,2.72,5.59,5.59,0,0,1,.25,3.7,5.8,5.8,0,0,1-2.16,3.1,6.36,6.36,0,0,1-.83.51c-.14.08-.29.14-.44.21h0c0,.1,0-.84,0-.44l.06,0,.12,0,.22.09a6.47,6.47,0,0,1,1.65,1,5.16,5.16,0,0,1,1.21,1.57,4.92,4.92,0,0,1,.45,1.95c0,.33,0,.67-.07,1s-.13.65-.23,1l-.33.94c-.16.3-.3.61-.48.89a6,6,0,0,1-3.22,2.37,10.1,10.1,0,0,1-4,.46h0l-9.45.19.07-.49,6.35,1.65a20.78,20.78,0,0,1,4.7,1.57h0l0,0a10.58,10.58,0,0,1,2.31,3.34,4.05,4.05,0,0,1,.32,2,2.92,2.92,0,0,1-1,1.84,9,9,0,0,1-3.6,1.64,11,11,0,0,1-3.84.35l.28-.31a10.07,10.07,0,0,1,.29,2.94,5.06,5.06,0,0,1-.92,2.8,4,4,0,0,1-2.52,1.49,19.46,19.46,0,0,1-2.82.22c-3.72.07-7.34-.09-10.86-.24-7-.33-13.64-.78-19.74-1.23h0l-.06,0a17.78,17.78,0,0,0-4-1c-1.37-.2-2.71-.35-4-.44l-7.54-.54h-.16v-.16c-.11-10-.19-18.06-.25-23.64,0-2.74,0-4.88,0-6.34,0-.71,0-1.25,0-1.64S135.05,398.51,135.05,398.51Z" style="fill:#6f4439"></path><path d="M195.63,403.86a56,56,0,0,1-7.49-.44,56.79,56.79,0,0,1-7.45-.93,56,56,0,0,1,7.49.44A58.91,58.91,0,0,1,195.63,403.86Z" style="fill:#6f4439"></path><path d="M166.15,430.67c0,.05-.43-.1-.89-.58a3.71,3.71,0,0,1-1-2.39,3.64,3.64,0,0,1,.82-2.44c.43-.52.82-.7.85-.65s-.24.33-.56.85a4.07,4.07,0,0,0-.61,2.23,4,4,0,0,0,.77,2.17C165.88,430.36,166.19,430.6,166.15,430.67Z" style="fill:#6f4439"></path><path d="M165.71,420.78c0,.06-.51,0-1.16-.42A3.56,3.56,0,0,1,164,415c.54-.57,1-.71,1-.66s-.36.31-.78.88a3.74,3.74,0,0,0-.73,2.56,3.67,3.67,0,0,0,1.27,2.33C165.3,420.55,165.74,420.7,165.71,420.78Z" style="fill:#6f4439"></path><path d="M165.54,409.27c0,.05-.5-.23-1-.95a4.58,4.58,0,0,1-.67-3.23,4.53,4.53,0,0,1,1.73-2.82c.69-.52,1.22-.61,1.24-.56s-.44.29-1,.83a4.59,4.59,0,0,0-1,5.6C165.23,408.85,165.6,409.21,165.54,409.27Z" style="fill:#6f4439"></path><path d="M169,394.5s-.26-.12-.44-.5a2.45,2.45,0,0,1,.82-2.93c.36-.23.63-.25.65-.2s-.81.58-1.09,1.66A4.7,4.7,0,0,0,169,394.5Z" style="fill:#6f4439"></path><path d="M182.86,414.75a17.53,17.53,0,0,1-4.07.17,16.8,16.8,0,0,1-4.07-.32,16.57,16.57,0,0,1,4.07-.18A16.49,16.49,0,0,1,182.86,414.75Z" style="fill:#6f4439"></path><path d="M187.28,426.9a54.85,54.85,0,0,1-7.37-1.31,58.16,58.16,0,0,1-7.27-1.8A54.85,54.85,0,0,1,180,425.1,57.59,57.59,0,0,1,187.28,426.9Z" style="fill:#6f4439"></path><path d="M114.63,338.2a2.76,2.76,0,0,1,.16-.62c.11-.41.35-1,.54-1.76a44.28,44.28,0,0,0,1.35-6.61,56.3,56.3,0,0,0,.43-10,46.86,46.86,0,0,0-2.06-12,33.33,33.33,0,0,0-5.84-10.65,30.32,30.32,0,0,0-7.47-6.55,32,32,0,0,0-6.07-2.91c-.74-.3-1.35-.44-1.74-.58a3.79,3.79,0,0,1-.61-.23,2.89,2.89,0,0,1,.63.13c.41.11,1,.23,1.78.5a29.38,29.38,0,0,1,6.19,2.78,30.06,30.06,0,0,1,7.64,6.56,33.3,33.3,0,0,1,6,10.79,45.94,45.94,0,0,1,2,12.16,53.51,53.51,0,0,1-.54,10.06,40.62,40.62,0,0,1-1.51,6.62c-.23.77-.49,1.33-.63,1.73A4.35,4.35,0,0,1,114.63,338.2Z" style="fill:#263238"></path><path d="M253,329a5.26,5.26,0,0,1,0,.64c0,.47,0,1.08-.07,1.84-.1,1.65-.22,3.93-.38,6.73-.37,5.74-.87,13.56-1.43,22.21s-1.17,16.46-1.58,22.2l-.53,6.72c-.07.75-.13,1.36-.17,1.83a5.62,5.62,0,0,1-.09.63,2.84,2.84,0,0,1,0-.64c0-.47,0-1.08.08-1.83.09-1.65.22-3.94.37-6.74.37-5.73.87-13.56,1.43-22.2s1.17-16.47,1.58-22.2l.53-6.72c.07-.76.13-1.36.17-1.83A3,3,0,0,1,253,329Z" style="fill:#263238"></path><path d="M194.63,319.05a1.63,1.63,0,0,1-.33-.27l-.91-.84-3.4-3.23-5.23-5.08c-2-2-4.28-4.2-6.63-6.77l.37-.09c-1.11,4.8-2.36,10.22-3.69,16l-.14.61-.31-.54c-1.4-2.4-2.83-4.91-4.27-7.48-6.49-11.61-12.08-22.27-16.27-29.91l-5-9L147.49,270l-.35-.64c-.07-.15-.11-.22-.1-.23a1.18,1.18,0,0,1,.15.2l.38.62,1.44,2.41c1.24,2.1,3,5.16,5.12,9,4.27,7.6,9.91,18.23,16.39,29.84,1.44,2.57,2.87,5.07,4.26,7.47l-.45.07c1.36-5.78,2.63-11.19,3.75-16l.1-.4.27.31c2.31,2.56,4.58,4.8,6.55,6.81l5.16,5.15,3.32,3.31.86.88A2.33,2.33,0,0,1,194.63,319.05Z" style="fill:#263238"></path><path d="M196.52,317.8s.26-.38.76-1.06l2.16-2.94c1.84-2.55,4.41-6.19,7.39-10.54L207,303l.19.22a25.51,25.51,0,0,0,4.47,4c1.71,1.22,3.6,2.35,5.46,3.65l-.38.15.08-.35c2-8.28,3.78-15.77,4.59-21.28.42-2.75.68-5,.83-6.54.07-.74.13-1.33.17-1.79a2.82,2.82,0,0,1,.1-.62,3.37,3.37,0,0,1,0,.63c0,.41,0,1-.08,1.79-.09,1.56-.29,3.81-.67,6.58-.72,5.55-2.46,13.08-4.46,21.34a3.59,3.59,0,0,1-.08.35l-.08.36-.3-.21c-1.85-1.29-3.74-2.43-5.47-3.67a25.87,25.87,0,0,1-4.52-4.07l.35,0c-3,4.33-5.64,7.93-7.54,10.44-.95,1.25-1.72,2.22-2.26,2.87-.27.33-.49.57-.64.74S196.53,317.81,196.52,317.8Z" style="fill:#263238"></path><path d="M193.59,391.37a3.56,3.56,0,0,1,0-.74c0-.53,0-1.23,0-2.11,0-1.88.1-4.51.16-7.74.13-6.59.29-15.61.48-25.57s.19-19,.26-25.57c0-3.23.05-5.86.06-7.75,0-.87,0-1.57,0-2.1a3.24,3.24,0,0,1,0-.74,6,6,0,0,1,.05.74c0,.52,0,1.23.06,2.1,0,1.89,0,4.52.09,7.75,0,6.55,0,15.59-.11,25.58s-.39,19-.63,25.57c-.13,3.23-.24,5.86-.31,7.74l-.12,2.11A5.26,5.26,0,0,1,193.59,391.37Z" style="fill:#263238"></path><path d="M135.52,433.93a5.86,5.86,0,0,1-.05-.72c0-.51,0-1.2-.07-2.07-.05-1.85-.11-4.46-.18-7.7-.11-6.58-.26-15.71-.43-26.08l.21.24-7.46-1.24-30.77-5.22-9.32-1.64L84.92,389l-.66-.14-.22-.06a.59.59,0,0,1,.23,0l.67.09,2.54.38,9.34,1.48,30.79,5.08,7.46,1.25.21,0v.21c.11,10.37.2,19.49.26,26.08,0,3.24,0,5.85,0,7.7,0,.87,0,1.56,0,2.07A3.68,3.68,0,0,1,135.52,433.93Z" style="fill:#263238"></path><path d="M85.77,389.26c0,.1-1.67.21-4.3.84A33.52,33.52,0,0,0,77,391.52a38.47,38.47,0,0,0-5.18,2.59,38.06,38.06,0,0,0-4.66,3.44,33.43,33.43,0,0,0-3.32,3.38c-1.75,2.06-2.62,3.51-2.7,3.45a5.38,5.38,0,0,1,.56-1,11.81,11.81,0,0,1,.76-1.16c.32-.44.66-1,1.11-1.48a30.79,30.79,0,0,1,3.28-3.49,34.16,34.16,0,0,1,4.71-3.52,33.2,33.2,0,0,1,5.27-2.59,31.37,31.37,0,0,1,4.61-1.35c.66-.16,1.28-.23,1.81-.31a12.1,12.1,0,0,1,1.39-.15A5.88,5.88,0,0,1,85.77,389.26Z" style="fill:#263238"></path><path d="M111.74,347.14a1.61,1.61,0,0,1-.22.46l-.72,1.25c-.68,1.14-1.59,2.68-2.71,4.55-2.31,3.84-5.54,9.12-9.12,14.93s-6.86,11.07-9.25,14.86l-2.85,4.47-.79,1.2a2.22,2.22,0,0,1-.31.4s.06-.16.22-.45l.72-1.26c.68-1.13,1.6-2.67,2.71-4.55,2.31-3.83,5.54-9.11,9.12-14.93s6.86-11.06,9.25-14.85l2.85-4.47.79-1.2A2.67,2.67,0,0,1,111.74,347.14Z" style="fill:#263238"></path><g style="opacity:0.30000000000000004"><path d="M95.58,385.59c10.66-9.07,17.13-24.78,16-38.72L95.07,374.51Z"></path></g><g style="opacity:0.30000000000000004"><polygon points="153.46 280.44 173.49 325.75 180.69 312.24 191.68 316.19 178.29 302.72 174.57 318.71 153.46 280.44"></polygon></g><g style="opacity:0.30000000000000004"><path d="M280,383.45c8.55-4.52,16.59-8,26.22-7.13a13.93,13.93,0,0,1,3.87.77,3.83,3.83,0,0,1,1.55,2.79,105.05,105.05,0,0,0-30.79,3.43"></path></g><g style="opacity:0.30000000000000004"><path d="M253.38,323.39c0,.74-2.51,38.07-2.56,38.81C257.14,349.88,259.19,336,253.38,323.39Z"></path></g><path d="M197.84,140.31a10.64,10.64,0,0,1,11.74-3.71,14.56,14.56,0,0,1,17.68,3A13,13,0,0,1,245,153a10.82,10.82,0,0,1,6.64,19.43,10.4,10.4,0,0,1-7.34,19.35L198,152.62A10.64,10.64,0,0,1,197.84,140.31Z" style="fill:#263238"></path><path d="M208.12,146.76l-2.26-.34c-24.58-2.24-40.21,17.39-41.77,42L156.4,261l39.53,52.7L208.67,295l4-21.87s24-.12,27.77-23.5c1.84-11.29,3.73-34.84,5.2-56.18A44.11,44.11,0,0,0,208.12,146.76Z" style="fill:#ae7461"></path><path d="M212.58,273.13s-14.85-1.38-29.1-13.62c0,0,4.63,18,28.09,19.41Z" style="fill:#6f4439"></path><path d="M234,217a3.38,3.38,0,0,1-3.73,2.89,3.24,3.24,0,0,1-3-3.54A3.39,3.39,0,0,1,231,213.5,3.24,3.24,0,0,1,234,217Z" style="fill:#263238"></path><path d="M238.92,205.35c-.48.37-2.73-1.88-6.33-2.41s-6.51.87-6.84.37c-.16-.22.38-.95,1.66-1.61a9.21,9.21,0,0,1,5.55-.84,9,9,0,0,1,5,2.46C238.9,204.34,239.15,205.18,238.92,205.35Z" style="fill:#263238"></path><path d="M203.52,213a3.38,3.38,0,0,1-3.73,2.89,3.23,3.23,0,0,1-3-3.53,3.39,3.39,0,0,1,3.73-2.9A3.23,3.23,0,0,1,203.52,213Z" style="fill:#263238"></path><path d="M204.56,199.68c-.48.37-2.73-1.88-6.33-2.41s-6.51.87-6.83.37c-.16-.22.37-.95,1.65-1.61a9.21,9.21,0,0,1,5.55-.84,9,9,0,0,1,5,2.46C204.54,198.67,204.8,199.51,204.56,199.68Z" style="fill:#263238"></path><path d="M212.41,228.13c0-.21,2.31-.26,6-.18.93.05,1.83,0,2.08-.61a4.76,4.76,0,0,0-.21-2.82c-.53-2.35-1.08-4.82-1.67-7.4-2.27-10.53-3.78-19.13-3.35-19.22s2.62,8.37,4.89,18.9c.54,2.6,1.06,5.07,1.55,7.43.19,1.1.61,2.38-.07,3.68a2.33,2.33,0,0,1-1.71,1.12,6.38,6.38,0,0,1-1.59,0C214.66,228.66,212.4,228.34,212.41,228.13Z" style="fill:#263238"></path><path d="M206.15,189.4c-.56.87-3.54-.43-7.31-.93s-7-.19-7.28-1.18c-.1-.47.65-1.23,2.09-1.83a11.43,11.43,0,0,1,5.81-.63,10.88,10.88,0,0,1,5.31,2.25C205.94,188.05,206.41,189,206.15,189.4Z" style="fill:#263238"></path><path d="M239.58,195.36c-.69.78-3.13-.25-6.14-.49s-5.59.18-6.12-.72c-.23-.43.23-1.23,1.39-1.94a8.92,8.92,0,0,1,9.89,1C239.6,194.1,239.89,195,239.58,195.36Z" style="fill:#263238"></path><path d="M245,182.34s-4-15.6-10.53-20.08c-7.94-5.43-13,3.41-20.86-.09s-15.39-8.71-24.67-3.65c-10.17,5.53-6.62,11-8.74,21.32-8.61,41.79-18.1,52.55-17.31,32.37.09-2.21-5.68-4.84-5.2-14.16.63-12.09,2.35-26.62,6.27-34.67,3.31-6.79,8.11-11.1,16.21-15.43,12.79-6.84,28.61-4.66,39.17-2S248.68,164.12,245,182.34Z" style="fill:#263238"></path><path d="M164.43,211.8a6.43,6.43,0,0,0-5.94-7.16c-4.43-.24-9.66,1.51-10.73,10.58-1.89,16.09,14.65,14.67,14.73,14.21S163.7,218.54,164.43,211.8Z" style="fill:#ae7461"></path><path d="M159.7,223c-.06-.06-.3.16-.8.32a2.82,2.82,0,0,1-2.1-.2c-1.63-.82-2.74-3.69-2.48-6.6a9.35,9.35,0,0,1,1.26-3.92,3.25,3.25,0,0,1,2.36-1.9,1.42,1.42,0,0,1,1.56,1c.17.48,0,.79.11.82s.38-.23.33-.91a1.86,1.86,0,0,0-.52-1.08,2.15,2.15,0,0,0-1.5-.59A4,4,0,0,0,154.7,212a9.6,9.6,0,0,0-1.5,4.37c-.28,3.25,1,6.48,3.27,7.43a3,3,0,0,0,2.61-.13C159.63,223.35,159.75,223,159.7,223Z" style="fill:#6f4439"></path><path d="M169.4,180.83c1.87,1.73,3.85,3.52,6.32,4.15s5.54-.39,6.34-2.81c.36-1.08.28-2.42,1.14-3.17,1-.9,2.59-.33,3.92,0a10.32,10.32,0,0,0,11.7-5.73c.92,1.95,3.71,2.29,5.68,1.4s3.41-2.61,5.06-4,3.83-2.54,5.9-1.92c1.16.35,2.17,1.22,3.37,1.29,2.13.13,3.53-2.18,4.16-4.22s1.25-4.44,3.2-5.3,3.85.12,5.75.7,4.45.5,5.23-1.32a3.83,3.83,0,0,0-.28-3,10.49,10.49,0,0,0-11.65-5.77,14.21,14.21,0,0,0-25.41-6.6,14.42,14.42,0,0,0-23.58,1.78,10.45,10.45,0,0,0-13.92,13.29c-3.12,1.21-6,3.7-6.57,7s2.17,7.1,5.5,6.7a5.79,5.79,0,0,0,9.05,7.2" style="fill:#263238"></path><path d="M202.65,232.52a1.46,1.46,0,0,0-1-.36,1.27,1.27,0,0,0-.74.65,8.15,8.15,0,0,0-.42,7.85s0,.05,0,.08c1.82,3.56,6.93,3.67,9.21.38l1.71-2.47Z" style="fill:#6f4439"></path><path d="M208.62,242.29c.12.07-1.34,1.46-4.3,1.32a4.7,4.7,0,0,1-2.28-.79,5.31,5.31,0,0,1-1.94-2,9.75,9.75,0,0,1-.59-6.1,10.46,10.46,0,0,1,.4-1.58,2.34,2.34,0,0,1,1.22-1.45,1.92,1.92,0,0,1,1.83.41l1.12.83,3.84,2.92c2.17,1.68,3.46,2.79,3.38,2.91s-1.54-.77-3.82-2.3l-4-2.73c-.72-.47-1.63-1.31-2-1.06s-.78,1.29-1,2.25a9.21,9.21,0,0,0,.42,5.45,4.51,4.51,0,0,0,1.56,1.71,4,4,0,0,0,1.88.77A9.54,9.54,0,0,0,208.62,242.29Z" style="fill:#263238"></path><path d="M160.09,173.08c-.05-.05-.5,1.3.54,3.23a5.18,5.18,0,0,0,2.92,2.4,5.61,5.61,0,0,0,4.76-.65l-.66-.2a15.9,15.9,0,0,0,2.6,4.47,9.18,9.18,0,0,0,2.64,2.26,7.2,7.2,0,0,0,8.2-1.18,9.27,9.27,0,0,0,1.79-3.13,3.23,3.23,0,0,0,.32-1.28c-.07,0-.27.39-.65,1.13a10.57,10.57,0,0,1-1.94,2.82c-1.86,2.07-7,2.5-9.65-1.22a16.31,16.31,0,0,1-2.49-4.2l-.21-.51-.45.31a4.91,4.91,0,0,1-4,.65,4.76,4.76,0,0,1-2.67-2A7.91,7.91,0,0,1,160.09,173.08Z" style="fill:#455a64"></path><path d="M195.84,141.06c0,.05.4.17,1.07.58a5.6,5.6,0,0,1,2.17,2.49l.14.33.27-.26a20.12,20.12,0,0,1,8.68-5.11,15.78,15.78,0,0,1,6.51-.43,13.13,13.13,0,0,1,6.49,3,13.38,13.38,0,0,1,3.46,4.44,10.9,10.9,0,0,1,1,5.09l0,.51.51-.06a9.09,9.09,0,0,1,6.53,1.81,8.84,8.84,0,0,1,3.06,4.45,12,12,0,0,1,.28,4.89,3.12,3.12,0,0,0,.39-1.28,8.82,8.82,0,0,0-.17-3.75,9.22,9.22,0,0,0-3.11-4.88,9.71,9.71,0,0,0-7.08-2.09l.48.45a11.7,11.7,0,0,0-1.07-5.53,14.08,14.08,0,0,0-3.69-4.76,13.78,13.78,0,0,0-7-3.13,16,16,0,0,0-6.86.54,19.66,19.66,0,0,0-8.83,5.54l.41.07a5.41,5.41,0,0,0-2.5-2.51A2.26,2.26,0,0,0,195.84,141.06Z" style="fill:#455a64"></path></g></svg>