<svg xmlns:xlink="http://www.w3.org/1999/xlink" xmlns="http://www.w3.org/2000/svg" viewBox="0 0 369.9130434782609 65.74654921294164" preserveAspectRatio="xMidYMid meet" class="css-116ckqy" id="cfagbghd" width="369.9130434782609"  height="65.74654921294164" ><defs id="SvgjsDefs3688"></defs><g id="SvgjsG3689" featurekey="symbolFeature-0" transform="matrix(1.2993389564342994,0,0,1.2993389564342994,0,-0.026012156842678845)" fill="#111111">    <title xmlns="http://www.w3.org/2000/svg">Asset 63LETTERS5</title>    <g xmlns="http://www.w3.org/2000/svg" id="Page-1" stroke="none" stroke-width="1" fill="none" fill-rule="evenodd">        <g id="Artboard" transform="translate(-6908.000000, -645.000000)" fill="#111111" fill-rule="nonzero">            <g id="Asset-63LETTERS5" transform="translate(6908.000000, 645.020000)" fill="#111111">                <path d="M48.3990995,35.73 L42.2890995,26.38 C42.0090995,25.94 41.5290995,25.68 41.0090995,25.68 L24.9390995,25.68 C23.7390995,25.68 23.0090995,27.01 23.6590995,28.02 L24.1190995,28.73 L24.1190995,28.73 L31.8790995,40.89 C32.6190995,42.05 32.4090995,43.61 31.3290995,44.46 C30.8390995,44.84 30.2690995,45.02 29.7090995,45.02 C28.8390995,45.02 27.9890995,44.59 27.4890995,43.8 L18.3190995,29.44 C18.0390995,29 17.5590995,28.74 17.0390995,28.74 L1.68909948,28.74 C0.359099478,28.74 -0.450900522,30.21 0.269099478,31.34 L11.4290995,48.82 C11.7390995,49.31 12.2790995,49.6 12.8490995,49.6 L34.4290995,49.6 C35.4690995,49.6 36.4690995,49.25 37.2690995,48.59 C37.5190995,48.39 37.7790995,48.15 38.0590995,47.86 L48.1890995,37.65 C48.6990995,37.14 48.7790995,36.35 48.3790995,35.74 L48.3990995,35.73 Z" id="Path" fill="#111111"></path>                <path d="M17.5690995,23.91 L33.6290995,23.91 C34.8290995,23.91 35.5590995,22.58 34.9090995,21.57 L34.4490995,20.86 L34.4490995,20.86 L26.6890995,8.7 C25.9490995,7.54 26.1590995,5.98 27.2390995,5.13 C27.7290995,4.75 28.2990995,4.57 28.8590995,4.57 C29.7290995,4.57 30.5790995,5 31.0790995,5.79 L40.2490995,20.15 C40.5290995,20.59 41.0090995,20.85 41.5290995,20.85 L56.8690995,20.85 C58.1990995,20.85 59.0090995,19.38 58.2890995,18.25 L47.1490995,0.78 C46.8390995,0.29 46.2990995,0 45.7290995,0 L24.1390995,0 C23.0990995,0 22.0990995,0.35 21.2990995,1.01 C21.0490995,1.21 20.7890995,1.45 20.5090995,1.74 L10.3690995,11.95 C9.85909948,12.46 9.77909948,13.25 10.1790995,13.86 L16.2890995,23.21 C16.5690995,23.65 17.0490995,23.91 17.5690995,23.91 Z" id="Path" fill="#111111"></path>            </g>        </g>    </g></g><g id="SvgjsG3690" featurekey="nameFeature-0" transform="matrix(1.3372048836909365,0,0,1.3372048836909365,94.34186593147066,-1.9766931670289445)" fill="#111111"><path d="M13.24 40.24 c-0.92 0 -1.88 -0.12 -2.88 -0.32 c-2.96 -0.6 -5.84 -2.04 -8.36 -4.24 l-0.76 -0.68 l3.52 -4 l0.76 0.68 c1.84 1.6 3.88 2.68 5.88 3.08 l0.04 0 c0.6 0.12 1.2 0.2 1.8 0.2 c1 0 1.92 -0.2 2.68 -0.56 c0.96 -0.4 2.08 -1.28 2.08 -2.92 c0 -0.88 -0.44 -1.56 -1.36 -2.12 c-1.12 -0.68 -2.64 -1.04 -3.72 -1.24 c-0.48 -0.08 -4.56 -0.92 -6.44 -1.96 c-1.24 -0.76 -2.2 -1.72 -2.88 -2.84 c-0.68 -1.16 -1 -2.44 -1 -3.84 c0 -1.52 0.48 -3.04 1.4 -4.44 c0.88 -1.16 2.08 -2.12 3.52 -2.8 s3.04 -1.04 4.76 -1.04 c0.68 0 1.4 0.08 2.12 0.16 c2.64 0.48 5.24 1.68 7.52 3.6 l0.76 0.64 l-3.4 4.12 l-0.76 -0.64 c-2.6 -2.12 -4.84 -2.6 -6.28 -2.6 c-0.92 0 -1.76 0.2 -2.48 0.52 c-1.12 0.52 -1.84 1.48 -1.84 2.44 c0 0.88 0.32 1.44 1.08 1.96 s1.92 0.92 3.76 1.32 c0.24 0.04 0.56 0.12 0.88 0.2 c1.68 0.32 3.92 0.8 5.48 1.72 c1.36 0.72 2.4 1.72 3.12 2.88 s1.08 2.52 1.08 3.96 c0 1.8 -0.48 3.4 -1.44 4.76 c-0.84 1.16 -2.08 2.16 -3.72 2.96 c-1.4 0.72 -2.96 1.04 -4.92 1.04 z M33.32 40 l-5.32 0 l0 -28.48 l10.2 0 c1.96 0 3.8 0.76 5.2 2.16 c1.36 1.4 2.16 3.2 2.16 5.16 c0 4.04 -3.32 7.28 -7.36 7.28 l-4.88 0 l0 13.88 z M33.32 20.88 l4.88 0 c1.12 0 2 -0.92 2 -2.04 s-0.92 -2.08 -2 -2.08 l-4.88 0 l0 4.12 z M69.8 40 l-19.88 0 l0 -28.48 l5.36 0 l0 23.24 l14.52 0 l0 5.24 z M80.6 40 l-5.36 0 l0 -28.48 l5.36 0 l0 28.48 z M99.24 40 l-5.36 0 l0 -23.2 l-7 0 l0 -5.28 l19.36 0 l0 5.28 l-7 0 l0 23.2 z M128.68 40 l-18.4 0 l0 -28.48 l18.76 0 l0 5.2 l-13.4 0 l0 4.2 l11.68 0 l0 5.32 l-11.68 0 l0 8.48 l13.04 0 l0 5.28 z M157.92 40 l-5.76 0 l-2.92 -7.68 l-9.44 0 l-2.96 7.68 l-5.72 0 l10.96 -28.48 l4.84 0 z M141.88 27.04 l5.28 0 l-2.64 -6.92 z M171.96 40.24 c-0.92 0 -1.88 -0.12 -2.88 -0.32 c-2.96 -0.6 -5.84 -2.04 -8.36 -4.24 l-0.76 -0.68 l3.52 -4 l0.76 0.68 c1.84 1.6 3.88 2.68 5.88 3.08 l0.04 0 c0.6 0.12 1.2 0.2 1.8 0.2 c1 0 1.92 -0.2 2.68 -0.56 c0.96 -0.4 2.08 -1.28 2.08 -2.92 c0 -0.88 -0.44 -1.56 -1.36 -2.12 c-1.12 -0.68 -2.64 -1.04 -3.72 -1.24 c-0.48 -0.08 -4.56 -0.92 -6.44 -1.96 c-1.24 -0.76 -2.2 -1.72 -2.88 -2.84 c-0.68 -1.16 -1 -2.44 -1 -3.84 c0 -1.52 0.48 -3.04 1.4 -4.44 c0.88 -1.16 2.08 -2.12 3.52 -2.8 s3.04 -1.04 4.76 -1.04 c0.68 0 1.4 0.08 2.12 0.16 c2.64 0.48 5.24 1.68 7.52 3.6 l0.76 0.64 l-3.4 4.12 l-0.76 -0.64 c-2.6 -2.12 -4.84 -2.6 -6.28 -2.6 c-0.92 0 -1.76 0.2 -2.48 0.52 c-1.12 0.52 -1.84 1.48 -1.84 2.44 c0 0.88 0.32 1.44 1.08 1.96 s1.92 0.92 3.76 1.32 c0.24 0.04 0.56 0.12 0.88 0.2 c1.68 0.32 3.92 0.8 5.48 1.72 c1.36 0.72 2.4 1.72 3.12 2.88 s1.08 2.52 1.08 3.96 c0 1.8 -0.48 3.4 -1.44 4.76 c-0.84 1.16 -2.08 2.16 -3.72 2.96 c-1.4 0.72 -2.96 1.04 -4.92 1.04 z M205.72 40 l-18.4 0 l0 -28.48 l18.76 0 l0 5.2 l-13.4 0 l0 4.2 l11.68 0 l0 5.32 l-11.68 0 l0 8.48 l13.04 0 l0 5.28 z" fill="#111111"></path></g></svg>