<svg xmlns="http://www.w3.org/2000/svg" viewBox="0 0 500 500"><g id="freepik--background-complete--inject-5"><path d="M77.07,445.61c.87-3.44-1.4-6.88-3.94-9.36s-5.58-4.69-6.91-8c-2.16-5.33.66-12.27-3-16.7-2.15-2.61-6-3.47-7.9-6.26a14.4,14.4,0,0,1-1.74-5A50.74,50.74,0,0,0,40.8,376.73a44.19,44.19,0,0,0,5.09,22.77c1.49,2.8,3.31,5.52,3.82,8.64.82,5.08-2,10.32-.71,15.3,1.46,5.7,7.89,9.48,8.23,15.35.28,5-4,9.34-3.67,14.3A13.42,13.42,0,0,0,55.8,459c3.88,6.36,9.54,10.72,18.08,10.53l10.47.31Z" style="fill:#f5f5f5"></path><path d="M86.47,470.06a8.22,8.22,0,0,0,2.88-.08,17.89,17.89,0,0,0,3.4-.87,14.57,14.57,0,0,0,4.19-2.33,6,6,0,0,0,1.71-2.31,10.67,10.67,0,0,0,.47-3.13,30.65,30.65,0,0,1,.23-3.39,9.37,9.37,0,0,1,1.26-3.37c1.22-2.18,3.26-4.24,3.9-7.19s.17-6-.33-9.17-1-6.55.19-9.83,3.38-6.25,4.5-9.95.57-7.73.79-11.69a15.53,15.53,0,0,1,1.33-5.82c.84-1.86,2-3.61,2.91-5.56,1.83-4,2.13-8.43,2.62-12.81q.35-3.31.71-6.69a32.93,32.93,0,0,1,1.13-6.7,58.23,58.23,0,0,1,2.46-6.49,21.56,21.56,0,0,0,1.2-3.39,34.35,34.35,0,0,0,.32-3.6,42.94,42.94,0,0,0-.32-7.25c-.3-2.41-.75-4.8-1-7.22,0-.15,0-.29,0-.42l-.06-.48-.43.22a16.2,16.2,0,0,0-5.61,4.78,26,26,0,0,0-3.42,6.4c-1.72,4.51-2.33,9.22-3.18,13.73s-2,8.93-4.23,12.68c-1.14,1.87-2.51,3.58-3.72,5.4a14.82,14.82,0,0,0-2.56,6c-.6,4.43,1.87,8.31,1.38,12.23a13.63,13.63,0,0,1-1.88,5.44c-.94,1.68-2,3.24-3.1,4.8a30.5,30.5,0,0,0-2.78,4.85,15.28,15.28,0,0,0-1.26,5.25c-.23,3.53.29,6.88.05,10a23.14,23.14,0,0,1-2.54,8.62c-1.25,2.58-2.64,4.91-3.81,7.18a35.7,35.7,0,0,0-1.57,3.34,16.93,16.93,0,0,0-.9,3.32,21,21,0,0,0,0,6,15.08,15.08,0,0,0,3,7.6,6.37,6.37,0,0,0,.85.91,4,4,0,0,0,.69.58c.39.29.6.42.6.42a13.71,13.71,0,0,1-2-2,15.2,15.2,0,0,1-2.88-7.55,20.58,20.58,0,0,1,.1-5.89,15.29,15.29,0,0,1,.91-3.24,35,35,0,0,1,1.57-3.3c1.18-2.24,2.59-4.57,3.87-7.17a23.34,23.34,0,0,0,2.62-8.77c.26-3.23-.25-6.58,0-10A14.89,14.89,0,0,1,91.85,417a30.89,30.89,0,0,1,2.75-4.75c1.05-1.55,2.17-3.11,3.14-4.83a14.16,14.16,0,0,0,2-5.66c.48-4.18-2-8.08-1.36-12.2a14.12,14.12,0,0,1,2.48-5.72c1.18-1.79,2.57-3.5,3.74-5.42,2.35-3.86,3.48-8.37,4.32-12.89s1.47-9.2,3.16-13.61a25.12,25.12,0,0,1,3.34-6.23,15.35,15.35,0,0,1,5.37-4.59l-.48-.27c0,.14,0,.28,0,.43.27,2.44.72,4.84,1,7.22a41.74,41.74,0,0,1,.32,7.14c-.06,1.16-.13,2.39-.3,3.49a21.64,21.64,0,0,1-1.16,3.27,60.5,60.5,0,0,0-2.49,6.56,33.77,33.77,0,0,0-1.14,6.81c-.23,2.26-.47,4.49-.7,6.7-.48,4.4-.78,8.8-2.55,12.62-.87,1.9-2,3.66-2.89,5.57a16.09,16.09,0,0,0-1.37,6c-.21,4,.34,8-.73,11.57s-3.33,6.55-4.47,9.93-.68,6.95-.16,10.08,1.05,6.21.39,9-2.57,4.86-3.82,7.09A9.54,9.54,0,0,0,99,457.9a29.47,29.47,0,0,0-.21,3.43,10.54,10.54,0,0,1-.42,3,5.58,5.58,0,0,1-1.62,2.21,14.49,14.49,0,0,1-4.08,2.34,18.88,18.88,0,0,1-3.35.93,12.94,12.94,0,0,1-2.13.21Z" style="fill:#e0e0e0"></path><path d="M118.84,346.58a.9.9,0,0,0-.1.31c-.06.25-.13.56-.23.95-.2.82-.44,2.07-.82,3.62s-1.34,3.32-2.14,5.48-1.68,4.64-2.45,7.44-1.47,5.9-2.19,9.22a39.21,39.21,0,0,1-3.29,10.24c-.85,1.71-1.81,3.44-2.56,5.32a24.79,24.79,0,0,0-1.48,6,121.39,121.39,0,0,1-2.18,12.67l-5.78,24.22c-1.82,7.42-3.47,14.11-4.85,19.75S88.33,462,87.56,465.15q-.54,2.31-.84,3.63c-.08.39-.15.7-.2,1a1.68,1.68,0,0,0,0,.33,1.19,1.19,0,0,0,.11-.31l.27-.94c.23-.87.56-2.07,1-3.6.82-3.19,2-7.71,3.42-13.28s3.12-12.3,5-19.71S100,416.59,102.06,408a122.28,122.28,0,0,0,2.18-12.72,23.88,23.88,0,0,1,1.41-5.87c.73-1.84,1.67-3.56,2.52-5.28a38.92,38.92,0,0,0,3.28-10.4c.7-3.33,1.36-6.43,2.11-9.21s1.54-5.28,2.34-7.43,1.67-3.94,2-5.55.55-2.83.71-3.67c.06-.38.11-.7.16-.95A1.38,1.38,0,0,0,118.84,346.58Z" style="fill:#e0e0e0"></path><path d="M88.32,470.08c6.81-4.1,8.7-16.45,5.81-23.85s-7.92-14.17-8.74-22.08c-.63-6.08,1.33-12.33-.12-18.27-2-8-9.83-14.19-9.78-22.44,0-4.63,2.63-9,2.39-13.62-.29-5.67-4.67-10.15-7.39-15.13C66.32,347.07,66,338,64.54,329.46s-4.78-17.74-12.41-21.91c-1.08,7.29-3,12.29-2.31,22.15.24,3.54,4.39,10.3,5,18.06.36,4.63.62,9.28.93,13.92S56.36,370.8,58,375c1.26,3.23,3.27,6.16,4.21,9.5,1.77,6.28-.47,13.11,1,19.48,1.22,5.39,5,10,5.78,15.49,1.12,7.69-3.82,15.71-1.23,23,1.29,3.63,4.3,6.54,5.17,10.29.68,2.92,0,6,.59,8.94,1,4.72,10,8.33,14.83,8" style="fill:#e0e0e0"></path><path d="M54.06,314.77a2.11,2.11,0,0,0,0,.41c0,.31.09.7.16,1.2.16,1.05.35,2.59.71,4.58s1.44,4.26,2.29,7,1.77,5.85,2.56,9.35,1.47,7.38,2.18,11.56,1.48,8.72,3.58,13.06c1,2.18,2.06,4.36,2.88,6.68A30.2,30.2,0,0,1,69.93,376,149.46,149.46,0,0,0,72,391.88c2.15,10.78,4.21,21,6.07,30.39S81.84,440,83.33,447s2.73,12.69,3.58,16.67l1,4.53c.12.48.21.87.28,1.17a1.88,1.88,0,0,0,.12.39,2.53,2.53,0,0,0,0-.41c-.06-.3-.13-.69-.22-1.18-.21-1.09-.5-2.61-.88-4.55-.8-4-2-9.69-3.37-16.72s-3.18-15.45-5.09-24.77-3.88-19.6-6-30.37a151.53,151.53,0,0,1-2.1-15.86,30.44,30.44,0,0,0-1.54-7.53c-.84-2.38-1.94-4.57-2.92-6.73-2.08-4.27-2.83-8.74-3.59-12.9s-1.44-8.06-2.27-11.57a96.59,96.59,0,0,0-2.67-9.35c-.88-2.73-2-5-2.38-6.92s-.63-3.52-.84-4.56c-.09-.49-.17-.88-.22-1.18A2.51,2.51,0,0,0,54.06,314.77Z" style="fill:#ebebeb"></path><path d="M210.31,55.23c5.84-6.81,21-2.53,31.42,3,0,0,7.16,3.38,9.82,5.13l.09,0,24.32-3a9.9,9.9,0,0,1,5.76,1l2,1a1.34,1.34,0,0,1-.08,2.42l-17.91,7.65,0,.22,17.68,11.62.27.17a15.71,15.71,0,0,0,11.25,2.24l9.47-1.7a2.67,2.67,0,0,1,1.43.12,2.4,2.4,0,0,1,.64,4.06l-11,9.16a5.78,5.78,0,0,1-6.14.82l-5.14-2.36-26-12.37,3,14.79a1,1,0,0,1-1,1.14l-1.22,0a4.84,4.84,0,0,1-4-2.44l-10.47-20L213.82,63.31C209.73,61.43,208.27,57.92,210.31,55.23Z" style="fill:#e0e0e0"></path><path d="M40,120.71,117.11,119S110,106.71,90.2,109c-18.92,2.15-20.06-5.66-29.73-6.4S42.94,109.39,40,120.71Z" style="fill:#f5f5f5"></path><path d="M400.58,162.42h72.65s-6.42-11.7-25.12-10c-17.87,1.62-18.77-5.76-27.86-6.66S403.6,151.82,400.58,162.42Z" style="fill:#f5f5f5"></path><path d="M83.91,82.44h55.42s-4.9-8.92-19.17-7.62c-13.62,1.24-14.31-4.39-21.24-5.09S86.22,74.35,83.91,82.44Z" style="fill:#f5f5f5"></path><path d="M400.65,199.08H436.9s-3.2-5.84-12.53-5c-8.92.81-9.37-2.87-13.9-3.32S402.16,193.79,400.65,199.08Z" style="fill:#f5f5f5"></path><path d="M382.52,98.72h36.26s-3.21-5.84-12.54-5c-8.92.81-9.37-2.87-13.9-3.32S384,93.43,382.52,98.72Z" style="fill:#fafafa"></path></g><g id="freepik--Floor--inject-5"><path d="M474.43,470.14c0,.14-100.93.26-225.42.26s-225.44-.12-225.44-.26,100.91-.26,225.44-.26S474.43,470,474.43,470.14Z" style="fill:#263238"></path></g><g id="freepik--character-2--inject-5"><path d="M405.35,293.8h0a2.83,2.83,0,0,0-2.83-2.54l-21.35,0a2.82,2.82,0,0,0-2.76,3.37h0a2.8,2.8,0,0,0,2.83,2.27h21.29A2.84,2.84,0,0,0,405.35,293.8Z" style="fill:#263238"></path><path d="M451.92,463.14a6.81,6.81,0,1,0,7.72-5.75A6.81,6.81,0,0,0,451.92,463.14Z" style="fill:#263238"></path><polygon points="457.24 464.17 453.09 455.59 455.27 454.2 459.29 463.16 457.24 464.17" style="fill:#455a64"></polygon><polygon points="418.78 358.54 392.99 291.25 388.09 293.71 413.08 360.39 418.78 358.54" style="fill:#263238"></polygon><path d="M416.67,339.19h41a2.76,2.76,0,0,1,2.76,2.76V444.58a14.62,14.62,0,0,1-14.62,14.62H428.53a14.62,14.62,0,0,1-14.62-14.62V341.95A2.76,2.76,0,0,1,416.67,339.19Z" transform="translate(990.8 608.78) rotate(158.33)" style="fill:#F3CA40"></path><path d="M436.6,461.45s-.06-.2-.2-.58l-.63-1.69-2.48-6.49-9.23-23.81c-3.93-10.05-8.59-22-13.77-35.29l-8.15-20.83c-.7-1.8-1.42-3.62-2.13-5.46a11.33,11.33,0,0,1-.8-5.7,11.06,11.06,0,0,1,18.09-7.1,11.52,11.52,0,0,1,3.29,4.72l2.14,5.47c2.84,7.22,5.58,14.18,8.18,20.82l13.89,35.24c4,10,7.17,18.11,9.41,23.74l2.58,6.45c.3.71.52,1.27.69,1.67s.25.56.25.56-.06-.2-.2-.59l-.63-1.69c-.57-1.5-1.41-3.68-2.48-6.48l-9.23-23.81-13.77-35.29c-2.59-6.64-5.32-13.61-8.15-20.83-.7-1.81-1.42-3.63-2.14-5.47a11.93,11.93,0,0,0-3.45-5,11.65,11.65,0,0,0-19.06,7.48,11.91,11.91,0,0,0,.84,6L401.6,373c2.84,7.21,5.58,14.18,8.18,20.81C415,407.05,419.71,419,423.66,429l9.41,23.75,2.59,6.44c.29.72.52,1.27.69,1.67A5.25,5.25,0,0,0,436.6,461.45Z" style="fill:#263238"></path><path d="M434.14,393.67c.08.26,5.06-1.71,11.13-4.38s10.92-5.06,10.84-5.31-5.07,1.7-11.13,4.38S434.06,393.41,434.14,393.67Z" style="fill:#263238"></path><path d="M400.44,291.25l-4.45-8.8a4.63,4.63,0,0,0-2.35-2.18l-7-2.92-18.86-25.58L366,271.36l12,12.39s7.53,15.86,13.68,15.05a11.43,11.43,0,0,0-1.24-4.09c-2-3.46.13-3.46.41-3.44H396Z" style="fill:#ffbe9d"></path><path d="M369.65,277.72c.57.85,5.23,7.17,5.23,7.17l13.21-9.61-4.8-4.69Z" style="fill:#F3CA40"></path><path d="M390.48,294.71s3.44,2,3.87,3.62v1l-4.12-.6Z" style="fill:#ffbe9d"></path><path d="M395.09,296.59a4.47,4.47,0,0,1-1.38-1.82,1.55,1.55,0,0,1,.78-1.93c.71-.24,1.44.27,2,.78a25.67,25.67,0,0,1,2,2,2.49,2.49,0,0,1,.86,2.09,1.54,1.54,0,0,1-1.4,1.09,2.34,2.34,0,0,1-1.72-.7,5,5,0,0,1-1.05-1.56" style="fill:#ffbe9d"></path><path d="M398.58,296.29a4.47,4.47,0,0,1-1.38-1.82,1.55,1.55,0,0,1,.78-1.93c.71-.24,1.44.27,2,.78a25.67,25.67,0,0,1,2,2,2.49,2.49,0,0,1,.86,2.09,1.54,1.54,0,0,1-1.4,1.09,2.35,2.35,0,0,1-1.72-.7,5,5,0,0,1-1.05-1.56" style="fill:#ffbe9d"></path><path d="M388.09,281.27c0-.12.89-.08,1.92.81A8.63,8.63,0,0,1,391.2,284a5.4,5.4,0,0,1,.68,2.74,5.86,5.86,0,0,1-1.08,2.6,6.52,6.52,0,0,0-.82,2,6.81,6.81,0,0,0-.14,2,2.67,2.67,0,0,1-.22-2.07,6.16,6.16,0,0,1,.77-2.15,5.88,5.88,0,0,0,1-2.4,5.3,5.3,0,0,0-.59-2.5,9.77,9.77,0,0,0-1-1.89,5.08,5.08,0,0,0-1.16-.86A5.22,5.22,0,0,0,388.09,281.27Z" style="fill:#eb996e"></path><polygon points="245.78 191.01 231.76 235.83 273 278.9 310.79 269.08 245.78 191.01" style="fill:#f5f5f5"></polygon><path d="M245.77,191l.32.37.95,1.12,3.68,4.38,13.71,16.35L311,268.92l.26.31-.39.1-21.3,5.54-16.49,4.28-.15,0-.1-.11L231.61,236l-.08-.09,0-.11c4.34-13.73,7.9-24.94,10.37-32.74,1.22-3.86,2.18-6.87,2.84-8.93l.74-2.32c.17-.51.25-.77.25-.77-.48,1.57-5.41,17.6-13.81,44.88l-.05-.2,41.27,43-.25-.07,16.49-4.29,21.3-5.54-.13.42L264.4,213.56l-13.66-16.5-3.68-4.47-1-1.16Z" style="fill:#263238"></path><path d="M247.06,220.57a7.19,7.19,0,0,1,10.17-2c2.58,2,3.77,5.77,6.87,6.77,2.24.72,4.71-.33,7,.08,2.71.49,4.73,3,5.51,5.6s.57,5.47.35,8.22l-13.41.18Z" style="fill:#e0e0e0"></path><polygon points="222.26 195.1 309.16 284.65 273.75 281.06 224.22 228.77 222.26 195.1" style="fill:#f5f5f5"></polygon><path d="M222.27,195.1c.08,1.31.8,12.83,2.12,33.66l0-.11c12.67,13.34,30,31.57,49.59,52.24l-.16-.08,27.17,2.74,8.24.84-.21.44c-48.32-50-84.79-87.74-86.7-89.73l87.07,89.37.5.51-.71-.07-8.25-.84-27.16-2.76h-.09l-.07-.06c-19.56-20.71-36.84-39-49.47-52.35l0,0v-.06C222.94,207.94,222.33,196.41,222.27,195.1Z" style="fill:#263238"></path><path d="M256.27,230.69c-2.68,3.09-2.29,8,0,11.41s6.07,5.47,9.89,6.94c3.09,1.19,6.9,1.94,9.46-.16" style="fill:#e0e0e0"></path><path d="M251.75,225.82c.16.75-.78,1.31-1.54,1.24s-1.46-.5-2.23-.54c-2.09-.12-3.23,2.36-4.93,3.57a4.71,4.71,0,0,1-6.44-1.25c-1.14-1.77-1.11-4.39-2.91-5.48a4.81,4.81,0,0,0-3.41-.31,10.42,10.42,0,0,1-3.46.36,2.54,2.54,0,0,1-2.29-2.24l-.63-1-1.48-24.72Z" style="fill:#e0e0e0"></path><path d="M294.1,282.84a3.37,3.37,0,0,0,4.14-2.64,3.91,3.91,0,0,0-3.23-4.29c-1.77-.23-3.6.8-5.3.27-1.94-.61-2.74-2.86-3.23-4.83s-1.18-4.22-3.06-5c-3.11-1.26-6.39,2.73-9.64,1.85-2.41-.65-3.34-3.55-5.23-5.18a5.87,5.87,0,0,0-5.62-1.1,4.59,4.59,0,0,0-3.43,3.66l14.35,15.13Z" style="fill:#e0e0e0"></path><path d="M270.34,434.18l-3.57,20.58s-22.12,3.28-23.15,7l39.66,8.36,6.88-31.84Z" style="fill:#F3CA40"></path><g style="opacity:0.6000000000000001"><path d="M279.4,455.63a1.65,1.65,0,0,1,.73,2.08,1.59,1.59,0,0,1-2.06.74,1.74,1.74,0,0,1-.76-2.21,1.65,1.65,0,0,1,2.23-.53" style="fill:#fff"></path></g><path d="M283.28,470.14,284,467l-38.36-6.86s-1.92.4-2,1.68Z" style="fill:#fff;opacity:0.6000000000000001"></path><path d="M266.17,454.42c0,.2.92.49,1.74,1.31s1.16,1.75,1.35,1.71.14-1.22-.87-2.2S266.17,454.24,266.17,454.42Z" style="fill:#263238"></path><path d="M261.65,455.27c-.08.18.69.68,1.17,1.64s.49,1.86.69,1.9.55-1-.08-2.22S261.69,455.08,261.65,455.27Z" style="fill:#263238"></path><path d="M258.24,459.75c.17.08.64-.83.37-2s-1.09-1.78-1.21-1.63.32.83.54,1.79S258.05,459.69,258.24,459.75Z" style="fill:#263238"></path><path d="M267.51,449.82c0,.2,1,.12,2.07.42s1.85.83,2,.69-.54-1-1.81-1.35S267.44,449.65,267.51,449.82Z" style="fill:#263238"></path><polygon points="269.64 438.26 269 441.92 288.53 445.85 289.25 442.58 269.64 438.26" style="opacity:0.30000000000000004"></polygon><path d="M268.3,445.68a3.89,3.89,0,0,0,2,.41,8.65,8.65,0,0,0,2.22-.2,11,11,0,0,0,1.26-.36,2.48,2.48,0,0,0,.7-.34.87.87,0,0,0,.31-1,1.11,1.11,0,0,0-.76-.62,2.57,2.57,0,0,0-.76-.05,7,7,0,0,0-3.41,1c-1.1.66-1.57,1.31-1.51,1.37s.65-.43,1.73-.94a8.05,8.05,0,0,1,3.2-.74c.44,0,.8.05.87.26s0,.11-.09.22a2.42,2.42,0,0,1-.51.25,12.22,12.22,0,0,1-1.18.37,11.19,11.19,0,0,1-2.08.34A14.64,14.64,0,0,0,268.3,445.68Z" style="fill:#263238"></path><path d="M268.5,446c.06.05.59-.56.93-1.8a6.77,6.77,0,0,0,.18-2.23,5.78,5.78,0,0,0-.25-1.32,1.69,1.69,0,0,0-1.05-1.27,1,1,0,0,0-.95.38,2.87,2.87,0,0,0-.36.69,4.34,4.34,0,0,0-.28,1.33,4.75,4.75,0,0,0,.41,2.24c.56,1.19,1.32,1.59,1.35,1.53s-.51-.6-.89-1.72a4.63,4.63,0,0,1-.24-2,4.42,4.42,0,0,1,.28-1.14c.15-.4.38-.71.53-.63s.47.42.56.79A6.6,6.6,0,0,1,269,442a7.42,7.42,0,0,1,0,2.07C268.76,445.28,268.4,446,268.5,446Z" style="fill:#263238"></path><path d="M400.66,435.43l-8.57-11.2-.45-.58L377,434.52l13.53,14.86-.49,15.05c-7.54,1.94-8.67,5.71-8.67,5.71l15.66,0,14.23-27.4Z" style="fill:#F3CA40"></path><polygon points="411.29 442.72 397.06 470.12 381.4 470.14 383.16 467.78 395.9 467.07 409.03 441.17 411.29 442.72" style="fill:#fff;opacity:0.6000000000000001"></polygon><path d="M390.16,457.53c.12.16,1-.35,2.23-.32s2.1.54,2.22.38-.73-1-2.21-1.07S390,457.41,390.16,457.53Z" style="fill:#263238"></path><path d="M390.41,453.8c.16.11.85-.81,2.1-1.06s2.25.33,2.35.17-.12-.34-.56-.58a3,3,0,0,0-3.59.72C390.4,453.45,390.33,453.76,390.41,453.8Z" style="fill:#263238"></path><path d="M390.31,449c.17.09.7-.82,1.79-1.2s2.07,0,2.15-.2-.15-.29-.59-.45a2.65,2.65,0,0,0-1.79,0,2.76,2.76,0,0,0-1.39,1.12C390.24,448.68,390.22,449,390.31,449Z" style="fill:#263238"></path><path d="M386.11,445.3c.19.06.63-.83,1.6-1.46s1.94-.72,2-.92-1.17-.45-2.34.35S385.92,445.28,386.11,445.3Z" style="fill:#263238"></path><path d="M384.07,442.08c.08.05.59-.58,1.36-1.64l1.33-1.88a5.12,5.12,0,0,0,.72-1.27,1.27,1.27,0,0,0-.09-1,1,1,0,0,0-.95-.49,2.87,2.87,0,0,0-1.46.76,5,5,0,0,0-1,1.08,5.28,5.28,0,0,0-.82,2.27,2.88,2.88,0,0,0,.35,2.13,18.12,18.12,0,0,1,.13-2.06,5.43,5.43,0,0,1,.86-2,5,5,0,0,1,.86-.93,2.59,2.59,0,0,1,1.08-.59.3.3,0,0,1,.3.15.64.64,0,0,1,0,.44,5.54,5.54,0,0,1-.61,1.09c-.4.67-.8,1.32-1.2,2A6.67,6.67,0,0,0,384.07,442.08Z" style="fill:#263238"></path><path d="M383.51,442.55c.07,0,0-.83-.84-1.77a3.92,3.92,0,0,0-4.64-.84.73.73,0,0,0-.25.56.88.88,0,0,0,.19.5,2.64,2.64,0,0,0,.56.49,6.25,6.25,0,0,0,1.11.63,6.88,6.88,0,0,0,2.06.58,3.26,3.26,0,0,0,1.94-.18c0-.11-.74-.06-1.86-.3a7.67,7.67,0,0,1-1.86-.67,7,7,0,0,1-1-.61,1.89,1.89,0,0,1-.41-.35c-.07-.14,0-.1,0-.14a1.26,1.26,0,0,1,.46-.17,5.4,5.4,0,0,1,.58-.09,4.07,4.07,0,0,1,1.11.08,3.86,3.86,0,0,1,1.69.86C383.17,441.87,383.4,442.59,383.51,442.55Z" style="fill:#263238"></path><path d="M398.79,442.25a1.86,1.86,0,1,0,1.86-1.86A1.86,1.86,0,0,0,398.79,442.25Z" style="fill:#fff;opacity:0.6000000000000001"></path><polygon points="378.39 436.01 381.4 439.32 394.05 426.79 392.29 424.5 378.39 436.01" style="opacity:0.30000000000000004"></polygon><path d="M339.45,175.21a45.65,45.65,0,0,1,26-1.18c3.81.95,7.68,2.53,10.12,5.61,2.89,3.64,3.25,8.6,3.7,13.23a160.75,160.75,0,0,0,5.18,27.85c2.12,7.58,4.8,15,5.95,22.83s.62,16.12-3.35,22.92c-6.12,10.48-19.13,15.11-31.26,15.32-6.38.1-12.92-.83-18.58-3.79s-10.37-8.13-11.75-14.36" style="fill:#F3CA40"></path><g style="opacity:0.5"><path d="M339.45,175.21a45.65,45.65,0,0,1,26-1.18c3.81.95,7.68,2.53,10.12,5.61,2.89,3.64,3.25,8.6,3.7,13.23a160.75,160.75,0,0,0,5.18,27.85c2.12,7.58,4.8,15,5.95,22.83s.62,16.12-3.35,22.92c-6.12,10.48-19.13,15.11-31.26,15.32-6.38.1-12.92-.83-18.58-3.79s-10.37-8.13-11.75-14.36"></path></g><path d="M356.13,184.81a21,21,0,0,1,3.47,3.89,36.23,36.23,0,0,1,2.7,5,54.4,54.4,0,0,0,3.23,6.26,15,15,0,0,0,5,5,8.54,8.54,0,0,0,5.68,1.11,6.87,6.87,0,0,0,3.55-1.63,4.31,4.31,0,0,0,.7-.81c.14-.2.2-.31.18-.32s-.34.38-1,.93a7,7,0,0,1-3.45,1.38,8.25,8.25,0,0,1-5.32-1.18,14.86,14.86,0,0,1-4.77-4.85,60.43,60.43,0,0,1-3.23-6.17,32.52,32.52,0,0,0-2.87-5,14.37,14.37,0,0,0-2.65-2.86A4.19,4.19,0,0,0,356.13,184.81Z" style="fill:#e0e0e0"></path><path d="M373.7,278.48a4.07,4.07,0,0,0,0-.79c0-.58,0-1.32,0-2.24,0-1.94-.14-4.76-.29-8.23-.31-7-.85-16.56-1.69-27.14s-1.79-20.16-2.57-27.07c-.4-3.46-.74-6.26-1-8.18-.12-.91-.23-1.65-.31-2.22a4,4,0,0,0-.15-.77,3.3,3.3,0,0,0,0,.78c.05.58.12,1.32.19,2.23.2,2,.47,4.8.79,8.2.67,6.93,1.56,16.5,2.39,27.08s1.45,20.17,1.87,27.11c.21,3.41.38,6.2.5,8.22l.16,2.24A4.5,4.5,0,0,0,373.7,278.48Z" style="fill:#e0e0e0"></path><path d="M371.21,236c0,.17,3.83.13,8.51-.46s8.4-1.47,8.37-1.63-3.79.42-8.45,1S371.2,235.78,371.21,236Z" style="fill:#e0e0e0"></path><path d="M374.3,235.87a4.37,4.37,0,0,0-.52,1.82,15.48,15.48,0,0,0-.21,2.05,2.76,2.76,0,0,0,.22,1.31,1.45,1.45,0,0,0,1.29.86,1,1,0,0,0,.82-.37,1.34,1.34,0,0,0,.29-.76,3.81,3.81,0,0,0-.18-1.28,12,12,0,0,0-.68-2c-.49-1.07-.95-1.64-1-1.6a9.48,9.48,0,0,0,.6,1.77,18.86,18.86,0,0,1,.53,1.92,3.8,3.8,0,0,1,.12,1.09c0,.34-.2.55-.48.55-.67,0-.94-.81-.91-1.53s0-1.43.06-2A7.3,7.3,0,0,0,374.3,235.87Z" style="fill:#e0e0e0"></path><rect x="319.93" y="149.9" width="59.63" height="26.69" rx="9.59" transform="translate(716.06 284.81) rotate(173.34)" style="fill:#455a64"></rect><path d="M367.61,148.27s-.12-.08-.38-.16a4.72,4.72,0,0,0-1.18-.18,6.73,6.73,0,0,0-4.12,1.43,12.35,12.35,0,0,0-4.14,5,16.36,16.36,0,0,0-1.14,7.84,13.56,13.56,0,0,0,2.71,7.43,11,11,0,0,0,5.25,3.78,9.92,9.92,0,0,0,4.33.48,6.47,6.47,0,0,0,1.17-.24c.26-.08.39-.13.38-.15s-.56.08-1.57.14a10.56,10.56,0,0,1-4.16-.66,10.74,10.74,0,0,1-4.93-3.71,13.27,13.27,0,0,1-2.53-7.12,16.11,16.11,0,0,1,1-7.55,12.28,12.28,0,0,1,3.87-4.85,6.79,6.79,0,0,1,3.84-1.54C367.05,148.14,367.6,148.33,367.61,148.27Z" style="fill:#263238"></path><path d="M344.65,150.3l6.2-.61a7.22,7.22,0,0,0-4,3.06,12.12,12.12,0,0,0-1.7,4.79c-1.11,7.13,2.68,14.79,8.77,18.65l-5,.66s-14.3-12.77-4.31-26.55" style="fill:#263238"></path><path d="M337.63,163.42a10.62,10.62,0,0,0,13.45-10.49c-.07-3.07-1.47-6.21-.51-9.14.66-2,2.34-3.58,2.91-5.61.84-3.05-1-6.12-2.75-8.74a20.24,20.24,0,0,0-3.85-4.67,6.93,6.93,0,0,0-5.64-1.67" style="fill:#263238"></path><path d="M309.23,123.37c.17,2.32-1.36,4.4-2.91,6.14s-3.26,3.57-3.6,5.87c-.59,4.09,3.41,7.88,2.59,11.93-.45,2.17-2.22,3.91-2.54,6.1s.83,4.2,2.24,5.81,3.12,3,4.37,4.7a36.2,36.2,0,0,1,3,6.06,10.6,10.6,0,0,0,4.19,5.16c3,1.62,7.16.86,9.44,3.37s4.92,2.8,7.64,4.63" style="fill:#263238"></path><path d="M345,126.92c.06-2.1-1.89-3.73-3.85-4.5s-4.15-1.07-5.9-2.25c-1.55-1-2.59-2.66-3.9-4a13,13,0,0,0-21.83,5.95c-.75,3-.24,6.55,2.13,8.55,2.75,2.31,6.82,1.8,10.34,1.08s7.5-1.43,10.44.64c1.77,1.24,2.78,3.27,3.87,5.15s2.44,3.79,4.49,4.49,4.83-.51,4.91-2.67" style="fill:#263238"></path><path d="M336.65,127.36a3.51,3.51,0,0,1,3.14,3.58h0l-2.1,47.64c-.09,5.63-8.31,8.79-14.34,8.65h0c-6.08-.14-6.28-3.13-6.35-8.48-.13-8.94-.12-12.3-.12-12.25s-7.69-1.29-9.26-11.32c-.78-5-.51-13.17-.07-19.85.39-6,4.39-13.39,10.39-12.75Z" style="fill:#ffbe9d"></path><path d="M309.45,141.06a1.28,1.28,0,0,0,1.24,1.3A1.23,1.23,0,0,0,312,141.2a1.28,1.28,0,0,0-1.23-1.3A1.23,1.23,0,0,0,309.45,141.06Z" style="fill:#263238"></path><path d="M309.31,139.58c.16.17,1.14-.55,2.52-.54s2.4.7,2.55.53-.09-.38-.53-.7a3.58,3.58,0,0,0-2-.63,3.42,3.42,0,0,0-2,.64C309.38,139.21,309.23,139.51,309.31,139.58Z" style="fill:#263238"></path><path d="M323.23,141.41a1.28,1.28,0,0,0,1.24,1.3,1.22,1.22,0,0,0,1.32-1.15,1.29,1.29,0,0,0-1.23-1.31A1.24,1.24,0,0,0,323.23,141.41Z" style="fill:#263238"></path><path d="M322.92,139.87c.16.17,1.13-.55,2.52-.54s2.39.7,2.54.53-.08-.38-.53-.7a3.46,3.46,0,0,0-2-.63,3.32,3.32,0,0,0-2,.64C323,139.49,322.84,139.8,322.92,139.87Z" style="fill:#263238"></path><path d="M317.87,150.13a9.18,9.18,0,0,0-2.25-.42c-.35,0-.68-.1-.74-.34a1.74,1.74,0,0,1,.23-1.05l1.06-2.69a47.05,47.05,0,0,0,2.36-7c-.16-.06-1.47,3-2.92,6.82-.36,1-.69,1.85-1,2.71a2,2,0,0,0-.19,1.38.9.9,0,0,0,.58.52,2.43,2.43,0,0,0,.6.09A9.56,9.56,0,0,0,317.87,150.13Z" style="fill:#263238"></path><path d="M316.88,166.5A25.54,25.54,0,0,0,330.32,163S327,169.83,317,168.87Z" style="fill:#eb996e"></path><path d="M318.45,153.46a2.52,2.52,0,0,1,2.24-.92,2.31,2.31,0,0,1,1.57.85,1.44,1.44,0,0,1,.1,1.65,1.67,1.67,0,0,1-1.81.45,5.19,5.19,0,0,1-1.77-1.06,1.38,1.38,0,0,1-.39-.41.43.43,0,0,1,0-.51" style="fill:#eb996e"></path><path d="M321.94,151.09c-.22,0-.23,1.49-1.52,2.55s-2.89.9-2.9,1.11.36.29,1,.31a3.69,3.69,0,0,0,2.42-.84,3.22,3.22,0,0,0,1.18-2.14C322.21,151.46,322,151.08,321.94,151.09Z" style="fill:#263238"></path><path d="M322.3,137.45c.13.37,1.52.2,3.14.4s2.94.64,3.15.31c.1-.17-.13-.52-.66-.89a5.3,5.3,0,0,0-2.33-.82,5.36,5.36,0,0,0-2.46.28C322.54,137,322.24,137.27,322.3,137.45Z" style="fill:#263238"></path><path d="M309.83,135.58c.24.31,1.2,0,2.34,0s2.12.21,2.34-.12c.1-.15-.05-.47-.47-.77a3.39,3.39,0,0,0-3.78.11C309.86,135.1,309.72,135.43,309.83,135.58Z" style="fill:#263238"></path><path d="M343.65,160.35a8.91,8.91,0,0,1-10.6-9.85c.32-2.46,1.64-5,.79-7.3-1.13-3.08-5.45-4-6.6-7.1-.66-1.79-.06-3.88-.82-5.63s-2.44-2.6-4.13-3.21a17.13,17.13,0,0,1-4.91-2.13c-1.42-1.1-2.3-3.18-1.39-4.72a94.57,94.57,0,0,1,21.92,5.32c1.63.61,3.35,1.35,4.32,2.8s1,3.53.89,5.38l-1.26,27" style="fill:#263238"></path><path d="M349.05,168.69a6.43,6.43,0,0,0-.52-2.5,8.18,8.18,0,0,0-1.71-2.45,13.51,13.51,0,0,0-3.24-2.29c-1.31-.71-2.82-1.36-4.36-2.24a11,11,0,0,1-4.15-3.86,6.07,6.07,0,0,1-.84-3,16.14,16.14,0,0,1,.45-3.18,8,8,0,0,0,.21-3.15,3.58,3.58,0,0,0-1.85-2.44c-1-.56-2-.91-3.05-1.39A5.44,5.44,0,0,1,327.4,140a6.82,6.82,0,0,1-.76-3.17c0-1.05,0-2.06,0-3a8.33,8.33,0,0,0-.4-2.77,4.37,4.37,0,0,0-1.52-2.05,12.27,12.27,0,0,0-4.45-1.75,11.28,11.28,0,0,1-3.78-1.5,4.55,4.55,0,0,1-1.81-2.49,3.15,3.15,0,0,1,0-1.94,1.9,1.9,0,0,1,.34-.58s-.11.21-.24.62a3.1,3.1,0,0,0,.06,1.85,4.41,4.41,0,0,0,1.77,2.3,11.45,11.45,0,0,0,3.71,1.39,12.64,12.64,0,0,1,4.62,1.75,4.84,4.84,0,0,1,1.69,2.24,9,9,0,0,1,.45,2.92c0,1,0,2,0,3a6.46,6.46,0,0,0,.7,2.94,5,5,0,0,0,2.37,2c1,.47,2.07.81,3.1,1.41a5.18,5.18,0,0,1,1.36,1.16,3.84,3.84,0,0,1,.73,1.62,8.52,8.52,0,0,1-.22,3.36,15.39,15.39,0,0,0-.45,3.07,5.55,5.55,0,0,0,.76,2.78,10.66,10.66,0,0,0,3.95,3.73c1.5.88,3,1.55,4.32,2.29a13.34,13.34,0,0,1,3.27,2.41,8,8,0,0,1,1.69,2.57,5.29,5.29,0,0,1,.39,1.9,3.41,3.41,0,0,1,0,.51C349.07,168.63,349.06,168.69,349.05,168.69Z" style="fill:#263238"></path><path d="M319.82,175.57a1.57,1.57,0,0,1-.49.15,4,4,0,0,1-.62.1,5.39,5.39,0,0,1-.85.06,9,9,0,0,1-5.16-1.62,8.72,8.72,0,0,1-2.6-2.75,11.75,11.75,0,0,1-1.34-4.12,13.75,13.75,0,0,0-1.3-4.43c-.78-1.39-2.23-2.31-3.54-3.5a7.34,7.34,0,0,1-2.46-4.52,7.26,7.26,0,0,1,.93-4.71,21.84,21.84,0,0,0,2.09-3.68,8.74,8.74,0,0,0,.43-3.59,20.8,20.8,0,0,0-1.27-5.19,17.79,17.79,0,0,1-.65-1.87,1.84,1.84,0,0,1,.25.45c.14.31.35.76.59,1.35a19.17,19.17,0,0,1,1.45,5.23,9.12,9.12,0,0,1-.39,3.77,21.59,21.59,0,0,1-2.08,3.77,6.73,6.73,0,0,0-.84,4.4,6.81,6.81,0,0,0,2.3,4.21c1.25,1.14,2.77,2.1,3.63,3.62a13.78,13.78,0,0,1,1.33,4.6,11.53,11.53,0,0,0,1.24,4,8.43,8.43,0,0,0,2.44,2.67,9,9,0,0,0,4.95,1.71C319.12,175.71,319.81,175.51,319.82,175.57Z" style="fill:#263238"></path><path d="M349,127.77a.74.74,0,0,1,.17.41,1.57,1.57,0,0,1-.39,1.2,2.54,2.54,0,0,1-1.8.91,5.82,5.82,0,0,1-2.54-.76,6.88,6.88,0,0,0-2.92-.86,15.36,15.36,0,0,0-3.55.32,23.35,23.35,0,0,1-4,.51,5.76,5.76,0,0,1-4.11-1.5,11.92,11.92,0,0,1-2.36-3.66,17.89,17.89,0,0,0-1.92-3.44,5.62,5.62,0,0,0-5.78-2.12,5.88,5.88,0,0,0-3.49,2.59,13.13,13.13,0,0,0-.74,1.48s0-.15.08-.43a4.92,4.92,0,0,1,.48-1.16,5.78,5.78,0,0,1,6.8-2.77,6,6,0,0,1,3,2.11,18.27,18.27,0,0,1,2,3.52,11.61,11.61,0,0,0,2.26,3.5,5.22,5.22,0,0,0,3.75,1.37,23.74,23.74,0,0,0,3.92-.48,15.41,15.41,0,0,1,3.66-.28,7.41,7.41,0,0,1,3.05,1,5.73,5.73,0,0,0,2.38.8,2.35,2.35,0,0,0,1.65-.75,1.47,1.47,0,0,0,.43-1.06C349,127.91,348.92,127.78,349,127.77Z" style="fill:#455a64"></path><path d="M343.33,124.88a7.36,7.36,0,0,1,.36-14.42,4.45,4.45,0,0,1,4.4,1.38c.92,1.25.86,3.12,2,4.14s3.18.62,4.8,1a5.45,5.45,0,0,1,3.92,5.86,7.38,7.38,0,0,1-4.63,5.72,11.65,11.65,0,0,1-7.58.14,27.86,27.86,0,0,1-6.92-3.36" style="fill:#263238"></path><path d="M355.38,117.63a4.25,4.25,0,0,1-.73,1.84,10.16,10.16,0,0,1-3.36,3.41,10.28,10.28,0,0,1-4.55,1.52,4.43,4.43,0,0,1-2-.15c0-.09.76,0,1.93-.22a11.41,11.41,0,0,0,4.31-1.59,11.6,11.6,0,0,0,3.33-3.17C355,118.3,355.3,117.6,355.38,117.63Z" style="fill:#455a64"></path><path d="M350.08,128.72a15.92,15.92,0,0,0-10.76-6.18,5,5,0,0,1,1.91,0,12.36,12.36,0,0,1,7.86,4.51A4.71,4.71,0,0,1,350.08,128.72Z" style="fill:#F3CA40"></path><path d="M277.21,237.63,261,234.49l2.92,4.15L257,242.1l-5.79-2.71a19.16,19.16,0,0,0,1.69,3.39c1.27,2.11,3,3.81,4.06,3.89h0a8.45,8.45,0,0,0,2.14,3.88,7.67,7.67,0,0,0,7.31,2l10.89-3.94Z" style="fill:#ffbe9d"></path><path d="M260.86,245.76a2.9,2.9,0,0,1-2.23,1.09,3,3,0,0,1-2.43-.55c.06-.15,1.09.19,2.37,0S260.78,245.63,260.86,245.76Z" style="fill:#eb996e"></path><path d="M263,249.21c.1.1-.6.88-1.8,1.19a2.51,2.51,0,0,1-2.15-.16c0-.15,1-.06,2-.34S262.88,249.1,263,249.21Z" style="fill:#eb996e"></path><path d="M267.07,237a8.8,8.8,0,0,1-1.41.83c-.87.49-2,1.31-3.27,2.19a12.28,12.28,0,0,1-3.58,1.79,3.12,3.12,0,0,1-1.66.15c0-.08.62-.15,1.55-.5a17.06,17.06,0,0,0,3.4-1.87,26.05,26.05,0,0,1,3.39-2.09A3.66,3.66,0,0,1,267.07,237Z" style="fill:#eb996e"></path><path d="M365.4,264.54s.55.35,1.93,2.8c4.23,7.55,5.94,25.64-10,41.79-20.62,20.86-44.77,55-44.77,55l-19,80.16-28.64-6.21,14.76-83.31,40.47-75.08Z" style="fill:#263238"></path><polygon points="396.99 419.68 352.87 352.16 339.49 293.88 305.41 310.63 322.5 369.78 377.03 437.7 396.99 419.68" style="fill:#263238"></polygon><path d="M293.58,444.29a1.65,1.65,0,0,1,.07-.4c.06-.28.14-.66.24-1.15.24-1,.57-2.51,1-4.41l3.75-16.18c3.21-13.68,7.64-32.53,12.54-53.35.38-1.62.76-3.23,1.12-4.73V364l0,0c12.5-16,23.89-30.15,32.27-40.2,4.2-5,7.63-9,10.06-11.74,1.19-1.37,2.17-2.39,2.82-3.09l.74-.79c.17-.18.26-.27.27-.26a2.22,2.22,0,0,1-.23.29l-.71.82c-.62.73-1.57,1.77-2.75,3.16-2.38,2.75-5.76,6.79-9.92,11.84-8.31,10.11-19.65,24.3-32.14,40.29l0-.1c-.35,1.5-.73,3.11-1.12,4.73L299,422.24c-1.65,6.79-3,12.3-3.91,16.14-.47,1.88-.83,3.36-1.09,4.38-.12.49-.22.86-.29,1.14A2.21,2.21,0,0,1,293.58,444.29Z" style="fill:#455a64"></path><path d="M345.32,285.85a2.09,2.09,0,0,1-.69.38,11.68,11.68,0,0,1-2.05.67,14.1,14.1,0,0,1-13.16-3.83,12.35,12.35,0,0,1-1.38-1.66c-.28-.43-.41-.68-.38-.7s.7.88,2,2.09a14.89,14.89,0,0,0,12.83,3.74C344.26,286.22,345.29,285.77,345.32,285.85Z" style="fill:#455a64"></path><path d="M369.65,268c-17.26,9.09-45.27,14.52-54.23,10.83l-.31-33.25s-12.27-20.23-12.32-27.88c-.07-11,13.66-36.17,13.66-36.17L337.06,176A24.77,24.77,0,0,1,349,178.78a22.33,22.33,0,0,1,11.37,22l-5.19,33.08Z" style="fill:#F3CA40"></path><g style="opacity:0.30000000000000004"><path d="M347.53,178.75c1.2-.18,1.64,1.77.79,2.63s-2.2.9-3.39,1.08c-5.37.84-9.52,5.44-11.47,10.51s-2.14,10.61-2.46,16-.85,11-3.4,15.81a32.64,32.64,0,0,1,18.47-47.12"></path></g><path d="M349,178.78s-3-4.89-12.92-2.77c-6.64,1.42-21.16,15.37-17.11,37.78s14.91,30.35,14.91,30.35-10-34.31-4.44-49.28A24.18,24.18,0,0,1,349,178.78Z" style="fill:#263238"></path><g style="opacity:0.30000000000000004"><path d="M315.49,252.64c4.11,1.32,8.05,3,12.33,3.54a24.25,24.25,0,0,0,12.72-1.33c5.49-2.34,9.57-7.34,11.67-12.93s2.39-11.71,1.83-17.66c-3.75,4.64-3.3,11.51-6.49,16.56-2,3.15-5.25,5.3-8.59,7a49.52,49.52,0,0,1-23.47,4.85"></path></g><path d="M327.85,218.67s-1.34,25.24,29.45,20.22l3.1,7.3s-32.37,6.84-37-20Z" style="fill:#263238"></path><path d="M355.91,187.3a16.43,16.43,0,0,1,2.28,13.27l-7.67,34.33c-3.29,9.66-12.68,15.53-18.52,16.31L277.31,257V236.59l50.77-7.54,2.38-27.8c.21-3.74,2.05-10.46,4.43-13.36,2.66-3.23,6.75-7.63,13.43-6.51C352.41,182.06,354.15,184.79,355.91,187.3Z" style="fill:#F3CA40"></path><path d="M357.49,201.91a4,4,0,0,1-.05.77c-.06.51-.15,1.25-.28,2.21-.26,1.92-.66,4.68-1.27,8.08s-1.39,7.45-2.42,11.9c-.51,2.22-1.06,4.56-1.73,7a39.59,39.59,0,0,1-2.68,7.25,20.82,20.82,0,0,1-4.62,6.2,23.68,23.68,0,0,1-6,4,36.45,36.45,0,0,1-11.75,3.05c-3.45.35-6.25.37-8.18.39h-2.23a4.23,4.23,0,0,1-.77,0,3.93,3.93,0,0,1,.77-.06l2.22-.09c1.93-.08,4.73-.16,8.15-.56a36.55,36.55,0,0,0,11.58-3.12,23.35,23.35,0,0,0,5.89-3.9,20.74,20.74,0,0,0,4.5-6.07,40,40,0,0,0,2.65-7.15c.67-2.38,1.23-4.71,1.76-6.93,1-4.44,1.88-8.46,2.52-11.85s1.11-6.14,1.43-8c.16-.91.28-1.64.37-2.19A6.2,6.2,0,0,1,357.49,201.91Z" style="fill:#263238"></path><path d="M329.55,234.9a10.06,10.06,0,0,1-1.23-3,9.89,9.89,0,0,1-.74-3.13,20.12,20.12,0,0,1,2,6.09Z" style="fill:#263238"></path><path d="M332.66,234.12a8,8,0,0,1-2.79-2.17,7.82,7.82,0,0,1-2-2.9,27,27,0,0,1,2.4,2.55A25.3,25.3,0,0,1,332.66,234.12Z" style="fill:#263238"></path><path d="M282.07,235.89l.23-.06.68-.13,2.62-.43,9.73-1.53L328,228.8l-.22.23c.18-1.9.37-3.9.57-5.94.65-7.21,1.34-14.08,1.68-20.35a40,40,0,0,1,1.7-8.78,19.61,19.61,0,0,1,3.58-6.93c3.24-3.53,6.87-5.4,9.54-5.74a9.58,9.58,0,0,1,3.07.06c.34.07.6.15.77.2l.26.09a10.85,10.85,0,0,0-4.07-.15c-2.6.39-6.14,2.28-9.29,5.79a19.07,19.07,0,0,0-3.44,6.81,39.29,39.29,0,0,0-1.64,8.69c-.31,6.27-1,13.15-1.65,20.36-.19,2-.38,4-.57,5.94v.2l-.2,0-32.74,4.78-9.75,1.36-2.64.35-.68.08Z" style="fill:#263238"></path><path d="M313.37,252.52c-.14,0-.72-4.61-1.29-10.32s-.92-10.37-.78-10.39a100.37,100.37,0,0,1,1.3,10.33A101.29,101.29,0,0,1,313.37,252.52Z" style="fill:#fafafa"></path><path d="M353.41,221.53a24.36,24.36,0,0,1-3.48.05c-2.15,0-5.11-.12-8.39-.24s-6.24-.26-8.38-.39a23.73,23.73,0,0,1-3.46-.31,21.62,21.62,0,0,1,3.48-.06c2.14,0,5.11.12,8.38.24s6.23.26,8.38.39A21.8,21.8,0,0,1,353.41,221.53Z" style="fill:#fafafa"></path><path d="M318.69,215a9.54,9.54,0,0,1-2.27.3c-1.4.1-3.35.17-5.5.13s-4.1-.19-5.5-.35a9,9,0,0,1-2.25-.39,11.59,11.59,0,0,1,2.28,0c1.4.07,3.34.15,5.48.19s4.08,0,5.48,0A10.34,10.34,0,0,1,318.69,215Z" style="fill:#fafafa"></path><path d="M323.21,191.28c-.08.13-2.18-1-4.9-2s-5-1.61-5-1.76a22.14,22.14,0,0,1,9.9,3.76Z" style="fill:#fafafa"></path><path d="M362.93,253.67a1.73,1.73,0,0,1-.45.23l-1.32.54c-1.14.47-2.82,1.09-4.91,1.82A160.32,160.32,0,0,1,339.62,261,158.61,158.61,0,0,1,322.57,264c-2.2.25-4,.42-5.22.5l-1.42.08a1.59,1.59,0,0,1-.5,0,1.87,1.87,0,0,1,.49-.1l1.41-.18c1.23-.14,3-.36,5.2-.66,4.37-.6,10.4-1.59,17-3.09s12.43-3.24,16.63-4.61c2.1-.68,3.8-1.25,5-1.66l1.35-.45A2.45,2.45,0,0,1,362.93,253.67Z" style="fill:#fafafa"></path><path d="M359.67,193.87c0,.14-5.9.07-13.17-.17s-13.15-.54-13.15-.68,5.9-.07,13.17.16S359.67,193.72,359.67,193.87Z" style="fill:#fafafa"></path><path d="M289.2,255.49a97.24,97.24,0,0,1-.64-10,94.1,94.1,0,0,1-.12-10,97.24,97.24,0,0,1,.64,10A94.1,94.1,0,0,1,289.2,255.49Z" style="fill:#fafafa"></path></g><g id="freepik--character-1--inject-5"><path d="M177.33,153.22A46.8,46.8,0,0,1,203.79,156c3.71,1.55,7.39,3.74,9.39,7.23,2.38,4.12,2,9.2,1.73,13.95a164.24,164.24,0,0,0,1,29c1,8,2.57,16,2.54,24s-1.83,16.42-6.88,22.7c-7.79,9.67-21.66,12.39-34,10.74-6.48-.86-12.95-2.8-18.24-6.66s-9.25-9.81-9.7-16.33" style="fill:#455a64"></path><path d="M192.75,165.48a21.72,21.72,0,0,1,2.92,4.47,36.44,36.44,0,0,1,2,5.47,56.77,56.77,0,0,0,2.31,6.83,15.37,15.37,0,0,0,4.32,5.84,8.79,8.79,0,0,0,5.58,2A7,7,0,0,0,213.7,189a4.39,4.39,0,0,0,.83-.71c.17-.18.25-.29.23-.3s-.4.33-1.2.79a7.07,7.07,0,0,1-3.7.86,8.47,8.47,0,0,1-5.21-2,15.13,15.13,0,0,1-4.08-5.63,61.8,61.8,0,0,1-2.34-6.74,33.83,33.83,0,0,0-2.14-5.5,14.91,14.91,0,0,0-2.25-3.29A4.36,4.36,0,0,0,192.75,165.48Z" style="fill:#263238"></path><path d="M196.28,263a3.83,3.83,0,0,0,.15-.78q.12-.88.3-2.28c.25-2,.58-4.84,1-8.38.75-7.09,1.65-16.89,2.43-27.73s1.25-20.68,1.51-27.81c.13-3.56.21-6.44.24-8.43,0-.94,0-1.7,0-2.29a3.49,3.49,0,0,0,0-.8,4,4,0,0,0-.09.79c0,.6-.09,1.35-.15,2.29-.11,2.07-.26,4.93-.45,8.42-.38,7.12-.94,16.94-1.7,27.78s-1.61,20.64-2.24,27.73c-.31,3.49-.56,6.34-.74,8.4-.08.94-.14,1.7-.18,2.29A3.45,3.45,0,0,0,196.28,263Z" style="fill:#263238"></path><path d="M200.23,219.57c0,.17,3.86.71,8.69.83s8.73-.2,8.72-.38-3.9-.15-8.7-.28S200.25,219.38,200.23,219.57Z" style="fill:#263238"></path><path d="M203.37,220a4.53,4.53,0,0,0-.8,1.76,15.8,15.8,0,0,0-.52,2,2.85,2.85,0,0,0,0,1.36,1.51,1.51,0,0,0,1.18,1.08,1.08,1.08,0,0,0,.88-.26,1.29,1.29,0,0,0,.41-.73,4.21,4.21,0,0,0,0-1.32,11.65,11.65,0,0,0-.4-2.08,4.21,4.21,0,0,0-.78-1.78,8.6,8.6,0,0,0,.33,1.89,16.76,16.76,0,0,1,.24,2,3.77,3.77,0,0,1,0,1.12c-.08.34-.29.53-.56.49-.69-.12-.84-1-.7-1.69s.25-1.45.37-2A7.43,7.43,0,0,0,203.37,220Z" style="fill:#263238"></path><rect x="159.04" y="129.01" width="61.05" height="27.32" rx="9.59" transform="translate(374.32 291.53) rotate(-178.11)" style="fill:#263238"></rect><path d="M209.94,130.24s-.11-.1-.36-.22a4.41,4.41,0,0,0-1.17-.36,6.8,6.8,0,0,0-4.38.82,12.58,12.58,0,0,0-4.95,4.4,16.66,16.66,0,0,0-2.35,7.76,13.9,13.9,0,0,0,1.61,7.94,11.26,11.26,0,0,0,4.74,4.63,10.18,10.18,0,0,0,4.31,1.14,6.74,6.74,0,0,0,1.22-.06,1,1,0,0,0,.41-.1c0-.06-.58,0-1.61-.1a10.62,10.62,0,0,1-4.11-1.3,11,11,0,0,1-4.43-4.5,13.57,13.57,0,0,1-1.48-7.6,16.61,16.61,0,0,1,2.2-7.49,12.55,12.55,0,0,1,4.66-4.31,6.93,6.93,0,0,1,4.13-1C209.4,130,209.92,130.3,209.94,130.24Z" style="fill:#455a64"></path><path d="M186.39,128.8l6.36.32a7.37,7.37,0,0,0-4.49,2.5,12.35,12.35,0,0,0-2.45,4.59c-2.21,7,.46,15.38,6,20.21l-5.15-.08s-12.53-15.12-.31-27.54" style="fill:#455a64"></path><path d="M155.31,116.82c-2.6-6.29-2.74-17.21,1.23-23s11.41-9.54,18.24-11a5.87,5.87,0,0,1,3.45,0,2.33,2.33,0,0,1,1.42,2.82A14.44,14.44,0,0,1,184,83.62a4.92,4.92,0,0,1,4.54,1,3,3,0,0,1,.12,4.31,5.23,5.23,0,0,1,6.61,7,16.7,16.7,0,0,1-3.82,5.09c-1.43,1.32-1.67,2.68-1.43,4.61" style="fill:#263238"></path><path d="M156.94,105.29l-1.8,38.48a11.45,11.45,0,0,0,11.47,12h0A11.46,11.46,0,0,0,178,144.83c.13-2.9.25-5.32.28-5.61,0,0,9.84-.46,11-10.12.56-4.67.94-14.38,1.17-23.17a18.12,18.12,0,0,0-16.18-18.5l-.93-.1C163.24,86.83,157.16,95.15,156.94,105.29Z" style="fill:#ffbe9d"></path><path d="M178.34,139.08a22.59,22.59,0,0,1-12.22-4.94s1.93,6.05,11.67,6.22Z" style="fill:#eb996e"></path><path d="M187,112.1a1.39,1.39,0,0,1-1.49,1.25,1.32,1.32,0,0,1-1.28-1.4,1.39,1.39,0,0,1,1.48-1.25A1.34,1.34,0,0,1,187,112.1Z" style="fill:#263238"></path><path d="M187.89,110.45c-.19.16-1.15-.72-2.64-.88s-2.65.47-2.79.27.13-.4.65-.69a3.84,3.84,0,0,1,2.26-.44,3.67,3.67,0,0,1,2.08.93C187.87,110,188,110.38,187.89,110.45Z" style="fill:#263238"></path><path d="M172.33,111a1.39,1.39,0,0,1-1.48,1.25,1.34,1.34,0,0,1-1.29-1.4,1.38,1.38,0,0,1,1.48-1.25A1.32,1.32,0,0,1,172.33,111Z" style="fill:#263238"></path><path d="M173.25,109.15c-.19.16-1.15-.72-2.64-.88s-2.66.47-2.8.27.14-.39.65-.69a3.89,3.89,0,0,1,2.27-.44,3.74,3.74,0,0,1,2.08.93C173.22,108.74,173.34,109.08,173.25,109.15Z" style="fill:#263238"></path><path d="M177.46,120.76a9.42,9.42,0,0,1,2.46-.18c.38,0,.75,0,.84-.28a1.89,1.89,0,0,0-.13-1.15l-.81-3c-1.12-4.28-1.88-7.79-1.71-7.83s1.22,3.39,2.34,7.68c.26,1,.52,2.06.76,3a2.22,2.22,0,0,1,0,1.51.93.93,0,0,1-.68.49,2.43,2.43,0,0,1-.65,0A9.33,9.33,0,0,1,177.46,120.76Z" style="fill:#263238"></path><path d="M173,121.32c.24,0,.07,1.62,1.33,2.92s3,1.3,3,1.53-.41.27-1.14.21a4,4,0,0,1-2.5-1.19,3.48,3.48,0,0,1-1-2.43C172.64,121.68,172.86,121.3,173,121.32Z" style="fill:#263238"></path><path d="M174.26,103.37c-.19.39-1.65,0-3.42.06s-3.23.34-3.42,0c-.08-.19.2-.54.81-.87a5.67,5.67,0,0,1,2.61-.61,5.82,5.82,0,0,1,2.61.59C174.06,102.83,174.35,103.18,174.26,103.37Z" style="fill:#263238"></path><path d="M187.81,106.09c-.3.31-1.28-.15-2.51-.3s-2.3,0-2.5-.4c-.09-.18.11-.5.6-.77a3.68,3.68,0,0,1,4,.56C187.84,105.57,187.94,105.94,187.81,106.09Z" style="fill:#263238"></path><path d="M157,112.54c-.16-.09-6.43-2.68-6.94,3.95s6.27,5.78,6.29,5.59S157,112.54,157,112.54Z" style="fill:#ffbe9d"></path><path d="M154.48,119.41s-.12.07-.33.15a1.19,1.19,0,0,1-.86,0,2.87,2.87,0,0,1-1.13-2.67,3.87,3.87,0,0,1,.45-1.63,1.35,1.35,0,0,1,.93-.82.59.59,0,0,1,.66.37c.08.19,0,.32.06.33s.15-.1.12-.37a.79.79,0,0,0-.23-.44.88.88,0,0,0-.63-.22,1.62,1.62,0,0,0-1.28.94,3.85,3.85,0,0,0-.54,1.82,3,3,0,0,0,1.46,3,1.26,1.26,0,0,0,1.08-.09C154.45,119.57,154.5,119.42,154.48,119.41Z" style="fill:#eb996e"></path><path d="M195.67,93.73c.12,8.66-10.75,11.44-15,6.28-2-2.39-3.65-5.32-6.5-6.54a7.85,7.85,0,0,0-6.09.17l-.06,0c-2.84,1.21-4.7,4.25-5.36,7.27-.91,4.21-.52,8-1.92,11.83a2.67,2.67,0,0,1-.94,1.45c-.84.51-2-.08-2.57-.87a8.2,8.2,0,0,1-1.33-4.51,27.38,27.38,0,0,1,1.22-10.72,18.66,18.66,0,0,1,6.1-8.8A17.62,17.62,0,0,1,176,86a21.71,21.71,0,0,1,12,5.81,12.68,12.68,0,0,1,3.55,5.12" style="fill:#263238"></path><path d="M189,88.46a1.86,1.86,0,0,1,.92.11A4.58,4.58,0,0,1,192,90a5.68,5.68,0,0,1,1.4,3.46,6.37,6.37,0,0,1-1.61,4.28,8.31,8.31,0,0,1-3.8,2.52,11.19,11.19,0,0,1-3.68.53,14.46,14.46,0,0,1-2.48-.26,2.41,2.41,0,0,1-.88-.26c0-.09,1.29.2,3.35.16a11.91,11.91,0,0,0,3.54-.61,8.2,8.2,0,0,0,3.56-2.41,6,6,0,0,0,1.52-3.93,5.42,5.42,0,0,0-1.19-3.25,4.62,4.62,0,0,0-1.89-1.43C189.33,88.54,189,88.51,189,88.46Z" style="fill:#455a64"></path><path d="M184.8,85.08s.25-.06.63.16a2.07,2.07,0,0,1,.92,1.5,3.83,3.83,0,0,1-.7,2.5,10.78,10.78,0,0,1-2,2.4,11.52,11.52,0,0,1-5,2.64,5.69,5.69,0,0,1-2.33.22c0-.1.88-.14,2.23-.57a12.59,12.59,0,0,0,4.73-2.67A11.85,11.85,0,0,0,185.25,89a3.65,3.65,0,0,0,.74-2.21,2,2,0,0,0-.68-1.38C185,85.17,184.79,85.12,184.8,85.08Z" style="fill:#455a64"></path><path d="M156.68,179.57l3.11-22.74-44.69,9L74.43,151.7,63.44,163l43.28,22.29a20,20,0,0,0,12.41,1.59Z" style="fill:#ffbe9d"></path><path d="M74.43,151.7S58.88,144.26,57.88,144c-.77-.2-12.51-.82-17.86-1.1a1.68,1.68,0,0,0-.33,3.33l.2,0c3,.25,9.56,1.75,9.56,1.75l-3,7a1.68,1.68,0,0,0,.55,2l9.05,6.69a7.41,7.41,0,0,0,7.38-.72h0l4,.82Z" style="fill:#ffbe9d"></path><path d="M46.42,155.42c.28,1.31,3.4,4,5.77,4a2.16,2.16,0,0,0,1.43-.51,1.31,1.31,0,0,0,.33-1.42,2.12,2.12,0,0,0-.69-.74L48,152.62" style="fill:#ffbe9d"></path><path d="M48,152.62a13.45,13.45,0,0,1,2.21,1.48l2.31,1.73c.44.34.88.63,1.36,1.07a1.41,1.41,0,0,1,.45,1,1.59,1.59,0,0,1-.35,1,2.25,2.25,0,0,1-1.85.75,4.78,4.78,0,0,1-1.73-.42,8.93,8.93,0,0,1-2.47-1.59,6.55,6.55,0,0,1-1.27-1.52c-.23-.42-.24-.7-.21-.7s.11.23.38.59a7.92,7.92,0,0,0,1.34,1.35,9.59,9.59,0,0,0,2.41,1.43,4.55,4.55,0,0,0,1.57.35,1.75,1.75,0,0,0,1.42-.56,1,1,0,0,0,0-1.32c-.38-.36-.89-.71-1.29-1L50,154.39A12.44,12.44,0,0,1,48,152.62Z" style="fill:#eb996e"></path><path d="M59,159.46s-.35-.18-.67-.68a4.44,4.44,0,0,1-.68-2.21,4.51,4.51,0,0,1,.47-2.25c.28-.53.56-.78.61-.74a10.09,10.09,0,0,0-.56,3A9.77,9.77,0,0,0,59,159.46Z" style="fill:#eb996e"></path><path d="M52.76,155.87a2,2,0,0,0,3.76-1.1A4.14,4.14,0,0,0,54.76,152l-3.89-3.52" style="fill:#ffbe9d"></path><path d="M50.87,148.44a8.68,8.68,0,0,1,1.63,1.23l1.67,1.43a14.18,14.18,0,0,1,2,1.93,3.12,3.12,0,0,1,.6,1.38,2.13,2.13,0,0,1-.26,1.41,2.19,2.19,0,0,1-2,1.16,2.15,2.15,0,0,1-1.42-.63c-.26-.27-.32-.47-.3-.48s.16.13.43.33a2.17,2.17,0,0,0,1.3.41,1.83,1.83,0,0,0,1.57-1,2.09,2.09,0,0,0-.34-2.26,17.37,17.37,0,0,0-1.87-1.87l-1.6-1.52A7.64,7.64,0,0,1,50.87,148.44Z" style="fill:#eb996e"></path><path d="M59.43,147.85a29.87,29.87,0,0,0-8.87,3.71.81.81,0,0,0-.39.41c-.08.26.12.51.33.68a4.16,4.16,0,0,0,2.94.67A28.59,28.59,0,0,1,56.5,153c1.78,0,3.42.89,5.14,1.37s3.8.46,5-.88" style="fill:#ffbe9d"></path><path d="M66.62,153.49s0,.1-.16.24a2.8,2.8,0,0,1-.65.52,4.79,4.79,0,0,1-3,.53,23,23,0,0,1-4.3-1.18,7.58,7.58,0,0,0-2.49-.34c-.88.05-1.79.27-2.79.33a4.24,4.24,0,0,1-2.84-.68,1.18,1.18,0,0,1-.5-.67.7.7,0,0,1,.08-.51,1.07,1.07,0,0,1,.3-.3c.39-.25.75-.45,1.12-.66a26.9,26.9,0,0,1,4-1.87,23.94,23.94,0,0,1,2.87-.87,4.12,4.12,0,0,1,1.09-.18c0,.09-1.51.44-3.83,1.39a32.9,32.9,0,0,0-3.94,1.94c-.35.21-.73.44-1.07.66-.16.12-.21.19-.18.29a.73.73,0,0,0,.31.37,3.82,3.82,0,0,0,2.51.57c.93-.06,1.86-.27,2.79-.31a7.89,7.89,0,0,1,2.66.38,26.3,26.3,0,0,0,4.2,1.28,5,5,0,0,0,2.83-.34A10.18,10.18,0,0,0,66.62,153.49Z" style="fill:#eb996e"></path><path d="M115.79,173.67a13.7,13.7,0,0,1-.23-8c.15,0,0,1.82,0,4S115.94,173.64,115.79,173.67Z" style="fill:#eb996e"></path><path d="M154.9,146.28l-12.68,14.29s-6.78,49.35-7.26,53.23-1.77,16.26-1.77,19.65-2.81,27.62-2.81,27.62,53.81,11.18,62.82,0l-2.81-20.75,2.44-51.47s4-35.73-14.8-44C178,144.83,166.12,152,154.9,146.28Z" style="fill:#F3CA40"></path><path d="M186.67,149.89s-3.71-3.66-15.57-.59c-12.49,3.23-19.08,14.92-16,48,2.56,27.3,13.35,31.22,13.35,31.22s-5.91-41.17-4.89-58.39c1.28-21.75,23.09-16.34,23.09-16.34C189.77,152.81,186.67,149.89,186.67,149.89Z" style="fill:#263238"></path><polygon points="154.9 146.28 143.94 149.3 119.28 164.4 126.3 186.7 140.78 185.11 154.9 146.28" style="fill:#F3CA40"></polygon><path d="M140.63,161.76c.15,0-.48,8-1.39,17.8s-1.77,17.78-1.91,17.76.48-8,1.39-17.8S140.49,161.75,140.63,161.76Z" style="fill:#263238"></path><path d="M190.83,231.07s-3.5,11.25-15.87-7.33-10.64-10.27-10.64-10.27l-2.53,3s13.61,30.65,28.88,25.85Z" style="fill:#263238"></path><polygon points="140.13 167.12 130.38 186.25 138.44 185.37 140.13 167.12" style="opacity:0.30000000000000004"></polygon><g style="opacity:0.30000000000000004"><path d="M135.66,217.91a91.75,91.75,0,0,0,25.05,19.23c3.93,2.06,8.28,3.87,12.68,3.3,4.84-.62,9-4.12,11.27-8.43s2-6.39,2.51-11.23c.6-5.34.6-12.47.88-17.34,0-.86.06-1.86.06-2.81a4.78,4.78,0,0,1,3.41-4.58h0s-3-1.39-4.93-1.11-3.47,1.93-4.5,3.63c-5.49,9.05-3.1,22.32-13.57,28a17.69,17.69,0,0,1-11.23,1.65c-8.57-1.4-15.13-7-21.45-12.52"></path></g><ellipse cx="147.5" cy="184.9" rx="4.75" ry="14.28" style="fill:#fafafa"></ellipse><path d="M150,433.26l1.09,23.51s-23.53,9-23.76,13.37l45.66-.47-.19-36.7Z" style="fill:#F3CA40"></path><g style="opacity:0.6000000000000001"><path d="M165.23,454.65a1.87,1.87,0,0,1,1.31,2.11,1.8,1.8,0,0,1-2.09,1.32,2,2,0,0,1-1.38-2.25,1.88,1.88,0,0,1,2.33-1.13" style="fill:#fff"></path></g><path d="M173,469.67l0-3.66-43.86,1.8s-2,.9-1.78,2.33Z" style="fill:#fff;opacity:0.6000000000000001"></path><path d="M150.38,456.55c0,.22,1.13.31,2.23,1s1.7,1.63,1.91,1.54-.14-1.37-1.5-2.2S150.33,456.34,150.38,456.55Z" style="fill:#263238"></path><path d="M145.62,458.58c-.05.22.92.59,1.68,1.52s1,1.93,1.22,1.92.35-1.28-.62-2.42S145.62,458.37,145.62,458.58Z" style="fill:#263238"></path><path d="M143,464.34c.2,0,.5-1.07-.09-2.29s-1.63-1.69-1.72-1.5.56.83,1,1.84S142.73,464.32,143,464.34Z" style="fill:#263238"></path><path d="M150.73,451.16c.1.21,1.12-.11,2.38,0s2.24.46,2.36.27-.84-1-2.33-1.05S150.62,451,150.73,451.16Z" style="fill:#263238"></path><polygon points="150.26 437.92 150.45 442.11 172.89 441.67 172.88 437.89 150.26 437.92" style="opacity:0.30000000000000004"></polygon><path d="M150.6,446.42a4.31,4.31,0,0,0,2.29,0,10.6,10.6,0,0,0,2.38-.76,11.29,11.29,0,0,0,1.31-.71,3.33,3.33,0,0,0,.68-.54,1,1,0,0,0,.09-1.19,1.21,1.21,0,0,0-1-.5,2.73,2.73,0,0,0-.86.13,7.32,7.32,0,0,0-1.41.5,7.9,7.9,0,0,0-2.1,1.4c-1.05,1-1.4,1.83-1.32,1.88s.61-.64,1.68-1.46a9.44,9.44,0,0,1,2-1.17,10,10,0,0,1,1.31-.42c.48-.13.9-.13,1,.08s0,.11-.05.26a2,2,0,0,1-.5.39,12.56,12.56,0,0,1-1.2.71,12.94,12.94,0,0,1-2.2.87A15.54,15.54,0,0,0,150.6,446.42Z" style="fill:#263238"></path><path d="M150.89,446.73a3.55,3.55,0,0,0,.58-2.21,7.3,7.3,0,0,0-.34-2.5,7.16,7.16,0,0,0-.59-1.38,1.89,1.89,0,0,0-1.47-1.14,1,1,0,0,0-.95.64,3,3,0,0,0-.23.84,4.94,4.94,0,0,0,0,1.54,5.28,5.28,0,0,0,1,2.36c.9,1.17,1.84,1.43,1.85,1.35s-.7-.53-1.4-1.66a5.26,5.26,0,0,1-.74-2.14,5,5,0,0,1,0-1.33c.07-.48.25-.88.43-.83s.62.36.81.74a7.67,7.67,0,0,1,.58,1.24,8.39,8.39,0,0,1,.46,2.27C151,445.86,150.77,446.7,150.89,446.73Z" style="fill:#263238"></path><path d="M194.28,419l18.46,14.59s-8.63,23.67-5.48,26.7l29.58-34.78L209,401.58Z" style="fill:#F3CA40"></path><g style="opacity:0.6000000000000001"><path d="M220.38,421.55a1.87,1.87,0,0,1,2.46.39,1.8,1.8,0,0,1-.37,2.44,2,2,0,0,1-2.6-.43,1.86,1.86,0,0,1,.67-2.5" style="fill:#fff"></path></g><path d="M236.84,425.5l-2.77-2.39-27.41,34.3s-.64,2.12.6,2.87Z" style="fill:#fff;opacity:0.6000000000000001"></path><path d="M212.08,434c.18.14,1-.65,2.24-1s2.35-.21,2.41-.42-1.13-.8-2.64-.32S211.9,433.9,212.08,434Z" style="fill:#263238"></path><path d="M210.49,438.93c.13.18,1-.31,2.26-.28s2.11.52,2.24.34-.73-1.1-2.23-1.11S210.33,438.79,210.49,438.93Z" style="fill:#263238"></path><path d="M213.09,444.71c.17-.12-.48-1.08-1.78-1.43s-2.34.12-2.26.31,1,.13,2.06.44S212.93,444.87,213.09,444.71Z" style="fill:#263238"></path><path d="M208.25,430.2c.21.06.64-.91,1.52-1.82s1.82-1.39,1.75-1.61-1.29,0-2.31,1.08S208,430.17,208.25,430.2Z" style="fill:#263238"></path><polygon points="197.94 421.87 201.23 424.48 215.61 407.25 212.75 404.78 197.94 421.87" style="opacity:0.30000000000000004"></polygon><path d="M204.58,427.19c.06.06.74-.52,1.47-1.75a10.37,10.37,0,0,0,1-2.3,11.91,11.91,0,0,0,.32-1.45,3,3,0,0,0,0-.87,1,1,0,0,0-.84-.85,1.23,1.23,0,0,0-1,.41,3.08,3.08,0,0,0-.47.73,9.42,9.42,0,0,0-.55,1.4,8.11,8.11,0,0,0-.31,2.51,3.81,3.81,0,0,0,.54,2.22c.13,0-.07-.87,0-2.22a8.79,8.79,0,0,1,1-3.56c.22-.45.48-.76.72-.72s.12,0,.17.2a2.5,2.5,0,0,1,0,.65,13.66,13.66,0,0,1-.26,1.36,12.58,12.58,0,0,1-.79,2.24A13.86,13.86,0,0,0,204.58,427.19Z" style="fill:#263238"></path><path d="M205,427.18c.07,0-.25-.9-1.29-1.89a7.5,7.5,0,0,0-2.11-1.39,7.59,7.59,0,0,0-1.44-.46,1.89,1.89,0,0,0-1.82.37,1.08,1.08,0,0,0-.14,1.14,3.12,3.12,0,0,0,.49.72,5.19,5.19,0,0,0,1.17,1,5.36,5.36,0,0,0,2.43.79c1.48.08,2.29-.45,2.24-.52a15.36,15.36,0,0,1-2.17,0,5.39,5.39,0,0,1-2.11-.84,4.82,4.82,0,0,1-1-.89c-.32-.37-.5-.76-.35-.87a1.34,1.34,0,0,1,1.09-.12,8.05,8.05,0,0,1,1.31.37,8.53,8.53,0,0,1,2,1.14C204.42,426.52,204.9,427.25,205,427.18Z" style="fill:#263238"></path><path d="M143.09,333.8s1.22-56.16,0-56.16-9.88-4.94-9.88-4.94l-10.82,83.45s-1,9.37,10.62,16,63.43,52.69,63.43,52.69L214,403.45s-34.11-35.55-48-47.3C155,347,143.09,333.8,143.09,333.8Z" style="fill:#263238"></path><path d="M174.86,320.71l1.19-8.89s8.54-18,9.76-25.66.42-24.26.42-24.26H132.28s.23,60.91,6.74,78c0,0,3.3,32.7,3.79,35.44,1,5.82,4.63,65.36,4.63,65.36l27.2-1s2.36-54.74.47-70.28c-.93-7.7-1.37-15.9-1.58-22.68A162,162,0,0,1,174.86,320.71Z" style="fill:#263238"></path><path d="M133.75,279.67a1.11,1.11,0,0,1,0,.26c0,.21,0,.47.05.79,0,.73.08,1.75.14,3,.1,2.63.3,6.44.57,11.14.54,9.4,1.55,22.37,3,36.66s3.08,27.2,4.23,36.55c.57,4.64,1,8.41,1.35,11.07.15,1.28.27,2.28.35,3,0,.32.06.58.08.79s0,.27,0,.27a1.23,1.23,0,0,1-.07-.26l-.12-.78-.45-3c-.36-2.65-.88-6.42-1.52-11.05-1.24-9.34-2.89-22.25-4.38-36.55s-2.43-27.28-2.88-36.69c-.23-4.71-.36-8.52-.4-11.15,0-1.29,0-2.3-.05-3v-.78A1.39,1.39,0,0,1,133.75,279.67Z" style="fill:#455a64"></path><path d="M173.48,351.76a5.49,5.49,0,0,1,.16.88c.08.62.2,1.47.35,2.54.27,2.22.61,5.43.92,9.4.64,7.95,1.12,19,1.3,31.12s0,23.19-.48,31.15c-.2,4-.46,7.2-.67,9.42-.12,1.07-.22,1.92-.29,2.55a6,6,0,0,1-.13.89,5.1,5.1,0,0,1,0-.9c.05-.63.11-1.48.19-2.56.15-2.22.35-5.44.51-9.42.33-7.95.47-19,.32-31.12s-.6-23.16-1.15-31.1c-.26-4-.54-7.19-.75-9.41-.11-1.07-.2-1.92-.26-2.55A5.4,5.4,0,0,1,173.48,351.76Z" style="fill:#455a64"></path><path d="M184.09,148.64s8.83,2.35,10.71,15.51-1.6,16.92-1.6,16.92,1.43-24.5-9.54-27.84l.43-4.11" style="fill:#263238"></path><polygon points="123.93 191.62 78.35 190.73 78.88 192.94 123.71 193.6 123.93 191.62" style="fill:#263238"></polygon><path d="M179.2,152.77a8,8,0,0,0-5.12.45c-3.69,1.55-10.45,6-10.93,18.64l-.78,20.37,29.15,3.82S194,156.71,179.2,152.77Z" style="fill:#F3CA40"></path><path d="M125.55,195.93l37,11.12.55-14.88,22.14,3.22L184,219.59a15.76,15.76,0,0,1-12.15,14.77h0a15.77,15.77,0,0,1-11.39-1.65l-39.27-22.33Z" style="fill:#ffbe9d"></path><path d="M191.52,196.05s0-.13,0-.35,0-.58-.05-1c0-.89-.07-2.14-.13-3.74-.1-3.25-.25-7.89-.43-13.62-.09-2.86-.18-6-.27-9.36,0-.84-.05-1.7-.08-2.57,0-.42-.08-.85-.13-1.29s-.15-.86-.27-1.29a13.53,13.53,0,0,0-12.49-10.06,10.72,10.72,0,0,0-5.85,1.67,15.13,15.13,0,0,0-4.52,4.46,22.54,22.54,0,0,0-3.33,8.49,62.14,62.14,0,0,0-.91,8.78c-.16,5.74-.31,11.14-.45,16.05l-.19-.23,21.07,2.88,5.92.83L191,196l.55.1L191,196l-1.53-.17-5.89-.72-21.25-2.66-.19,0v-.2c.12-4.92.21-10.31.4-16.06a60.86,60.86,0,0,1,.89-8.86,22.91,22.91,0,0,1,3.41-8.68,15.58,15.58,0,0,1,4.68-4.61,11.14,11.14,0,0,1,6.13-1.74,13.94,13.94,0,0,1,10.45,5.42,13.72,13.72,0,0,1,2.48,5c.11.44.18.89.27,1.34s.09.89.13,1.34c0,.87,0,1.74.06,2.59.07,3.4.13,6.57.19,9.46.1,5.74.18,10.39.24,13.64,0,1.57,0,2.81.05,3.68v1A1.43,1.43,0,0,1,191.52,196.05Z" style="fill:#263238"></path><path d="M126.3,196.37l-8.88-6.57c-1.62-1.2-4.14-1-6.15-1.13-4-.36-10.53,2-10.78,2.46l2.68,2.14-17.26-.53a7.28,7.28,0,0,0,6.31,4s.55,3.9,5.56,4.64c0,0,1.3,3.16,4.09,4.08,0,0,.55,3.53,5,3.34L122,210.49Z" style="fill:#ffbe9d"></path><path d="M103,197.35a28,28,0,0,1-5.47-.06,27.49,27.49,0,0,1-5.43-.58,29.84,29.84,0,0,1,5.46.06A29.76,29.76,0,0,1,103,197.35Z" style="fill:#eb996e"></path><path d="M107.38,201.51a22.47,22.47,0,0,1-4.78.26,22.47,22.47,0,0,1-4.78-.26,21.72,21.72,0,0,1,4.78-.26A21.72,21.72,0,0,1,107.38,201.51Z" style="fill:#eb996e"></path><path d="M112.07,205.43a21.72,21.72,0,0,1-4.78.26,21.59,21.59,0,0,1-4.77-.26,22.34,22.34,0,0,1,4.77-.26A22.47,22.47,0,0,1,112.07,205.43Z" style="fill:#eb996e"></path><path d="M165,214.6a13,13,0,0,1-1.64-3.63,12.59,12.59,0,0,1-1-3.86,19.16,19.16,0,0,1,1.45,3.69A18.76,18.76,0,0,1,165,214.6Z" style="fill:#eb996e"></path><path d="M167.63,213.16a22,22,0,0,1-2.79-3.13,21.28,21.28,0,0,1-2.57-3.3,13.87,13.87,0,0,1,3,3A14.28,14.28,0,0,1,167.63,213.16Z" style="fill:#eb996e"></path></g></svg>