<svg xmlns="http://www.w3.org/2000/svg" viewBox="0 0 500 500"><g id="freepik--Sunburst--inject-35"><path id="freepik--Sparkles--inject-35" d="M359.82,244.29c18.3-.33,36.61-.55,54.91-1l27.46-.64c9.15-.28,18.3-.5,27.45-.84v-.41c-9.15-.34-18.3-.56-27.45-.84L414.73,240c-18.3-.42-36.61-.64-54.91-1s-36.61-.55-54.91-.64c-5.76,0-11.52,0-17.28,0,5.68-1,11.35-2,17-3,18-3.27,36-6.73,54-10.17s36-6.9,53.91-10.49l26.93-5.4c9-1.86,17.94-3.67,26.89-5.59l-.07-.4c-9.07,1.25-18.12,2.62-27.19,3.93l-27.15,4.14c-18.09,2.77-36.16,5.73-54.24,8.58s-36.15,5.82-54.19,8.91c-5.7,1-11.4,2-17.1,3,5.45-2,10.89-3.94,16.33-5.92,17.16-6.34,34.27-12.87,51.38-19.38s34.21-13,51.26-19.69l25.58-10c8.51-3.4,17-6.73,25.51-10.18l-.13-.39c-8.72,2.81-17.4,5.74-26.09,8.6l-26,8.79c-17.34,5.87-34.62,11.92-51.93,17.87s-34.59,12-51.82,18.18q-8.21,3-16.4,6c5.05-2.89,10.09-5.81,15.13-8.71,15.81-9.23,31.52-18.63,47.23-28s31.43-18.79,47.07-28.3L417,146.45c7.78-4.82,15.6-9.59,23.36-14.46l-.21-.35c-8.09,4.28-16.13,8.67-24.19,13l-24.1,13.17c-16.06,8.79-32,17.75-48,26.62s-32,17.82-47.87,26.9c-5,2.91-10.08,5.81-15.11,8.74,4.47-3.72,8.92-7.47,13.38-11.2,14-11.84,27.8-23.82,41.65-35.79s27.69-24,41.44-36l20.62-18.14c6.83-6.1,13.7-12.15,20.5-18.29l-.27-.31c-7.23,5.62-14.38,11.34-21.57,17l-21.44,17.16c-14.29,11.44-28.46,23-42.69,34.55s-28.4,23.11-42.48,34.81q-6.68,5.61-13.36,11.23,5.64-6.66,11.24-13.36c11.7-14.08,23.24-28.28,34.81-42.47s23.1-28.4,34.55-42.69l17.15-21.44c5.67-7.2,11.39-14.35,17-21.58l-.31-.26c-6.15,6.79-12.2,13.66-18.3,20.49L354.6,114.36c-12.09,13.75-24,27.63-36,41.44s-24,27.69-35.79,41.65q-5.61,6.69-11.21,13.39,4.4-7.54,8.75-15.11c9.07-15.9,18-31.89,26.9-47.87s17.82-32,26.62-48L347,75.72c4.33-8.07,8.72-16.1,13-24.2l-.36-.2c-4.87,7.76-9.63,15.57-14.45,23.36L330.91,98.13c-9.52,15.64-18.86,31.38-28.3,47.07s-18.78,31.43-28,47.23q-4.37,7.56-8.71,15.13,3-8.19,6-16.4c6.17-17.23,12.16-34.52,18.18-51.81s12-34.59,17.87-51.93l8.78-26c2.87-8.7,5.79-17.37,8.6-26.09l-.38-.14c-3.45,8.48-6.79,17-10.18,25.51l-10,25.58c-6.66,17.06-13.12,34.18-19.69,51.27s-13,34.21-19.39,51.38q-3,8.16-5.92,16.32c1-5.69,2-11.4,3-17.1,3.09-18,6-36.11,8.9-54.18s5.82-36.15,8.59-54.25l4.13-27.15c1.31-9.06,2.69-18.11,3.94-27.18l-.4-.07c-1.93,9-3.73,17.93-5.6,26.89l-5.4,26.93c-3.58,17.95-7,35.94-10.49,53.9s-6.89,36-10.16,54c-1,5.67-2,11.34-3,17,0-5.76,0-11.51,0-17.27-.09-18.31-.38-36.61-.64-54.91s-.56-36.61-1-54.91L251,49.45c-.28-9.15-.5-18.3-.84-27.45h-.4c-.34,9.15-.56,18.3-.84,27.45l-.65,27.46c-.41,18.3-.64,36.6-1,54.91s-.55,36.6-.64,54.91c0,5.76,0,11.51,0,17.27-1-5.67-2-11.34-3-17-3.27-18-6.73-36-10.17-54s-6.9-36-10.48-53.9l-5.4-26.93c-1.87-9-3.68-17.94-5.6-26.89l-.4.07c1.25,9.07,2.63,18.12,3.94,27.18l4.13,27.15c2.77,18.1,5.73,36.16,8.58,54.25s5.82,36.14,8.91,54.18c1,5.7,2,11.41,3,17.1q-2.94-8.16-5.92-16.32c-6.35-17.17-12.88-34.27-19.39-51.38s-13-34.21-19.69-51.27l-10-25.58c-3.4-8.5-6.73-17-10.18-25.51l-.38.14c2.81,8.72,5.73,17.39,8.6,26.09l8.78,26c5.87,17.34,11.92,34.61,17.87,51.93s12,34.58,18.18,51.81q3,8.21,6,16.4-4.34-7.58-8.71-15.13c-9.23-15.8-18.63-31.51-28-47.23s-18.78-31.43-28.3-47.07L154.81,74.68c-4.82-7.79-9.58-15.6-14.45-23.36l-.36.2c4.28,8.1,8.67,16.13,13,24.2l13.17,24.1c8.8,16.06,17.75,32,26.62,48s17.83,32,26.9,47.87q4.37,7.56,8.75,15.11-5.59-6.71-11.21-13.39c-11.84-14-23.82-27.8-35.79-41.65s-23.95-27.69-36-41.44L127.27,93.74c-6.1-6.83-12.15-13.7-18.3-20.49l-.31.26c5.62,7.23,11.34,14.38,17,21.58l17.16,21.44c11.45,14.29,23,28.45,34.55,42.69s23.11,28.39,34.81,42.47q5.61,6.69,11.23,13.36-6.66-5.64-13.36-11.23C196,192.12,181.77,180.57,167.58,169s-28.4-23.11-42.69-34.55L103.45,117.3c-7.19-5.66-14.34-11.38-21.57-17l-.27.31c6.8,6.14,13.67,12.19,20.5,18.29L122.73,137c13.75,12.09,27.63,24,41.44,36s27.68,23.95,41.65,35.79c4.46,3.73,8.91,7.48,13.38,11.2-5-2.93-10.07-5.83-15.11-8.74-15.89-9.08-31.89-18-47.87-26.9s-32-17.83-48-26.62l-24.1-13.17c-8.06-4.33-16.1-8.72-24.19-13l-.21.35c7.76,4.87,15.58,9.64,23.36,14.46l23.46,14.28c15.64,9.51,31.38,18.86,47.06,28.3S185,207.81,200.8,217c5,2.9,10.08,5.82,15.13,8.71q-8.19-3-16.4-6c-17.23-6.18-34.53-12.17-51.82-18.18s-34.59-12-51.93-17.87l-26-8.79c-8.69-2.86-17.37-5.79-26.09-8.6l-.13.39c8.48,3.45,17,6.78,25.51,10.18l25.58,10c17.05,6.65,34.18,13.12,51.26,19.69s34.21,13,51.38,19.38c5.44,2,10.88,4,16.33,5.92-5.7-1-11.4-2-17.1-3-18-3.09-36.12-6-54.19-8.91s-36.15-5.81-54.25-8.58l-27.14-4.14c-9.07-1.31-18.12-2.68-27.19-3.93l-.07.4c9,1.92,17.93,3.73,26.89,5.59l26.93,5.4c18,3.59,35.94,7,53.91,10.49s36,6.9,54,10.17c5.67,1,11.34,2,17,3-5.76,0-11.52,0-17.28,0-18.3.09-36.61.38-54.91.64s-36.61.55-54.91,1l-27.46.64c-9.15.28-18.3.5-27.45.84v.41c9.15.34,18.3.56,27.45.84l27.46.64c18.3.42,36.61.64,54.91,1s36.61.55,54.91.64c5.76,0,11.52,0,17.28,0-5.68,1-11.35,2-17,3-18,3.26-36,6.72-54,10.16s-36,6.9-53.91,10.49L60.55,274c-9,1.87-17.94,3.67-26.89,5.6l.07.4c9.07-1.26,18.12-2.63,27.19-3.94l27.14-4.14c18.1-2.77,36.17-5.72,54.25-8.58s36.15-5.81,54.19-8.9c5.7-1,11.4-2,17.1-3q-8.17,2.94-16.33,5.92c-17.17,6.34-34.27,12.87-51.38,19.38s-34.21,13-51.26,19.69l-25.58,10c-8.51,3.39-17,6.73-25.51,10.18l.13.38c8.72-2.81,17.4-5.74,26.09-8.6l26-8.79c17.34-5.87,34.62-11.92,51.93-17.87s34.59-12,51.82-18.18c5.47-2,10.94-4,16.4-6q-7.58,4.34-15.13,8.71c-15.81,9.23-31.52,18.63-47.24,28S122.14,313,106.5,322.54L83,336.82c-7.78,4.82-15.6,9.59-23.36,14.46l.21.35C68,347.35,76,343,84.08,338.63l24.1-13.17c16.06-8.79,32-17.75,48-26.61s32-17.83,47.87-26.9q7.56-4.36,15.11-8.75-6.7,5.58-13.38,11.21c-14,11.83-27.8,23.82-41.65,35.78s-27.69,24-41.44,36l-20.62,18.14c-6.83,6.1-13.7,12.15-20.5,18.29l.27.31c7.23-5.62,14.38-11.33,21.57-17l21.44-17.16c14.29-11.44,28.46-23,42.69-34.55s28.4-23.11,42.47-34.8q6.69-5.61,13.36-11.24-5.62,6.66-11.23,13.36c-11.7,14.08-23.24,28.29-34.81,42.48s-23.1,28.39-34.55,42.68l-17.16,21.45c-5.66,7.19-11.38,14.34-17,21.57l.31.26c6.15-6.79,12.2-13.66,18.3-20.49l18.13-20.62c12.09-13.75,24-27.63,36-41.44s23.95-27.69,35.79-41.65q5.61-6.69,11.21-13.39-4.4,7.54-8.75,15.11c-9.07,15.9-18,31.89-26.9,47.88s-17.82,32-26.62,48L153,407.55c-4.33,8.07-8.72,16.1-13,24.2l.36.2c4.87-7.75,9.63-15.57,14.45-23.35l14.28-23.46c9.52-15.64,18.86-31.38,28.3-47.07s18.78-31.43,28-47.23q4.36-7.56,8.71-15.13-3,8.19-6,16.4C222,309.34,216,326.64,209.94,343.93s-12,34.58-17.87,51.93l-8.78,26c-2.87,8.7-5.79,17.38-8.6,26.09l.38.14c3.45-8.48,6.78-17,10.18-25.51l10-25.58c6.66-17.06,13.12-34.18,19.69-51.27s13-34.21,19.39-51.38q3-8.16,5.92-16.32c-1,5.7-2,11.4-3,17.1-3.09,18-6,36.12-8.91,54.19s-5.81,36.14-8.58,54.24l-4.13,27.15c-1.31,9.06-2.69,18.11-3.94,27.18l.4.08c1.92-9,3.73-17.93,5.6-26.9l5.4-26.92c3.58-18,7-35.94,10.48-53.91s6.9-36,10.17-54c1-5.67,2-11.34,3-17,0,5.76,0,11.52,0,17.28.09,18.3.38,36.6.64,54.91s.56,36.6,1,54.91l.65,27.45c.28,9.15.5,18.31.84,27.46h.4c.34-9.15.56-18.31.84-27.46l.65-27.45c.41-18.31.64-36.61,1-54.91s.55-36.61.64-54.91c0-5.76,0-11.52,0-17.28,1,5.67,2,11.34,3,17,3.27,18,6.73,36,10.16,54s6.91,35.95,10.49,53.91l5.4,26.92c1.87,9,3.67,17.94,5.6,26.9l.4-.08c-1.25-9.07-2.63-18.12-3.94-27.18l-4.13-27.15c-2.77-18.1-5.73-36.16-8.59-54.24s-5.81-36.15-8.9-54.19c-1-5.7-2-11.4-3-17.1q2.94,8.18,5.92,16.32c6.35,17.17,12.88,34.27,19.39,51.38S298.1,380,304.76,397l10,25.58c3.39,8.5,6.73,17,10.18,25.51l.38-.14c-2.81-8.71-5.73-17.39-8.6-26.09l-8.78-26c-5.87-17.35-11.92-34.62-17.87-51.93s-12-34.59-18.18-51.82q-3-8.21-6-16.4,4.33,7.57,8.71,15.13c9.23,15.8,18.63,31.51,28,47.23s18.78,31.43,28.3,47.07l14.28,23.46c4.82,7.78,9.58,15.6,14.45,23.35l.36-.2c-4.28-8.1-8.67-16.13-13-24.2l-13.17-24.1c-8.8-16.06-17.75-32-26.62-48s-17.83-32-26.9-47.88q-4.37-7.56-8.75-15.11,5.6,6.72,11.21,13.39c11.83,14,23.82,27.8,35.79,41.65s23.95,27.69,36,41.44l18.13,20.62c6.1,6.83,12.15,13.7,18.3,20.49l.31-.26c-5.62-7.23-11.34-14.38-17-21.57l-17.15-21.45c-11.45-14.29-23-28.45-34.55-42.68s-23.11-28.4-34.81-42.48q-5.61-6.69-11.23-13.36,6.66,5.64,13.35,11.24c14.08,11.69,28.29,23.24,42.48,34.8s28.78,23.11,43.06,34.55L396.55,366c7.19,5.67,14.34,11.38,21.57,17l.27-.31c-6.8-6.14-13.67-12.19-20.5-18.29l-20.62-18.14c-13.75-12.08-27.63-24-41.44-36s-27.68-23.95-41.65-35.78q-6.69-5.61-13.38-11.21,7.54,4.4,15.11,8.75c15.89,9.07,31.89,18,47.87,26.9s32,17.82,48,26.61l24.1,13.17c8.06,4.34,16.1,8.72,24.19,13l.21-.35c-7.76-4.87-15.58-9.64-23.36-14.46L393.5,322.54c-15.64-9.51-31.38-18.86-47.07-28.29s-31.42-18.78-47.23-28q-7.56-4.37-15.13-8.71c5.46,2,10.93,4,16.4,6,17.23,6.18,34.53,12.17,51.82,18.18s34.59,12,51.93,17.87l26,8.79c8.69,2.86,17.37,5.79,26.09,8.6l.13-.38c-8.48-3.45-17-6.79-25.51-10.18l-25.58-10c-17.05-6.65-34.18-13.12-51.26-19.69s-34.22-13-51.38-19.38q-8.16-3-16.33-5.92c5.7,1,11.4,2,17.1,3,18,3.09,36.12,6,54.19,8.9s36.15,5.81,54.24,8.58L439.08,276c9.07,1.31,18.12,2.68,27.19,3.94l.07-.4c-8.95-1.93-17.93-3.73-26.89-5.6l-26.93-5.4c-17.95-3.59-35.94-7-53.91-10.49s-35.95-6.9-54-10.16c-5.67-1-11.34-2-17-3,5.76,0,11.52,0,17.28,0C323.21,244.84,341.52,244.56,359.82,244.29Z" style="fill:#F3CA40;opacity:0.2"></path></g><g id="freepik--life-preserver--inject-35"><g id="freepik--Inflatable--inject-35"><g id="freepik--inflatable--inject-35"><path d="M86,437.87c59.5,34.37,156,34.37,215.48,0,54.7-31.56,54.7-101.61,0-133.23-59.5-34.32-156-34.32-215.48,0C31.34,336.26,31.34,406.31,86,437.87Zm39.09-71c3.6-5,8.91-9.71,16-13.79,29.12-16.76,76.26-16.76,105.38,0,7.05,4.08,12.36,8.75,16,13.79-3.6,5-8.91,9.65-16,13.73-29.12,16.82-76.26,16.82-105.38,0C134,376.5,128.73,371.83,125.13,366.85Z" style="fill:#fafafa"></path><path d="M57.51,405.78c-20-34.63-7-76.94,30.1-98.42,58.54-33.76,153.8-33.76,212.34,0,12.89,7.46,23.3,17.62,30.09,29.39a68.12,68.12,0,0,1,6.79,53c-5.24,18.57-18.34,34.69-36.88,45.39-58.54,33.81-153.8,33.81-212.34,0-12.89-7.45-23.3-17.6-30.1-29.37m190.54-55.45c-29.93-17.22-78.61-17.22-108.53,0-7.3,4.23-16,14.19-16,14.19,3.19,6.34,8.67,14.58,15.94,18.79,29.93,17.28,78.61,17.28,108.54,0,7.27-4.21,15.46-15.28,17.3-21.23C265.35,362.08,255.34,354.56,248.05,350.33Zm-193.27,57C61.62,419.19,72,429.79,86,437.87c59.5,34.37,156,34.37,215.48,0,40.7-23.49,51.12-68.28,31.25-102.7-6.83-11.83-17.25-22.44-31.25-30.53-59.5-34.32-156-34.32-215.48,0C45.34,328.16,34.92,373,54.78,407.35Zm207.65-40.5c-3.6,5-8.9,9.65-16,13.73-29.12,16.81-76.26,16.82-105.38,0-7.05-4.08-12.36-8.75-16-13.73,3.6-5,8.91-9.71,16-13.79,29.12-16.76,76.26-16.76,105.38,0,7.05,4.08,12.36,8.75,16,13.79Z" style="fill:#e0e0e0"></path><path d="M141.09,319.75c29.12-16.76,76.26-16.76,105.38,0,22,12.73,27.37,31.45,16,47.1-3.6-5-8.91-9.71-16-13.79-29.12-16.76-76.26-16.76-105.38,0-7.05,4.08-12.36,8.75-16,13.79C113.72,351.2,119.08,332.48,141.09,319.75Z" style="fill:#e0e0e0"></path><path d="M264.55,453.61a33.27,33.27,0,0,0,1.83-13.08c-1.25-22.22-23-50.07-33.65-53.68l.13-.1a82.69,82.69,0,0,0,13.61-6.17,58.23,58.23,0,0,0,10.18-7.4c40.6-4.73,72.51,18.26,76,34.39-6.84,11.75-17.19,22.27-31.11,30.3A176.56,176.56,0,0,1,264.55,453.61Z" style="fill:#F3CA40"></path><path d="M301.52,304.64a86.61,86.61,0,0,1,25.41,21.89c-22.67-13-52.15-3.64-62.4,1.34-10.43,5.07-22.17,16.57-20.9,23.63l-.19,0a92.33,92.33,0,0,0-19.62-7.31c-2.74-6-5.65-17.18-1-33.61,3.79-13.48,13.45-22.05,20.79-26.85C264.75,287.92,284.63,294.89,301.52,304.64Z" style="fill:#F3CA40"></path><path d="M243.63,351.5l-.19,0a92.33,92.33,0,0,0-19.62-7.31c-2.74-6-5.64-17.17-1-33.59a90.94,90.94,0,0,1,23.68,9.17A54.77,54.77,0,0,1,260,330.44C251,336.17,242.54,345.46,243.63,351.5Z" style="opacity:0.15"></path><path d="M144.15,351.47l-.09,0c-.21-12.56-14.17-23.65-23.9-27.34-17.8-6.74-38.62-10.26-61.76,5.45A85.63,85.63,0,0,1,86,304.64c17.12-9.88,37.3-16.89,58.78-21.08,9,6.69,16.06,17,19.91,30a41.18,41.18,0,0,1-2.54,31.05A90.9,90.9,0,0,0,144.15,351.47Z" style="fill:#F3CA40"></path><path d="M144.06,351.44c-.15-9-7.36-17.22-15-22.53a56.6,56.6,0,0,1,12-9.16,89.58,89.58,0,0,1,22.74-8.91c.3.89.63,1.77.9,2.69a41.18,41.18,0,0,1-2.54,31.05h0a90.9,90.9,0,0,0-18,6.89Z" style="opacity:0.15"></path><path d="M86,437.87a85.29,85.29,0,0,1-28.29-25.82c.64-7,4.38-17.92,19-29.58,23.34-18.67,53.11-10.26,53.11-10.26l.07,0a57.06,57.06,0,0,0,11.21,8.39,80.55,80.55,0,0,0,11.11,5.27v0s-19,5.31-27.41,31c-6.65,20.27.62,32.62,7.85,39.4A182.76,182.76,0,0,1,86,437.87Z" style="fill:#F3CA40"></path></g><path d="M334.63,338.6c2.28,41.64-33.82,94.45-140.85,94.45S50.66,380.25,52.93,338.61C35.65,372.52,46.68,415.16,86,437.87c59.5,34.37,156,34.37,215.48,0C340.88,415.16,351.92,372.52,334.63,338.6Z" style="opacity:0.15"></path><path d="M351.29,382.44c-.53,7.43-3.32,14.45-8.81,19.57a32.53,32.53,0,0,1-10.14,6.09c-3.11,1.27-6.33,2.28-9.39,3.35-7.3,2.54-14.5,5.1-21.09,9.21A94.3,94.3,0,0,0,286.42,433c-5.49,5.29-10.4,11.11-16.38,15.88q-3.36,2.68-6.86,5.16a109.83,109.83,0,0,1-32.84,16.27c-3.49,1-7,1.86-10.58,2.55a116.78,116.78,0,0,1-41.1.56,164.43,164.43,0,0,1-16.8-3.9,92.82,92.82,0,0,1-35.25-18.82c-2.44-2.09-4.39-4.53-6.76-6.63-2.69-2.38-5.43-4.71-8.23-7A126.05,126.05,0,0,0,94,425c-6.89-3.81-14.15-6.89-21.35-10.06-3.62-1.6-7.23-3.21-10.74-5.05-2.89-1.51-5.65-3.24-8.41-5l-1-.6a57.83,57.83,0,0,1-8.27-5.87A23.25,23.25,0,0,1,38.46,390c-5.49-13.08-.89-27,8-37.28a2.19,2.19,0,0,1,1.2-.73,72.31,72.31,0,0,0-2.46,13.92,30.08,30.08,0,0,0-2.74,15.16,27.12,27.12,0,0,0,2.65,9.19,16.1,16.1,0,0,0,4.14,5.2c.47.42,1,.81,1.49,1.19,2.41,1.77,5,3.25,7.56,4.85a94.53,94.53,0,0,0,9.9,5.37c6.76,3.2,13.77,5.8,20.56,8.93a153,153,0,0,1,17.88,9.51,168.31,168.31,0,0,1,16.92,12.56c5.46,4.52,10.47,9.37,16.33,13.43q3.26,2.25,6.68,4.28a89.35,89.35,0,0,0,19.4,8.56c6.69,2,13.44,2.64,20.33,3.38a108.59,108.59,0,0,0,43.33-4.22c2.29-.71,4.57-1.5,6.81-2.36,1.14-.44,2.27-.91,3.38-1.4a101.26,101.26,0,0,0,15.28-8.48,106.13,106.13,0,0,0,16.61-13.34c5.08-5.08,9.91-10.32,15.46-14.93A81.48,81.48,0,0,1,303.92,412c6.74-3.22,14-5.29,21-7.73,4.49-1.55,8.82-3.23,12.37-6.16a20.31,20.31,0,0,0,3.51-3.7c4.25-5.84,5.43-13.66,4.73-20.71a32.55,32.55,0,0,0-2.56-9.85c-.35-.84-.72-1.68-1.12-2.5a71,71,0,0,0-1.76-8.61,41.57,41.57,0,0,1,3.58,4.13c1.09,1.49,2.11,3,3.06,4.61C350.51,367.69,351.8,375.25,351.29,382.44Z" style="fill:#37474f"></path><path d="M83.71,411.37c16.2,5.11,23.53,12.95,23.53,12.95-3-.79-7,4.08-5.27,7.33A86.59,86.59,0,0,0,79.23,419.8C77.49,414.48,80.72,411.75,83.71,411.37Z" style="fill:#F3CA40"></path><path d="M304.4,409.57c-15.43,7.1-21.72,15.79-21.72,15.79,2.87-1.16,7.46,3.17,6.14,6.61a86.55,86.55,0,0,1,21.08-14.59C311,411.88,307.42,409.57,304.4,409.57Z" style="fill:#F3CA40"></path></g></g><g id="freepik--Anchor--inject-35"><g id="freepik--anchor--inject-35"><path d="M458.23,372.85,456,365.26l-15.54-34.4-13,34.09,2.28,7.59,4.54,0c-1.47,19.56-9,31.15-17,38a16.23,16.23,0,0,1-26-7.57L366,322.56c13.6-11.57,36.11-20,36.11-20l-2.23-7.05-2.27-7.59-28,8.83a24.08,24.08,0,0,0-.11-14.16c-.37-1.18-1.84-6.2-2.27-7.58A24.21,24.21,0,0,0,321,289.56c.37,1.17,1.84,6.19,2.28,7.58a24,24,0,0,0,8,11.66l-27.78,8.76,4.5,14.65s23.37-6,41.17-4.32l25.92,82.19a16.21,16.21,0,0,1-17.38,19.26c-10.44-1-23.29-6.21-35.73-21.43l3.53-2.53-2.27-7.59-30.19-20.48,7,37.09,2.28,7.59,6.65-4.77c3,5.69,13.57,23.55,29.44,31.48,25.18,12.58,47.88,6.26,63.13,16.25,6.75-16.93,29-24.77,42.38-49.52,8.45-15.59,6.83-36.26,6.06-42.67ZM332.31,289.93a14.08,14.08,0,0,1,25.9-7.71,14.08,14.08,0,0,1-25.9,7.71Z" style="fill:#263238"></path><path d="M458.23,372.85l-15.53-34.4-13,34.09,7.08.07c.12,24.21-8.3,37.88-17.23,45.55a16.22,16.22,0,0,1-25.95-7.57l-27.73-87.95c13.59-11.62,36.2-20.09,36.2-20.09l-2.23-7.05L363.54,307a24.2,24.2,0,1,0-21.39,6.75l-36.32,11.45,2.23,7.06s23.37-6,41.17-4.32L377,415.84a16.22,16.22,0,0,1-16.91,21.09c-11.71-1.17-26.45-7.53-40.24-27.42l5.76-4.13L295.38,384.9l7,37.09,6.65-4.77c3,5.69,13.57,23.55,29.44,31.48,25.18,12.58,47.88,6.26,63.13,16.25,6.75-16.93,29-24.77,42.38-49.52,8.45-15.59,6.83-36.26,6.06-42.67ZM342.16,276.43A14.09,14.09,0,1,1,333,294.1,14.09,14.09,0,0,1,342.16,276.43Z" style="fill:#455a64"></path><path d="M361.26,270.75A55.31,55.31,0,0,1,359.1,276a27.05,27.05,0,0,1-2.39,4.23,12.93,12.93,0,0,1-2.9,3.05,12.12,12.12,0,0,1-8.68,2.24,11.13,11.13,0,0,1-5.81-2.81,10.13,10.13,0,0,1-1.82-3.18,1.81,1.81,0,0,1-.09-.55,14.15,14.15,0,0,1,9.8-3.23.79.79,0,0,0,.61,0l.18-.07a12.39,12.39,0,0,0,3-3.11c8.79-18,1.46-41.5-23.33-45.72-19.24-3.28-29.41,4.82-43.85,12.38-1.83-2.81-3.64-5.56-5.34-8.15,15.83-8.37,30.24-16.75,48.78-13.62C357.13,222.6,367.6,245,361.26,270.75Z" style="fill:#F3CA40"></path><g style="opacity:0.2"><path d="M331.37,223.67a17,17,0,0,0-2.87-5,10.15,10.15,0,0,0-1.14-1.13l-.12,0c-.57-.09-1.13-.18-1.69-.25a9.93,9.93,0,0,1,2.78,2.81,25,25,0,0,1,2.56,5.67c.23.68.47,1.37.71,2.05.49.13,1,.28,1.45.43C332.45,226.74,332,225.19,331.37,223.67Z"></path><path d="M344.34,230.55c0,1.28-.13,2.56-.07,3.84.52.45,1,.9,1.51,1.38,0-.27-.09-.53-.11-.8-.16-1.82,0-3.65,0-5.47a12.65,12.65,0,0,0-1.18-6c-.71-.4-1.43-.79-2.18-1.17C344.38,224.4,344.45,227.79,344.34,230.55Z"></path><path d="M293.25,224.3a11.42,11.42,0,0,0-1.29-.11l-2.43,1.2.6-.07a8.61,8.61,0,0,1,3.39.19,32.11,32.11,0,0,1,6.1,2.75c.91.46,1.83,1,2.75,1.43.57-.24,1.14-.47,1.72-.68-1.78-.87-3.54-1.77-5.32-2.64A20,20,0,0,0,293.25,224.3Z"></path><path d="M358.89,274.81c.3-.13.6-.25.91-.36.24-.56.48-1.12.7-1.69-.26.08-.53.17-.79.27a29.84,29.84,0,0,0-4.37,2.21,7.47,7.47,0,0,1-2.2.93,9.36,9.36,0,0,1-2.59.05,8.21,8.21,0,0,1-2.5-.48l-.05,0-.18.07a.79.79,0,0,1-.61,0h-1a5.17,5.17,0,0,0,2.51,1.33,10.89,10.89,0,0,0,5.35.07C355.82,276.67,357.28,275.53,358.89,274.81Z"></path><path d="M290.52,235.67c-4-1.36-7.77-3.75-11.94-4.32l.87,1.34a16,16,0,0,1,2.06.55c2.6.9,5,2.22,7.6,3.21Z"></path><path d="M361.89,253.94a12.13,12.13,0,0,1-4.22,4.58,25.17,25.17,0,0,0-3.4,3.12c-.1.81-.23,1.62-.39,2.42a23.66,23.66,0,0,1,2-2.27c1.47-1.47,3.23-2.54,4.79-3.91a10.58,10.58,0,0,0,2.34-3c-.05-1.29-.16-2.55-.31-3.8,0,0,0,0,0,0A9.48,9.48,0,0,1,361.89,253.94Z"></path><path d="M353.43,249a9.83,9.83,0,0,1,.48-1.94,37.11,37.11,0,0,1,2.38-4.71,14.53,14.53,0,0,0,1.77-4.65c0-.24.06-.49.08-.74-.43-.77-.88-1.52-1.37-2.25a6.35,6.35,0,0,1,.13,1.17,9,9,0,0,1-.35,2.48,22.55,22.55,0,0,1-2.24,4.8,25.8,25.8,0,0,0-1.66,3.38C353,247.34,353.2,248.16,353.43,249Z"></path><path d="M313.65,222.81a17.71,17.71,0,0,0-4.25-3.41,9.66,9.66,0,0,0-2.5-.88c-.81.21-1.62.43-2.43.67a8.16,8.16,0,0,1,2.39.26,9.07,9.07,0,0,1,2.73,1.36,27.41,27.41,0,0,1,3.94,3.75c.59.62,1.2,1.24,1.85,1.81.64-.06,1.29-.1,1.95-.13A37.26,37.26,0,0,1,313.65,222.81Z"></path></g></g></g><g id="freepik--Character--inject-35"><g id="freepik--character--inject-35"><g id="freepik--Top--inject-35"><path d="M278.34,349.4a3.06,3.06,0,0,0-3.24,1.76c-.49-.31-.8-.91-1.37-1s-1.3.47-1.68,1.07a13.06,13.06,0,0,0,1.11,15.31,2.19,2.19,0,0,0,.79.63,2.23,2.23,0,0,0,1.15.07,25.91,25.91,0,0,0,6-1.42c1.93-.71,4-1.86,4.55-3.84a7.68,7.68,0,0,0-.52-4.39,11.55,11.55,0,0,0-2.87-5.07C281.28,351.53,279.67,349.63,278.34,349.4Z" style="fill:#9a4a4d"></path><path d="M293.85,307.6c14.18-20.28,13.85-24.31,8.25-34.92-3.06-5.79-15.52-25.47-29.05-46.38-8.36-12.93-15.19-17-25.55-18.54V259l18.86,28.56s-15.65,32.61-18.46,41.77c-4.05,13.17-.82,29.64,10,37.25s13.38,8.48,21.43,6.14,10.12-3.31,10.66-6.09c1.36-7,2.38-7.92-2.1-11.54-2.55-2.06-4.73-4.13-6.11-5a1.21,1.21,0,0,0-1.72.52c-2,4.05,3.89,9.31,3.89,9.31a32.73,32.73,0,0,0-7.86,3.3c-1.66-7.11-.29-11.33-2-15-1.1-2.32-3.08-6.21-1.62-8.32C275.57,335.41,285,320.25,293.85,307.6Z" style="fill:#b16668"></path><path d="M255.64,308.37l-7,17.24s4.59-1.62,14.86,3.88C273.14,334.64,274,338,274,338l10.29-15s-2.3-5.21-11.88-9.34A76.62,76.62,0,0,0,255.64,308.37Z" style="fill:#F3CA40"></path><path d="M255.64,308.37l-7,17.24s4.59-1.62,14.86,3.88C273.14,334.64,274,338,274,338l10.29-15s-2.3-5.21-11.88-9.34A76.62,76.62,0,0,0,255.64,308.37Z" style="opacity:0.2"></path><path d="M279.31,330.19l1.13-1.66a33.77,33.77,0,0,0-26.64-13.6l-.83,0-.77,1.91A31.94,31.94,0,0,1,279.31,330.19Z" style="fill:#fafafa"></path><path d="M251.07,319.66l-.77,1.9a31.86,31.86,0,0,1,25.92,13.15l1.14-1.67A33.8,33.8,0,0,0,251.07,319.66Z" style="fill:#fafafa"></path><path d="M266.36,287.58c5.86,4.59,14.26,4.07,18.26,2.83-6.69,4.34-15.92,2.32-19.43-.5" style="fill:#9a4a4d"></path><path d="M245.25,201.27c9,3.33,16.4,5,23.2,14.93s33.92,51.06,37.25,58.67,2.87,12.23-3.83,23.63-18.65,27.12-18.65,27.12-5.27-13.76-28.51-16.25l10.87-21.45-20.33-29.61Z" style="fill:#ebebeb"></path><path d="M265.58,287.92c3.5,4.53,16.44,4.84,21.69,3.39-6.59,5.46-18.71,4.12-23.09-.64Z" style="fill:#e0e0e0"></path><path d="M130.24,344.29c0-1.26.1-2.33.13-3.05C130.33,342.05,130.29,343.11,130.24,344.29Z" style="fill:#fafafa"></path><path d="M257.6,242c-.74-10.81-1.64-21.92-5.79-32.06a23.51,23.51,0,0,0-6.35-9c-.18,0-31.72-9.55-31.91-9.55s-43.44-2.51-43.53-2.45c-9.27,2.37-18.45,5-27.62,7.72-5.46,3.35-9.62,8.4-12.82,13.86-9.68,16.68-9.66,36.87-7.11,55.44.08.65.16,1.32.24,2,.26,2.29.54,4.67.84,7.12,1.11,9.56,2.37,20.4,3.46,28.5,1.44,12.54,3.24,25.09,3.36,37.72,0-2.91-.13-5.82-.31-8.73.23,3.4.35,6.37.31,8.73-.13,8.13-.45,14.86-.82,20.28.27-4.61.5-12.24.69-17.23-.23,5.43-.63,14.65-.74,17.5-.14,1.46-.67,7.61-.83,9.32h0v.05h.09a56.32,56.32,0,0,0,12.33,9.41c29.12,16.81,76.27,16.81,105.38,0a57.73,57.73,0,0,0,11.18-8.27c.23,0,.35,0,.34-.07C257.72,342,258.79,271.23,257.6,242Z" style="fill:#fafafa"></path><path d="M170.14,189.88c1.52.06,16.61.92,27.72,1.56l15.54.88c1.12.31,12,3.58,20,6,8.54,2.57,10.89,3.27,11.59,3.47a22.84,22.84,0,0,1,5.91,8.51c3.93,9.63,4.91,20.08,5.71,31.72.76,18.8.6,54.56.45,86.11-.08,16.78-.15,32.66-.07,43.44l0,0a56.3,56.3,0,0,1-11,8.13c-13.93,8-32.46,12.47-52.19,12.47s-38.26-4.43-52.19-12.47a55.53,55.53,0,0,1-11.88-9c.1-1.08.26-2.92.41-4.68s.31-3.46.37-4.14v-.05l0-.25h0c.43-6.42.71-13.26.82-20.33,0-2.3-.07-5.18-.31-8.82h0c-.47-7.53-1.37-15-2.25-22.36-.26-2.23-.53-4.45-.79-6.7-1-7.75-2.25-18.13-3.32-27.28l-.14-1.21c-.29-2.45-.58-4.83-.84-7.12l-.24-2c-3.24-23.58-1-41,7-54.79,3.53-6,7.69-10.54,12.37-13.45,8.69-2.56,18-5.25,27.33-7.64m-.1-1h0c-9.27,2.37-18.45,5-27.62,7.72-5.46,3.35-9.62,8.4-12.82,13.86-9.68,16.68-9.66,36.87-7.11,55.44.08.65.16,1.32.24,2,.26,2.29.54,4.67.84,7.12,1.11,9.56,2.37,20.4,3.46,28.5,1.44,12.54,3.24,25.09,3.36,37.72,0-2.91-.14-5.82-.31-8.73.23,3.4.35,6.37.31,8.73-.13,8.13-.45,14.86-.82,20.28.27-4.61.5-12.24.69-17.23-.23,5.43-.63,14.65-.74,17.5-.14,1.46-.67,7.61-.83,9.32h0v.05h.09a56.32,56.32,0,0,0,12.33,9.41c14.56,8.41,33.63,12.61,52.69,12.61s38.13-4.2,52.69-12.61a57.73,57.73,0,0,0,11.18-8.27c.23,0,.35,0,.34-.07-.27-30.22.8-101-.39-130.27-.74-10.81-1.64-21.92-5.79-32.06a23.51,23.51,0,0,0-6.35-9c-.18,0-31.72-9.55-31.91-9.55h0c-.46,0-42.54-2.45-43.51-2.45Z" style="fill:#e0e0e0"></path><path d="M213.77,241.42c-7.2-3.24-34.9-20-41.9-35.58L170.09,191l43.42,1.65C220.83,200.63,222.13,226.3,213.77,241.42Z" style="fill:#fafafa"></path><path d="M219.34,220.72c0-.69.09-1.37.12-2.05-9.13,3.09-21.37,4-35.16,2.63.79.71,1.59,1.42,2.41,2.12,1.51.12,3,.22,4.47.28C202,224.18,211.66,223.17,219.34,220.72Z" style="fill:#37474f"></path><path d="M188.59,209.65c11.78.52,22.19-.73,30.16-3.68-.11-.65-.21-1.29-.34-1.91-11.29,4.3-27.91,5-46.52,1.84.32.7.69,1.4,1.09,2.1A138.46,138.46,0,0,0,188.59,209.65Z" style="fill:#37474f"></path><path d="M219.46,213.12c0-.66-.05-1.34-.09-2-10.48,4-25.54,4.87-42.52,2.45.59.72,1.22,1.44,1.86,2.16,3.72.48,7.36.81,10.87,1C201.23,217.22,211.53,216,219.46,213.12Z" style="fill:#37474f"></path><path d="M216.82,234.14a76.12,76.12,0,0,1-13,1.7q1.45.91,2.79,1.71a76.26,76.26,0,0,0,9.5-1.34C216.36,235.53,216.6,234.84,216.82,234.14Z" style="fill:#37474f"></path><path d="M196.42,230.92a81.06,81.06,0,0,0,21.89-2.5c.13-.68.24-1.37.35-2.06-6.91,2-15.42,2.93-24.92,2.62C194.64,229.65,195.53,230.29,196.42,230.92Z" style="fill:#37474f"></path><path d="M228.68,127c2.24-1.86,3.95-3.4,5-6.25a20.51,20.51,0,0,0,1-8.38A42.27,42.27,0,0,0,230,96.44a30.48,30.48,0,0,0-30.72-16.65,53.75,53.75,0,0,0-8.83,2c-10,3-20.14,7.09-27.24,14.76a42.74,42.74,0,0,0-5.26,7.13,32.72,32.72,0,0,0-3.12,6.61,30.91,30.91,0,0,0-.65,14.75,57.11,57.11,0,0,0,1.86,7.53c1.55,4.88,2.95,11.42,4.47,16.38a105.82,105.82,0,0,0,4.64,12.9,105.9,105.9,0,0,0,5.05,9.76l2.46-18c6.29-.78,11.41,1,17.31-1.45A111.07,111.07,0,0,0,206,143.89,161.11,161.11,0,0,0,221.4,133C223.87,131.05,226.25,129,228.68,127Z" style="fill:#263238"></path><path d="M187,95c.19,5.41-5.44,17.51-12.88,24.45,1.05,6,2.1,12.21,1.07,18.25a10,10,0,0,1-1.25,3.71,4.45,4.45,0,0,1-3.14,2.15c-1.76.19-2.52-.86-3.11-2.22a45.62,45.62,0,0,0-2.86-5,9.89,9.89,0,0,0-1.64-1.92c-2.77-2.39-10.82-5.13-14.2,3.44-3.51,8.89,4.07,19.68,10.38,21.79,8.85,3,10.81-4.56,10.81-4.56l-.11,36c-.49,10.9,14.28,12.13,30.73,11.85,6.7-.12,15.33-2.84,16.6-5.29,1.38-2.64-3.91-4.91-3.91-4.91l.37-11.69s8.5-.14,12.74-1.91c3.2-1.34,10-3.72,12.26-12.48,4.81-18.84,2.07-43.11.13-54.39-1.78-10.34-10.5-21.19-13.66-22.63.19,2.23-1.41,8-10.78,9.81C202.88,101.65,195.62,98.16,187,95Z" style="fill:#b16668"></path><path d="M213.88,180.94c-10.22-.57-20.58-3.33-26.42-6.15a26.45,26.45,0,0,1-13.17-13.59s-1,8,9.29,16.12c10.92,8.64,30.2,8.75,30.2,8.75Z" style="fill:#9a4a4d"></path><path d="M203.9,131.9a3.81,3.81,0,1,1-4.07-3.7A3.87,3.87,0,0,1,203.9,131.9Z" style="fill:#263238"></path><path d="M202.91,118.81,193.82,123a5.24,5.24,0,0,1,2.56-6.79A4.88,4.88,0,0,1,202.91,118.81Z" style="fill:#263238"></path><path d="M206,154.34l11.53,3.46a6.32,6.32,0,0,1-7.72,4.11A5.87,5.87,0,0,1,206,154.34Z" style="fill:#9a4a4d"></path><path d="M212.72,162a8.65,8.65,0,0,0-7-5.71,5.78,5.78,0,0,0,4.1,5.61A5.87,5.87,0,0,0,212.72,162Z" style="fill:#f28f8f"></path><path d="M235.27,122.2,226,119a4.72,4.72,0,0,1,6.1-3A5,5,0,0,1,235.27,122.2Z" style="fill:#263238"></path><path d="M233.57,131.13a3.84,3.84,0,1,1-4.1-3.73A3.91,3.91,0,0,1,233.57,131.13Z" style="fill:#263238"></path><path d="M213.94,150.39l14-3.17c-1.45-8-8.44-17-16.81-26.34Z" style="fill:#9a4a4d"></path><path d="M225.92,64.09c-12.21-2.29-32.35,6.9-48.63,19.55-22.56,17.51-32.47,32.1-32.47,32.1s13-7.46,38-15.86C203.84,92.85,225.92,64.09,225.92,64.09Z" style="fill:#e0e0e0"></path><path d="M154,126.22s-8.11-5.09-9.13-10.48c0,0,11-9.68,22.31-18.89,14-11.44,35-26.47,53.92-32.38,13.59-4.23,21,19.12,21,19.12a137.74,137.74,0,0,1-7.36,17s-6.9-4.44-28.89,3.15c-11.51,4-23,10.64-31.65,15.66C161.56,126.73,154,126.22,154,126.22Z" style="fill:#f0f0f0"></path><path d="M225.66,99.36c6.56-.31,9,1.24,9,1.24a137.74,137.74,0,0,0,7.36-17s-5.78-18.23-16.51-19.54C225.55,76,225.6,88.17,225.66,99.36Z" style="fill:#e0e0e0"></path><path d="M154,126.22c27.8-25.54,54.22-35,71.59-36.28,7.21-.51,10.88,3.43,11.86,5.12a11.74,11.74,0,0,1-2.72,5.54s-22.2-4.9-78.81,31.61A19.18,19.18,0,0,1,154,126.22Z" style="fill:#37474f"></path><path d="M159.85,129.68c14.78-13.67,34-33.4,64.73-36.73s17,15.18,17,15.18,5.25-9.8-16.73-7S173.6,120.61,159.85,129.68Z" style="fill:#455a64"></path><path d="M159.85,129.68c24-18.74,43.63-33.05,65.45-34.79,23.45-1.87,21.2,7.38,13.72,16.68-5.52-9.4-20.2-6.59-40,.7A419.74,419.74,0,0,0,159.85,129.68Z" style="fill:#263238"></path><path d="M234.76,77.72a14.38,14.38,0,0,1-2.9,4.17l.77.4a15.77,15.77,0,0,1-3.5,4.11,1.58,1.58,0,0,1-2.77-1.24l0-10.7,3.9-.95a.88.88,0,0,0,.62-.72c.06-.45-.22-.75-.59-.66l-3.93,1V73a3.6,3.6,0,0,0,1.34-2.83,1.91,1.91,0,0,0-2.27-2,3.41,3.41,0,0,0-2.36,3.25,2,2,0,0,0,1.33,2.09v.13l-3.9,1a.89.89,0,0,0-.62.72c-.06.45.23.75.59.66l3.93-1,0,10.7c0,1.65-1.52,3.07-2.77,2.6a8,8,0,0,1-3.49-2.41l.77-.78A7.1,7.1,0,0,1,216,82.29a12.7,12.7,0,0,0,.49,5.17l.77-.78c.71,1.28,2.85,4.16,8.08,5.51a24.82,24.82,0,0,0,8.11-9.46l.77.4A15.33,15.33,0,0,0,234.76,77.72Zm-9.35-7.92c.46-.11.84.23.84.77a1.23,1.23,0,0,1-.84,1.17.69.69,0,0,1-.84-.76A1.23,1.23,0,0,1,225.41,69.8Z" style="fill:#F3CA40"></path><path d="M142.51,196.83c-7.62.17-26.53,6.88-41.43,12.66-13.41,5.21-40.35,24.6-48.64,32.56l0,23.05c14.93,6.66,27.13,3.4,43.81-.09,29.1-6.1,31.72-6.88,31.72-6.88C146.74,253.65,150.12,210.58,142.51,196.83Z" style="fill:#ebebeb"></path><path d="M121.4,202.08c-6.7,2.24-13.88,4.91-20.32,7.41a61.68,61.68,0,0,0-5.66,2.6l-20,51c15.23-1.63,22.83-14.91,33.63-33.53C114.23,220.67,118.58,208.92,121.4,202.08Z" style="fill:#e0e0e0"></path><path d="M170.29,113.6c3.73-.68,7.09-1.1,8.56-.69,0,0,.56,2.15-1.7,5.29l1.94-.17c1,.82.59,3.12-1.75,5-3.22,2.59-7.58,3.3-16.24,8.15a37.25,37.25,0,0,0-13,12.55s-5.64,4.46-10.66-.19S140.85,124.58,170.29,113.6Z" style="fill:#9a4a4d"></path><path d="M108.41,151.14c7.51-11.78,13.41-16,18.54-21.92A32.06,32.06,0,0,1,137.59,121c6.08-3.23,13.19-4.77,18.26-6.66,8.24-3.07,16.66-3.18,20.66-3.09.86.9.25,5.93-7,7.68a66.88,66.88,0,0,0-21.89,10.23c-7.18,4.95-7.59,9.35-3.45,9s9.1-4.38,16-6c7.61-1.82,10.86,2.78,9.77,4.37s-7.47,2.66-12.06,7.71-10.72,11.19-19.2,15.37c-1.26.61-4.1,1.58-5.16,2.73-4.35,4.72-11.91,20.37-11.91,20.37L93.89,172Z" style="fill:#b16668"></path><path d="M144.21,138.21a19.29,19.29,0,0,0,5.7-2.19c1.81-.93,3.62-1.92,5.52-2.76a29.29,29.29,0,0,1,6-1.91,10.87,10.87,0,0,1,6.42.63,6.07,6.07,0,0,1,2.63,2.26,3,3,0,0,1,.45,2,2,2,0,0,1-.56,1.09,3.75,3.75,0,0,1-.76.58c-2,1.12-3.79,1.76-5.55,2.76a21.1,21.1,0,0,0-4.77,3.46c-1.34,1.4-2.75,3-4.19,4.48a65.82,65.82,0,0,1-9.55,8,51.72,51.72,0,0,1-5.37,3.2c-1.84,1.05-3.91,1.58-5.49,2.57a4,4,0,0,0-1,.91,13.41,13.41,0,0,0-.94,1.15c-.63.78-1.2,1.62-1.77,2.46-1.14,1.69-2.2,3.43-3.24,5.19-2.14,3.49-4.1,7.09-6.1,10.68,1.62-3.77,3.42-7.46,5.3-11.12,1-1.82,2-3.62,3.05-5.38.54-.88,1.09-1.76,1.71-2.61.3-.43.61-.85,1-1.26a5,5,0,0,1,1.23-1.2c1.86-1.27,3.84-1.81,5.55-2.81a49.4,49.4,0,0,0,5.15-3.17,65.09,65.09,0,0,0,9.19-7.9c1.47-1.44,2.76-2.9,4.28-4.44a23.15,23.15,0,0,1,5.2-3.68c1.83-1,3.88-1.72,5.5-2.63,1.49-.43,0-2.55-1.54-3.28a9.46,9.46,0,0,0-5.62-.75,28.72,28.72,0,0,0-5.8,1.59c-1.91.69-3.77,1.55-5.66,2.37A17.46,17.46,0,0,1,144.21,138.21Z" style="fill:#9a4a4d"></path><path d="M120.32,189.46l7.36-17.08s-4.63,1.52-14.78-4.2c-9.51-5.37-10.25-8.76-10.25-8.76L92,174.24s2.19,5.25,11.67,9.6A76.34,76.34,0,0,0,120.32,189.46Z" style="fill:#F3CA40"></path><path d="M120.32,189.46l7.36-17.08s-4.63,1.52-14.78-4.2c-9.51-5.37-10.25-8.76-10.25-8.76L92,174.24s2.19,5.25,11.67,9.6A76.34,76.34,0,0,0,120.32,189.46Z" style="opacity:0.2"></path><path d="M97.13,167.12,96,168.76a33.75,33.75,0,0,0,26.34,14.18h.83l.81-1.89A31.92,31.92,0,0,1,97.13,167.12Z" style="fill:#fafafa"></path><path d="M125.14,178.28l.81-1.89a31.87,31.87,0,0,1-25.63-13.71l-1.18,1.64A33.81,33.81,0,0,0,125.14,178.28Z" style="fill:#fafafa"></path><path d="M92.82,171.83c3.4,6.06,17,15.74,29.28,14.62,0,0-7.49,18.67-18,42.29C92.27,255.17,91.16,257.32,80,263.2c-7,3.69-21.79,5.05-27.47,1.9-8.42-4.67-2.77-31.58,4.2-43.33C63.38,210.47,76.14,192.8,92.82,171.83Z" style="fill:#ebebeb"></path><path d="M213.77,241.42s-11.32-10.69-27-27.84S170.09,191,170.09,191l0-8.88-43.7,18.35s14.44-1.54,21.38,1c16.89,6.28,18.33,10.94,33.3,22.4C201.36,239.4,213.77,241.42,213.77,241.42Z" style="fill:#F3CA40"></path><path d="M213.77,241.42s-11.32-10.69-27-27.84S170.09,191,170.09,191l0-8.88-43.7,18.35s14.44-1.54,21.38,1c16.89,6.28,18.33,10.94,33.3,22.4C201.36,239.4,213.77,241.42,213.77,241.42Z" style="opacity:0.2"></path><path d="M196.9,250.93a57.52,57.52,0,0,1-1.25,7.27,29.11,29.11,0,0,1-2.35,6.23,22.83,22.83,0,0,0,8.57-2c4.54-2,8-6.85,9.34-12.72.48-2,1.11-4.71.77-6.81-.46-2.81-2.83-5.78-5.92-5.77-3.69,0-6.88,4.6-8,7.74a19.67,19.67,0,0,0-.91,4.36C197.05,249.79,197,250.36,196.9,250.93Z" style="fill:#F3CA40"></path><path d="M196.9,250.93a57.52,57.52,0,0,1-1.25,7.27,29.11,29.11,0,0,1-2.35,6.23,22.83,22.83,0,0,0,8.57-2c4.54-2,8-6.85,9.34-12.72.48-2,1.11-4.71.77-6.81-.46-2.81-2.83-5.78-5.92-5.77-3.69,0-6.88,4.6-8,7.74a19.67,19.67,0,0,0-.91,4.36C197.05,249.79,197,250.36,196.9,250.93Z" style="opacity:0.1"></path><path d="M228.69,247.64a57.83,57.83,0,0,0,1.25,7.27,29,29,0,0,0,2.35,6.23,22.93,22.93,0,0,1-8.58-2c-4.53-2-8-6.86-9.33-12.72-.48-2-1.12-4.72-.77-6.81.46-2.82,2.83-5.78,5.92-5.77,3.69,0,6.88,4.6,8,7.74a20,20,0,0,1,.91,4.36C228.54,246.5,228.61,247.07,228.69,247.64Z" style="fill:#F3CA40"></path><path d="M228.69,247.64a57.83,57.83,0,0,0,1.25,7.27,29,29,0,0,0,2.35,6.23,22.93,22.93,0,0,1-8.58-2c-4.53-2-8-6.86-9.33-12.72-.48-2-1.12-4.72-.77-6.81.46-2.82,2.83-5.78,5.92-5.77,3.69,0,6.88,4.6,8,7.74a20,20,0,0,1,.91,4.36C228.54,246.5,228.61,247.07,228.69,247.64Z" style="opacity:0.1"></path><path d="M213.77,241.42c3.3-13.78,7.07-30-.26-48.79l.27-6.56,20.47,12S229.13,227.37,213.77,241.42Z" style="fill:#F3CA40"></path><path d="M213.77,241.42c3.3-13.78,7.07-30-.26-48.79l.27-6.56,20.47,12S229.13,227.37,213.77,241.42Z" style="opacity:0.2"></path><path d="M217.92,238.45c.12,1.67-.24,3.38-1.72,4.28a6.14,6.14,0,0,1-3.54.72c-2.15-.11-2.41-2.13-2.89-3.9A10.23,10.23,0,0,0,208,236c-.14-.18-.4-.6-.4-.6a10.45,10.45,0,0,1,1.27-1.12,11.15,11.15,0,0,1,2-1.08,5.73,5.73,0,0,1,3.64-.17,4.75,4.75,0,0,1,3.09,3.49A10,10,0,0,1,217.92,238.45Z" style="fill:#F3CA40"></path><path d="M178.17,267.8c-.15,5.35-4.34,10.66-9.37,11.86s-9-2.16-8.83-7.51,4.34-10.66,9.36-11.86S178.32,262.45,178.17,267.8Z" style="fill:#F3CA40"></path><path d="M156.57,232.5l15.81-1.07a103.84,103.84,0,0,1,3.09,21.66l-6.11,7.4-9.22-7.82A137.36,137.36,0,0,0,156.57,232.5Z" style="fill:#455a64"></path><path d="M168.38,231.7c2.2,8.23,3.09,19.37,3.5,25.74l2.27-2.76c-.55-6-1.55-14.86-3.15-23.16Z" style="fill:#37474f"></path><path d="M161.91,254.17l2.64,2.24c-.53-6-1.57-15.46-3.27-24.23l-2.64.18C160.46,239,161.4,247.69,161.91,254.17Z" style="fill:#37474f"></path><polygon points="169.62 262.81 171.59 266.83 176.25 266.43 172.77 270.75 173.43 275.52 169.31 274.18 165.06 277.52 166 272.37 162.7 269.67 167.41 267.82 169.62 262.81" style="fill:#fff;opacity:0.30000000000000004"></polygon></g></g></g><g id="freepik--speech-bubble--inject-35"><g id="freepik--speech-bubble--inject-35"><path d="M451.48,116.09c-1.68,35.63-42.76,61.44-89.76,57.79-20.36-1.58-38.42-8.48-51.94-18.6-8.11,4.49-24.32,6.28-34.93-.24a.84.84,0,0,1,.37-1.55c8-.44,15.91-4,19.26-13.66-6.78-9.53-10.39-20.36-9.86-31.6,1.55-32.83,37.88-58.85,82.93-58.11C414.69,50.91,453.16,80.46,451.48,116.09Z" style="fill:#fff"></path><path d="M370.44,175.11q-4.37,0-8.78-.34c-19.46-1.51-37.88-8.05-52-18.43-8,4.14-24.33,6.22-35.32-.54a1.73,1.73,0,0,1,.79-3.21c6.4-.35,14.72-2.84,18.31-12.63-6.9-9.84-10.27-20.82-9.75-31.77.76-16.22,9.83-31.26,25.53-42.33s36.42-17,58.31-16.63C395,49.69,420.93,60.08,436.84,77c10.83,11.54,16.2,25,15.54,39.09h0c-.66,14-7.28,27-19.15,37.47C417.68,167.33,394.68,175.11,370.44,175.11Zm-60.59-20.9.46.35c13.87,10.38,32.15,16.92,51.48,18.42,26.91,2.09,53.18-5.66,70.26-20.73,11.49-10.14,17.9-22.66,18.54-36.2S446,89.44,435.53,78.27c-15.58-16.61-41-26.8-68-27.25-21.55-.37-41.84,5.44-57.25,16.3-15.23,10.75-24,25.29-24.77,41-.51,10.69,2.84,21.42,9.69,31l.27.37-.16.44c-3.79,11-12.84,13.82-19.85,14.25,10.66,6.43,26.49,4.22,33.87.12Z" style="fill:#F3CA40"></path></g></g><g id="freepik--Text--inject-35"><path d="M319.16,101.94l-2.16,7.5a1.89,1.89,0,0,1-.31.62.65.65,0,0,1-.56.23h-2a.75.75,0,0,1-.59-.23,1.31,1.31,0,0,1-.28-.62L310,93.61a1.91,1.91,0,0,1,0-.2.69.69,0,0,1,.2-.48.66.66,0,0,1,.48-.2h1.85a.85.85,0,0,1,.48.15.79.79,0,0,1,.3.53l2.11,10.64,1.86-6.7a1.59,1.59,0,0,1,.23-.45.71.71,0,0,1,.64-.28h2.06a.7.7,0,0,1,.64.28,1.43,1.43,0,0,1,.24.45l1.86,6.7L325,93.41a.79.79,0,0,1,.3-.53.87.87,0,0,1,.48-.15h1.86a.68.68,0,0,1,.68.68.88.88,0,0,1,0,.2l-3.21,15.83a1.32,1.32,0,0,1-.29.62.74.74,0,0,1-.59.23h-2a.69.69,0,0,1-.57-.23,2.11,2.11,0,0,1-.31-.62Z" style="fill:#455a64"></path><path d="M342.87,107.16a.68.68,0,0,1,.68.68v1.78a.65.65,0,0,1-.2.47.62.62,0,0,1-.48.2h-11a.62.62,0,0,1-.48-.2.65.65,0,0,1-.2-.47V93.41a.69.69,0,0,1,.2-.48.66.66,0,0,1,.48-.2h10.81a.67.67,0,0,1,.48.2.69.69,0,0,1,.2.48v1.78a.69.69,0,0,1-.2.48.67.67,0,0,1-.48.2h-8.1v4h7.55a.68.68,0,0,1,.68.67v1.79a.68.68,0,0,1-.68.67h-7.55v4.17Z" style="fill:#455a64"></path><path d="M358.33,107.16a.69.69,0,0,1,.48.2.66.66,0,0,1,.2.48v1.78a.68.68,0,0,1-.68.67h-11a.68.68,0,0,1-.68-.67V93.41a.68.68,0,0,1,.68-.68h2a.67.67,0,0,1,.48.2.69.69,0,0,1,.2.48v13.75Z" style="fill:#455a64"></path><path d="M371.93,104.72a.69.69,0,0,1,.26-.48.75.75,0,0,1,.47-.17h2a.75.75,0,0,1,.49.19.59.59,0,0,1,.19.49,6.51,6.51,0,0,1-.52,2.06,5.37,5.37,0,0,1-1.34,1.85,6.87,6.87,0,0,1-2.28,1.36,9.44,9.44,0,0,1-3.34.53,8.49,8.49,0,0,1-3.06-.52,6.47,6.47,0,0,1-2.26-1.43,6.33,6.33,0,0,1-1.44-2.19,9,9,0,0,1-.62-2.79c0-.63-.05-1.34-.05-2.11s0-1.47.05-2.1a8.89,8.89,0,0,1,.62-2.79,6.28,6.28,0,0,1,3.7-3.62,8.28,8.28,0,0,1,3.06-.52,9.44,9.44,0,0,1,3.34.53,7,7,0,0,1,2.28,1.35,5.35,5.35,0,0,1,1.34,1.87,6.65,6.65,0,0,1,.52,2,.59.59,0,0,1-.19.49.74.74,0,0,1-.49.18h-2a.79.79,0,0,1-.48-.16.73.73,0,0,1-.28-.49,2.69,2.69,0,0,0-.35-1,3,3,0,0,0-.75-.85,3.76,3.76,0,0,0-1.2-.61,5.52,5.52,0,0,0-1.71-.24,4.5,4.5,0,0,0-1.71.3,3.6,3.6,0,0,0-1.21.8,3.51,3.51,0,0,0-.76,1.21,5.13,5.13,0,0,0-.31,1.48c0,.63,0,1.33,0,2.1s0,1.48,0,2.11a5.06,5.06,0,0,0,.31,1.49,3.56,3.56,0,0,0,.76,1.2,3.6,3.6,0,0,0,1.21.8,4.5,4.5,0,0,0,1.71.3,5.52,5.52,0,0,0,1.71-.24,4,4,0,0,0,1.21-.61,3,3,0,0,0,.77-.86A2.75,2.75,0,0,0,371.93,104.72Z" style="fill:#455a64"></path><path d="M377.7,99.28a8.86,8.86,0,0,1,.54-2.65,6,6,0,0,1,1.37-2.15A6.35,6.35,0,0,1,381.86,93a9.84,9.84,0,0,1,6.4,0,6.16,6.16,0,0,1,2.26,1.45,6.44,6.44,0,0,1,1.38,2.16,8.51,8.51,0,0,1,.55,2.66c0,.32,0,.67,0,1s0,.79,0,1.2,0,.8,0,1.19,0,.73,0,1a8.86,8.86,0,0,1-.54,2.65,5.94,5.94,0,0,1-1.37,2.16,6.23,6.23,0,0,1-2.27,1.44,8.85,8.85,0,0,1-3.19.53,8.94,8.94,0,0,1-3.22-.53,6.31,6.31,0,0,1-2.25-1.44,5.94,5.94,0,0,1-1.37-2.16,8.86,8.86,0,0,1-.54-2.65c0-.32,0-.67,0-1s0-.78,0-1.19,0-.81,0-1.2S377.68,99.6,377.7,99.28Zm11.36.13a3.91,3.91,0,0,0-1.16-2.8,4.53,4.53,0,0,0-5.65,0,3.91,3.91,0,0,0-1.16,2.8c0,.63,0,1.34,0,2.12s0,1.48,0,2.12a3.86,3.86,0,0,0,1.16,2.78,4.56,4.56,0,0,0,5.65,0,3.86,3.86,0,0,0,1.16-2.78c0-.64.06-1.35.06-2.12S389.1,100,389.06,99.41Z" style="fill:#455a64"></path><path d="M404,101.69l4.77-8.28.34-.4a.92.92,0,0,1,.74-.28h1.71a.68.68,0,0,1,.67.68v16.21a.68.68,0,0,1-.67.67h-2a.68.68,0,0,1-.67-.67V99.81l-3.26,5.64a2.61,2.61,0,0,1-.36.42.8.8,0,0,1-.57.21h-1.31a.84.84,0,0,1-.58-.21,2.51,2.51,0,0,1-.35-.42l-3.26-5.64v9.81a.65.65,0,0,1-.2.47.62.62,0,0,1-.48.2h-2a.61.61,0,0,1-.47-.2.62.62,0,0,1-.21-.47V93.41a.66.66,0,0,1,.21-.48.65.65,0,0,1,.47-.2h1.71a.92.92,0,0,1,.74.28l.34.4Z" style="fill:#455a64"></path><path d="M427.83,107.16a.69.69,0,0,1,.48.2.66.66,0,0,1,.2.48v1.78a.68.68,0,0,1-.68.67h-11a.62.62,0,0,1-.48-.2.61.61,0,0,1-.2-.47V93.41a.65.65,0,0,1,.2-.48.66.66,0,0,1,.48-.2h10.81a.68.68,0,0,1,.68.68v1.78a.68.68,0,0,1-.68.68h-8.1v4h7.55a.68.68,0,0,1,.67.67v1.79a.68.68,0,0,1-.67.67h-7.55v4.17Z" style="fill:#455a64"></path><path d="M319.14,115.43a1.22,1.22,0,0,1,.9.32,1.54,1.54,0,0,1,.41.64l6.47,18.54a.56.56,0,0,1,0,.2.61.61,0,0,1-.19.45.58.58,0,0,1-.45.19h-5.37a1,1,0,0,1-.81-.25,1.22,1.22,0,0,1-.32-.48l-.7-1.92h-6.25l-.69,1.92a1.49,1.49,0,0,1-.32.48,1.09,1.09,0,0,1-.82.25h-5.37a.58.58,0,0,1-.45-.19.61.61,0,0,1-.19-.45.56.56,0,0,1,0-.2l6.48-18.54a1.42,1.42,0,0,1,.4-.64,1.25,1.25,0,0,1,.9-.32Zm-1.51,12-1.66-5.4-1.63,5.4Z" style="fill:#F3CA40"></path><path d="M329.33,135.77a.79.79,0,0,1-.78-.79V116.22a.79.79,0,0,1,.78-.79H339c2.79,0,4.83.51,6.11,1.51a5.47,5.47,0,0,1,1.94,4.59,3.46,3.46,0,0,1-.24,1.3,3.88,3.88,0,0,1-.58,1,5.14,5.14,0,0,1-.75.79,3.65,3.65,0,0,1-.76.5,4.43,4.43,0,0,1,1.06.66,4.57,4.57,0,0,1,.89,1,5.06,5.06,0,0,1,.6,1.21,4.43,4.43,0,0,1,.21,1.38,5.6,5.6,0,0,1-2.1,4.83,10.14,10.14,0,0,1-6.09,1.56Zm10.11-14a1.72,1.72,0,0,0-.27-.91,1,1,0,0,0-.92-.43h-2.44v2.64h2.44a1,1,0,0,0,.92-.42A1.59,1.59,0,0,0,339.44,121.77Zm-3.63,9h2.7a1.15,1.15,0,0,0,1-.46,1.75,1.75,0,0,0,.3-1,1.63,1.63,0,0,0-.33-1,1.19,1.19,0,0,0-1-.45h-2.7Z" style="fill:#F3CA40"></path><path d="M368.76,123.1c0,.83.06,1.7.06,2.59s0,1.73-.06,2.52a8.44,8.44,0,0,1-.82,3.42,6.88,6.88,0,0,1-2,2.45,8.44,8.44,0,0,1-3,1.48,15.34,15.34,0,0,1-7.77,0,8.43,8.43,0,0,1-3-1.48,6.88,6.88,0,0,1-2-2.45,8.44,8.44,0,0,1-.82-3.42q-.06-1.19-.06-2.52c0-.89,0-1.76.06-2.59a8.47,8.47,0,0,1,.82-3.4,7.14,7.14,0,0,1,2-2.5,8.87,8.87,0,0,1,3-1.54,14.77,14.77,0,0,1,7.77,0,8.88,8.88,0,0,1,3,1.54,7.14,7.14,0,0,1,2,2.5A8.47,8.47,0,0,1,368.76,123.1ZM356.9,128a2.64,2.64,0,0,0,.63,1.79,2.36,2.36,0,0,0,3.05,0,2.59,2.59,0,0,0,.62-1.79c.06-1.65.06-3.27,0-4.88a2.6,2.6,0,0,0-.63-1.79,2.13,2.13,0,0,0-1.52-.56,2.1,2.1,0,0,0-1.51.56,2.65,2.65,0,0,0-.64,1.79C356.85,124.77,356.85,126.39,356.9,128Z" style="fill:#F3CA40"></path><path d="M383.46,115.43a1.22,1.22,0,0,1,.9.32,1.54,1.54,0,0,1,.41.64l6.47,18.54a.56.56,0,0,1,0,.2.61.61,0,0,1-.19.45.58.58,0,0,1-.45.19h-5.37a1,1,0,0,1-.81-.25,1.22,1.22,0,0,1-.32-.48l-.7-1.92h-6.25l-.69,1.92a1.49,1.49,0,0,1-.32.48,1.09,1.09,0,0,1-.82.25H370a.58.58,0,0,1-.45-.19.61.61,0,0,1-.19-.45.56.56,0,0,1,0-.2l6.48-18.54a1.42,1.42,0,0,1,.4-.64,1.25,1.25,0,0,1,.9-.32Zm-1.51,12-1.66-5.4-1.63,5.4Z" style="fill:#F3CA40"></path><path d="M411.58,134.81a.71.71,0,0,1,.09.32.65.65,0,0,1-.19.45.61.61,0,0,1-.45.19h-6a1.18,1.18,0,0,1-.87-.29,1.93,1.93,0,0,1-.38-.5l-2.5-5.55h-1.19V135a.75.75,0,0,1-.23.56.76.76,0,0,1-.55.23h-5.7a.79.79,0,0,1-.78-.79V116.22a.79.79,0,0,1,.78-.79h8.6a13.43,13.43,0,0,1,3.75.48,7.78,7.78,0,0,1,2.79,1.4,6.06,6.06,0,0,1,1.74,2.22,6.87,6.87,0,0,1,.61,3,6.39,6.39,0,0,1-.87,3.4,7,7,0,0,1-2.26,2.3Zm-11.45-10.9h2.12a1.16,1.16,0,0,0,1-.45,1.69,1.69,0,0,0,.33-1,2.13,2.13,0,0,0-.3-1.09,1.13,1.13,0,0,0-1-.5h-2.12Z" style="fill:#F3CA40"></path><path d="M423,115.43a13.37,13.37,0,0,1,3.77.52,9.15,9.15,0,0,1,3,1.53,7.35,7.35,0,0,1,2.05,2.5,8.46,8.46,0,0,1,.84,3.44c0,.41,0,.79,0,1.15v2.08c0,.34,0,.71,0,1.1a9.15,9.15,0,0,1-.81,3.57,7.1,7.1,0,0,1-2,2.5,8.31,8.31,0,0,1-3,1.47,14.09,14.09,0,0,1-3.81.48h-8.51a.76.76,0,0,1-.55-.23.75.75,0,0,1-.23-.56V116.22a.75.75,0,0,1,.23-.56.76.76,0,0,1,.55-.23Zm2.32,8a2.24,2.24,0,0,0-.77-1.77,2.67,2.67,0,0,0-1.7-.55h-1.74v9H423a2.41,2.41,0,0,0,1.61-.56,2.45,2.45,0,0,0,.71-1.79c0-.41,0-.79.05-1.15s0-.7,0-1,0-.68,0-1S425.34,123.83,425.32,123.42Z" style="fill:#F3CA40"></path></g></svg>
